<?xml version="1.0" encoding="UTF-8" standalone="no"?>
<svg
   id="a0179547-7667-4cb3-b9ae-32eca47089ab"
   data-name="Layer 1"
   width="926.63239"
   height="785.99373"
   viewBox="0 0 926.63239 785.99373"
   version="1.1"
   sodipodi:docname="undraw_Lost_online_re_upmy.svg"
   inkscape:version="1.1 (c68e22c387, 2021-05-23)"
   xmlns:inkscape="http://www.inkscape.org/namespaces/inkscape"
   xmlns:sodipodi="http://sodipodi.sourceforge.net/DTD/sodipodi-0.dtd"
   xmlns:xlink="http://www.w3.org/1999/xlink"
   xmlns="http://www.w3.org/2000/svg"
   xmlns:svg="http://www.w3.org/2000/svg">
  <defs
     id="defs85">
    <linearGradient
       inkscape:collect="always"
       id="linearGradient3159">
      <stop
         style="stop-color:#6c63ff;stop-opacity:1;"
         offset="0"
         id="stop3155" />
      <stop
         style="stop-color:#6c63ff;stop-opacity:0;"
         offset="1"
         id="stop3157" />
    </linearGradient>
    <linearGradient
       inkscape:collect="always"
       xlink:href="#linearGradient3159"
       id="linearGradient3161"
       x1="453.4406"
       y1="335.93433"
       x2="609.18373"
       y2="335.93433"
       gradientUnits="userSpaceOnUse" />
  </defs>
  <sodipodi:namedview
     id="namedview83"
     pagecolor="#505050"
     bordercolor="#eeeeee"
     borderopacity="1"
     inkscape:pageshadow="0"
     inkscape:pageopacity="0"
     inkscape:pagecheckerboard="0"
     showgrid="false"
     inkscape:zoom="0.74849561"
     inkscape:cx="213.76211"
     inkscape:cy="310.62307"
     inkscape:window-width="1920"
     inkscape:window-height="1017"
     inkscape:window-x="1912"
     inkscape:window-y="-8"
     inkscape:window-maximized="1"
     inkscape:current-layer="layer1" />
  <path
     d="M1030.88654,386.0594c-46.33985,59.26-133.78028,72.83-206.12989,52.19a335.51025,335.51025,0,0,1-68.1001-28.35c-12.54-6.81-24.77978-14.28-36.77-22.24-2.9502-1.95-5.89991-3.93-8.81983-5.95q-2.98534-2.04-5.95019-4.12994c-24.76026-17.42-48.54981-36.53-71.94-55.53-58.39013-47.43-118.37988-96.32-190.12011-118.95-14.77979-4.66-33.89991-6.84-43.04,5.68-7.92969,10.87-3.08985,26.26,3.62012,37.92005,24.89013,43.19,70.06982,70.46,115.29,91.43,45.21973,20.97,93.12012,37.96,132.42969,68.62,39.31006,30.66,69.32031,79.39,61.28028,128.58-6.93018,42.39-41.54,76.83-81.78028,91.84-40.23974,15-85.11963,12.91-126.94971,3.17-41.83007-9.75-81.54-26.76-121.91015-41.42-24.33985-8.85-56.15967-14.97-72.31006,5.28-13.63965,17.11-5.7998,44.1,10.81006,58.34s39.09033,19.01,60.54,23.29q99.90015,19.95,199.80029,39.89c20.42969,4.07,41.33984,8.33,59.13965,19.17,17.80029,10.83,32.16016,29.75,31.65039,50.58-.51025,20.53-15.54,38.67-33.96045,47.76-18.40967,9.08-39.66992,10.48-60.17969,9.5-76.85986-3.68-297.21-125.79-350.06006-141.4-33.96-10.02-71.08984-24.74-85.41015-57.12006-17.83008-40.31,11.51025-89.07995,51.56006-107.49,40.04-18.42,86.46-14.34,130.10009-8.13995,43.64014,6.19995,88.71973,14.09,131.2002,2.31,42.47949-11.78,81.3999-50.18006,77.21-94.06-3.65039-38.18005-38.04-66.95-74.23047-79.63-28.32959-9.93-58.46972-12.63-88.22949-17.1-8.26025-1.23-16.49023-2.61-24.64014-4.31a307.086,307.086,0,0,1-60.75-19.5,312.92391,312.92391,0,0,1-58.04-33.31,305.265,305.265,0,0,1-40.31982-35.01q-2.83521-2.93994-5.61035-6.01c-1.75977-1.96-3.5-3.96-5.19971-6-22.12012-26.43-38.46045-58.98-33.56006-92.51995,4.88965-33.45,30.96-61.3,62-74.68,17.93994-7.73,37.29-11.19,56.87989-11.69a233.79559,233.79559,0,0,1,42.77978,3.08c65.41016,10.46,125.3501,42.24005,181.96045,76.65,56.59961,34.41,111.75977,72.18,173.28955,96.71,61.53027,24.54,131.57031,34.93,193.99023,12.74,62.41993-22.18,113.69971-82.7,110.64991-148.87,41.3999,35.65,76.58008,80.46,92.16015,132.82C1070.79669,282.5594,1064.53644,343.01942,1030.88654,386.0594Z"
     fill="#3f3d56"
     id="path2"
     transform="translate(-136.6838 -57.00314)" />
  <g
     inkscape:groupmode="layer"
     id="layer1"
     inkscape:label="Layer 1"
     style="display:inline">
    <path
       d="m 520.00914,231.19113 -17.80787,13.56007 -47.30511,12.5278 c 0,0 16.95034,118.9604 8.95034,126.9604 -8,8 -0.785,8.215 -2.3925,18.60751 -1.6075,10.39251 -8.0134,37.83062 -8.0134,37.83062 h 141.18774 c 0,0 1.13768,-17.05233 -5.82208,-20.74524 -6.95976,-3.69291 6.41582,-20.92914 0.728,-23.811 -5.68782,-2.88186 2.31221,-27.88189 2.31221,-27.88189 l 17.33726,-81.84953 -46.11409,-36.07971 -7.01323,-16.89753 z"
       transform="translate(-136.6838,-57.00314)"
       fill="#6c63ff"
       id="path54"
       style="display:inline;fill:#6c63ff;fill-opacity:1;stroke:url(#linearGradient3161)" />
    <circle
       cx="408.09494"
       cy="260.29233"
       r="7.27771"
       fill="#6c63ff"
       id="circle74"
       style="display:inline" />
  </g>
  <g
     inkscape:groupmode="layer"
     id="layer2"
     inkscape:label="Layer 2"
     style="display:inline">
    <rect
       style="fill:#3f3d56;fill-opacity:1;stroke:none;stroke-width:2.2;stroke-miterlimit:1.3;stroke-dasharray:26.4, 26.4;stroke-dashoffset:2.2;stroke-opacity:1"
       id="rect3527"
       width="47.426414"
       height="48.862885"
       x="384.30331"
       y="264.54263"
       ry="3.7788253" />
    <rect
       style="display:inline;fill:#bebed2;fill-opacity:1;stroke:none;stroke-width:1.20177;stroke-miterlimit:1.3;stroke-dasharray:14.4213, 14.4213;stroke-dashoffset:1.20177;stroke-opacity:1"
       id="rect5674"
       width="41.32795"
       height="5.7653975"
       x="390.31537"
       y="259.16049"
       ry="1.2617857" />
    <rect
       style="display:inline;fill:#3f3d56;fill-opacity:1;stroke:none;stroke-width:2.13602;stroke-miterlimit:1.3;stroke-dasharray:25.6322, 25.6322;stroke-dashoffset:2.13602;stroke-opacity:1"
       id="rect11875"
       width="45.619019"
       height="5.9577308"
       x="385.18927"
       y="253.28625"
       ry="1.8104351"
       rx="0.6680066" />
    <rect
       style="display:inline;fill:#3f3d56;fill-opacity:1;stroke:none;stroke-width:2.2;stroke-miterlimit:1.3;stroke-dasharray:26.4, 26.4;stroke-dashoffset:2.2;stroke-opacity:1"
       id="rect13056"
       width="6.0120592"
       height="11.773616"
       x="383.8533"
       y="256.93204"
       rx="0.66800702"
       ry="1.8104399" />
    <rect
       style="display:inline;fill:#3f3d56;fill-opacity:1;stroke:none;stroke-width:2.2;stroke-miterlimit:1.3;stroke-dasharray:26.4, 26.4;stroke-dashoffset:2.2;stroke-opacity:1"
       id="rect13060"
       width="4.0915403"
       height="2.7555273"
       x="387.52731"
       y="263.86261"
       ry="1.3777636" />
  </g>
  <g
     inkscape:groupmode="layer"
     id="layer3"
     inkscape:label="Layer 3"
     style="display:inline">
    <g
       id="g306"
       transform="translate(376.11213,251.41119)"
       style="display:inline;fill:#ffffff;fill-opacity:1;stroke:none">
      <path
         id="Bookmark_1_"
         d="M 55.531193,13.5147 C 54.274391,12.2569 52.533192,11.5352 50.752892,11.5352 H 16.077093 c -1.0039,0 -1.8213,-0.8174 -1.8213,-1.8389005 0,-0.5145998 0.201199,-1 0.563499,-1.3632994 C 15.184592,7.9688 15.669892,7.7676 16.184593,7.7676 h 33.118115 c 0.552784,0 1,-0.4473 1,-1 0,-0.5527 -0.447216,-1 -1,-1 H 16.184593 c -1.048885,0 -2.035201,0.4081998 -2.779301,1.1514001 -0.7413,0.7420998 -1.149499,1.7284999 -1.149499,2.7939 0,2.1073999 1.713914,3.8222999 3.8213,3.8222999 h 1.922899 v 23.654501 c 0,0.602699 0.493099,1.0019 1.0072,1.0019 0.245699,0 0.496201,-0.0912 0.6999,-0.294899 l 5.5858,-5.5858 c 0.1952,-0.195202 0.451201,-0.2929 0.7071,-0.2929 0.2559,0 0.511799,0.0977 0.7071,0.2929 l 5.5858,5.5858 c 0.203701,0.203796 0.454201,0.294899 0.699898,0.294899 0.514,0 1.007202,-0.399201 1.007202,-1.0019 V 13.5352 h 16.7529 c 1.252899,0 2.479499,0.5078 3.364299,1.3935 0.899399,0.8994 1.394516,2.0948 1.394516,3.365301 v 39.026298 c 0,1.25 -0.487316,2.424797 -1.371116,3.308598 C 53.25679,61.512697 52.081993,62 50.831993,62 H 13.329092 C 12.036093,62 10.820292,61.497101 9.9061928,60.584 8.9921923,59.667999 8.4882927,58.451198 8.4882927,57.159199 V 8.1602001 C 8.4882927,4.7637 11.251892,2 14.648393,2 h 38.9795 c 0.5527,0 1,-0.4471999 1,-1 0,-0.5527 -0.4473,-1 -1,-1 h -38.9795 c -4.5,0 -8.1601003,3.6602001 -8.1601003,8.1602001 V 57.159201 c 0,1.826202 0.7108998,3.543899 2.0029001,4.837902 C 9.7841921,63.289101 11.501892,64 13.329092,64 h 37.502899 c 1.785198,0 3.461899,-0.695301 4.722714,-1.957001 1.261684,-1.260799 1.957,-2.9375 1.957,-4.722698 v -39.0263 C 57.511707,16.4893 56.80859,14.792 55.531193,13.5147 Z M 31.999992,34.775398 28.121292,30.8967 c -0.566585,-0.566601 -1.3199,-0.878599 -2.1213,-0.878599 -0.801284,0 -1.554701,0.311998 -2.121284,0.878599 l -3.878716,3.878698 V 13.6038 h 12 z"
         style="fill:#ffffff;fill-opacity:1;stroke:none" />
      <g
         id="g255"
         style="fill:#ffffff;fill-opacity:1;stroke:none">
</g>
      <g
         id="g257"
         style="fill:#ffffff;fill-opacity:1;stroke:none">
</g>
      <g
         id="g259"
         style="fill:#ffffff;fill-opacity:1;stroke:none">
</g>
      <g
         id="g261"
         style="fill:#ffffff;fill-opacity:1;stroke:none">
</g>
      <g
         id="g263"
         style="fill:#ffffff;fill-opacity:1;stroke:none">
</g>
      <g
         id="g265"
         style="fill:#ffffff;fill-opacity:1;stroke:none">
</g>
      <g
         id="g267"
         style="fill:#ffffff;fill-opacity:1;stroke:none">
</g>
      <g
         id="g269"
         style="fill:#ffffff;fill-opacity:1;stroke:none">
</g>
      <g
         id="g271"
         style="fill:#ffffff;fill-opacity:1;stroke:none">
</g>
      <g
         id="g273"
         style="fill:#ffffff;fill-opacity:1;stroke:none">
</g>
      <g
         id="g275"
         style="fill:#ffffff;fill-opacity:1;stroke:none">
</g>
      <g
         id="g277"
         style="fill:#ffffff;fill-opacity:1;stroke:none">
</g>
      <g
         id="g279"
         style="fill:#ffffff;fill-opacity:1;stroke:none">
</g>
      <g
         id="g281"
         style="fill:#ffffff;fill-opacity:1;stroke:none">
</g>
      <g
         id="g283"
         style="fill:#ffffff;fill-opacity:1;stroke:none">
</g>
    </g>
  </g>
  <g
     inkscape:groupmode="layer"
     id="layer4"
     inkscape:label="Layer 4"
     style="display:inline">
    <circle
       cx="595.91071"
       cy="253.39374"
       r="7.27771"
       fill="#6c63ff"
       id="circle4" />
    <circle
       cx="852.91071"
       cy="157.39374"
       r="11.25197"
       fill="#ff6584"
       id="circle6" />
    <circle
       cx="114.91072"
       cy="511.39374"
       r="4.1574798"
       fill="#ff6584"
       id="circle8" />
    <path
       d="m 370.92657,329.39937 a 44.42971,44.42971 0 0 1 -1.2998,10.7 c -8.26025,-1.23 -16.49023,-2.61 -24.64014,-4.31 a 307.086,307.086 0 0 1 -60.75,-19.5 44.3374,44.3374 0 0 1 86.68994,13.11 z"
       transform="translate(-136.6838,-57.00314)"
       fill="#ff6584"
       id="path10" />
    <circle
       cx="780.91071"
       cy="230.39374"
       r="4.2519698"
       fill="#f0f0f0"
       id="circle12" />
    <circle
       cx="391.91071"
       cy="698.39374"
       r="4.2519698"
       fill="#f0f0f0"
       id="circle14" />
    <circle
       cx="452.91071"
       cy="757.39374"
       r="4.2519698"
       fill="#f0f0f0"
       id="circle16" />
    <circle
       cx="75.910721"
       cy="589.39374"
       r="4.2519698"
       fill="#f0f0f0"
       id="circle18" />
    <circle
       cx="284.91071"
       cy="510.39374"
       r="4.2519698"
       fill="#f0f0f0"
       id="circle20" />
    <circle
       cx="263.91071"
       cy="88.393738"
       r="4.2519698"
       fill="#f0f0f0"
       id="circle22" />
    <circle
       cx="520.91071"
       cy="421.39374"
       r="4.2519698"
       fill="#f0f0f0"
       id="circle24" />
    <circle
       cx="552.91071"
       cy="495.39374"
       r="4.2519698"
       fill="#f0f0f0"
       id="circle26" />
    <path
       d="m 291.52716,220.72761 q 9.0747,-2.73879 17.36182,-5.93548 c 33.96045,-13.11719 53.438,-30.91113 53.438,-48.82031 0,-17.90918 -19.47753,-35.70313 -53.438,-48.82032 q -5.0376,-1.94568 -10.38575,-3.72345 a 136.34021,136.34021 0 0 1 -6.97607,107.29956 z"
       transform="translate(-136.6838,-57.00314)"
       fill="none"
       id="path28" />
    <path
       d="m 306.32648,158.96937 a 135.44,135.44 0 0 1 -14.79981,61.76 q -1.93506,3.78 -4.1001,7.43 a 136.43138,136.43138 0 0 1 -61.23,54.82 305.26946,305.26946 0 0 1 -40.31982,-35.01 q -2.83521,-2.94 -5.61035,-6.01 c -1.75977,-1.96 -3.5,-3.96 -5.19971,-6 -22.12012,-26.43 -38.46045,-58.98 -33.56006,-92.51995 4.88965,-33.45 30.96,-61.30005 62,-74.68006 17.93994,-7.73 37.29,-11.18994 56.87989,-11.68994 a 136.1263,136.1263 0 0 1 35.33007,49.16 c 1,2.37 1.91993,4.77 2.79,7.2 a 135.75647,135.75647 0 0 1 7.81989,45.53995 z"
       transform="translate(-136.6838,-57.00314)"
       fill="#6c63ff"
       id="path30" />
    <path
       d="m 368.32648,165.96937 c 0,20.83 -20.33985,40.15 -57.27979,54.42 -7.39014,2.86 -15.30029,5.45 -23.62012,7.77 -31.14013,8.68 -68.20019,13.49 -107.16015,13.8 -1.75977,-1.96 -3.5,-3.96 -5.19971,-6 0.41992,0.01 0.83984,0.01 1.25977,0.01 42.31006,0 82.45019,-5.36 115.20019,-15.24 6.04981,-1.83 11.8501,-3.81 17.35987,-5.94 33.96,-13.11 53.43994,-30.91 53.43994,-48.82 0,-17.91 -19.48,-35.7 -53.43994,-48.82 q -5.03981,-1.95 -10.37989,-3.72 c -0.87011,-2.43 -1.79,-4.83 -2.79,-7.2 q 7.97975,2.49 15.33008,5.32 c 36.9399,14.26998 57.27975,33.6 57.27975,54.42 z"
       transform="translate(-136.6838,-57.00314)"
       fill="#e4e4e4"
       id="path32" />
    <circle
       cx="45.910721"
       cy="30.39374"
       r="4.2519698"
       fill="#f0f0f0"
       id="circle34" />
    <circle
       cx="134.91072"
       cy="57.393742"
       r="4.2519698"
       fill="#f0f0f0"
       id="circle36" />
    <circle
       cx="88.910721"
       cy="100.39374"
       r="41.348431"
       fill="#f0f0f0"
       id="circle38" />
    <path
       d="m 989.19659,376.23939 c -9.28027,2.74 -29.74023,4.76 -52.24023,6 -22.48975,1.23 -47.15967,1.77 -71.52,2.29 q -63.95947,1.38008 -127.90967,2.77 -8.79052,0.195 -17.64013,0.36 c -2.9502,-1.95 -5.89991,-3.93 -8.81983,-5.95 5.23,0.03 10.46,0 15.6499,-0.1 22.16993,-0.44 40.93994,-2.17 62.31983,-2.99 32.8999,-1.27 68.41992,-0.27 102.71,0.24 34.28998,0.52002 73.3598,0.33002 97.45013,-2.62 z"
       transform="translate(-136.6838,-57.00314)"
       fill="#f0f0f0"
       opacity="0.3"
       id="path40" />
    <path
       d="M 334.76739,691.47011 198.8465,578.23939 330.89142,696.00551 a 3.15089,3.15089 0 1 0 3.876,-4.5354 z"
       transform="translate(-136.6838,-57.00314)"
       fill="#f0f0f0"
       opacity="0.3"
       id="path42" />
    <circle
       cx="94.910721"
       cy="201.39374"
       r="4.2519698"
       fill="#f0f0f0"
       id="circle44" />
    <polygon
       points="477.971,626.236 452.014,626.237 452.017,694.074 469.604,694.073 "
       fill="#ffb6b6"
       id="polygon46" />
    <path
       d="m 584.21461,745.3347 4.95031,-2e-4 19.32677,-7.85976 10.35857,7.85856 h 10e-4 a 22.07371,22.07371 0 0 1 22.07254,22.07219 v 0.71727 l -56.70854,0.002 z"
       transform="translate(-136.6838,-57.00314)"
       fill="#2f2e41"
       id="path48" />
    <polygon
       points="294.354,626.236 320.311,626.237 320.308,694.074 302.721,694.073 "
       fill="#ffb6b6"
       id="polygon50" />
    <path
       d="m 461.47733,768.12486 -56.70854,-0.002 v -0.71727 a 22.07373,22.07373 0 0 1 22.07255,-22.07219 h 10e-4 l 10.35856,-7.85856 19.32678,7.85976 4.9503,2e-4 z"
       transform="translate(-136.6838,-57.00314)"
       fill="#2f2e41"
       id="path52" />
    <path
       d="m 453.4406,440.67752 -5.82221,149.921 c 0,0 -25.13853,110.72974 -20.77189,113.64087 4.36664,2.91113 6.21647,20.26918 6.21647,20.26918 l 24.74427,2.91107 c 0,0 0,-11.64434 5.8222,-16.011 5.8222,-4.36666 59.67731,-209.59827 59.67731,-209.59827 l 52.53975,198.429 c 0,0 1.31535,11.16933 5.682,11.16933 4.36665,0 5.8222,16.011 5.8222,16.011 h 24.7442 v -16.011 c 0,0 11.11824,-3.525 6.75161,-15.16933 -4.36663,-11.64433 -24.21816,-255.56184 -24.21816,-255.56184 z"
       transform="translate(-136.6838,-57.00314)"
       fill="#2f2e41"
       id="path58" />
    <circle
       cx="401.81723"
       cy="135.41525"
       r="29.83864"
       fill="#ffb6b6"
       id="circle60" />
    <polygon
       points="452.85,269.414 458.672,273.781 461.583,253.403 "
       opacity="0.1"
       style="isolation:isolate"
       id="polygon62" />
    <path
       d="m 457.68656,257.16325 c 0,0 -7.27771,-1.45554 -11.64435,11.64435 -4.36664,13.09989 -20.37763,62.58838 -20.37763,71.32162 0,8.73324 99.71021,47.26678 99.71021,47.26678 L 515,351 469.33084,327.02937 Z"
       transform="translate(-136.6838,-57.00314)"
       fill="#6c63ff"
       id="path64" />
    <circle
       cx="393.31619"
       cy="307.99686"
       r="17"
       fill="#ffb6b6"
       id="circle66" />
    <polygon
       points="374.878,292.192 337.316,266.997 331.316,251.997 332.647,270.026 "
       opacity="0.1"
       style="isolation:isolate"
       id="polygon68" />
    <path
       d="m 609.18376,286.38986 c 0,0 4.36664,2.9111 7.27771,16.011 2.91107,13.0999 21.83313,62.58838 14.55542,74.23273 -7.27771,11.64435 -9.42613,24.07235 -34.17039,6.60582 l -34.24019,-31.35005 24.74426,-23.2887 10.18878,7.27771 z"
       transform="translate(-136.6838,-57.00314)"
       fill="#6c63ff"
       id="path72" />
    <circle
       cx="429.16269"
       cy="276.23627"
       r="17"
       fill="#ffb6b6"
       id="circle76" />
    <polygon
       points="330.514,306.41 379.316,327.997 329.158,318.194 "
       opacity="0.1"
       style="isolation:isolate"
       id="polygon78" />
    <path
       d="M 508.39724,198.36486 504.30036,182.773 c -1.069,-4.06825 -2.1468,-8.2188 -1.90666,-12.41829 0.24014,-4.19949 2.02153,-8.53306 5.55953,-10.80812 3.538,-2.27506 8.93887,-1.73765 11.21552,1.79934 0.43269,-5.6477 5.57051,-9.99191 11.02167,-11.5309 5.45116,-1.53899 11.23883,-0.93036 16.89712,-0.67071 5.65829,0.25965 11.63086,0.0784 16.51434,-2.79133 a 5.11236,5.11236 0 0 1 -2.289,6.0413 4.96273,4.96273 0 0 0 5.99526,-3.162 12.87951,12.87951 0 0 1 -3.38121,8.84533 9.47453,9.47453 0 0 1 12.24607,3.46758 c 2.49223,4.32072 1.09576,9.747 -0.36235,14.5171 l -7.48376,24.48244 c -1.13493,-3.72175 -1.349,-7.651 -1.95614,-11.49426 -0.60714,-3.84326 -1.68723,-7.76808 -4.22427,-10.71815 -2.53704,-2.95007 -6.84639,-4.65853 -10.45111,-3.19377 -2.02248,0.82183 -3.56457,2.4891 -5.39049,3.68569 -3.74646,2.45519 -8.512,2.80734 -12.96327,2.30773 -4.45127,-0.49961 -8.789,-1.76713 -13.2396,-2.27343 -2.78658,-0.317 -5.89639,-0.23309 -7.9989,1.623 a 10.28106,10.28106 0 0 0 -2.73826,5.46723 43.4859,43.4859 0 0 0 -1.158,12.5407"
       transform="translate(-136.6838,-57.00314)"
       fill="#2f2e41"
       id="path80" />
    <rect
       style="fill:#3f3d56;fill-opacity:1;stroke:none;stroke-width:2.2;stroke-miterlimit:1.3;stroke-dasharray:26.4, 26.4;stroke-dashoffset:2.2;stroke-opacity:1"
       id="rect5676"
       width="1.1610524e-06"
       height="6.8235812"
       x="408.11212"
       y="265.01498"
       ry="5.805262e-07" />
  </g>
</svg>
