<?xml version="1.0" encoding="UTF-8" standalone="no"?>
<svg
   id="f010fad9-d75e-40fc-a29f-2de004ea6566"
   data-name="Layer 1"
   width="956.73"
   height="713.19"
   viewBox="0 0 956.73 713.19"
   version="1.1"
   sodipodi:docname="3 - creative-edit.svg"
   inkscape:version="1.1 (c68e22c387, 2021-05-23)"
   xmlns:inkscape="http://www.inkscape.org/namespaces/inkscape"
   xmlns:sodipodi="http://sodipodi.sourceforge.net/DTD/sodipodi-0.dtd"
   xmlns="http://www.w3.org/2000/svg"
   xmlns:svg="http://www.w3.org/2000/svg"
   xmlns:rdf="http://www.w3.org/1999/02/22-rdf-syntax-ns#"
   xmlns:cc="http://creativecommons.org/ns#"
   xmlns:dc="http://purl.org/dc/elements/1.1/">
  <defs
     id="defs6910" />
  <sodipodi:namedview
     id="namedview6908"
     pagecolor="#505050"
     bordercolor="#eeeeee"
     borderopacity="1"
     inkscape:pageshadow="0"
     inkscape:pageopacity="0"
     inkscape:pagecheckerboard="0"
     showgrid="false"
     inkscape:zoom="1.1343401"
     inkscape:cx="598.14514"
     inkscape:cy="418.30489"
     inkscape:window-width="1920"
     inkscape:window-height="1017"
     inkscape:window-x="1912"
     inkscape:window-y="-8"
     inkscape:window-maximized="1"
     inkscape:current-layer="f010fad9-d75e-40fc-a29f-2de004ea6566" />
  <title
     id="title6841">creative thinking</title>
  <ellipse
     cx="331"
     cy="660.69"
     rx="222"
     ry="33.5"
     opacity="0.1"
     id="ellipse6845" />
  <path
     d="M494.24,528.44a56.34,56.34,0,0,0-8.78,5.56,18.88,18.88,0,0,0-6.11,8.27c-1.71-3.55-2.64-7.41-3.78-11.18A186,186,0,0,0,467.85,511,26.77,26.77,0,0,0,480,501.67c6,5.95,12.11,12.15,15.08,20,.51,1.36,2,2.81,2.35,4C497.9,527.44,495.54,527.72,494.24,528.44Z"
     transform="translate(-121.63 -93.4)"
     fill="#ffbfc5"
     id="path6855" />
  <path
     d="M329,721.12c0,44.62,32.19,49.35,71.91,49.35s71.9-4.73,71.9-49.35-32.19-61.57-71.9-61.57S329,676.51,329,721.12Z"
     transform="translate(-121.63 -93.4)"
     fill="#3f3d56"
     id="path6857"
     style="fill:#575a89;fill-opacity:1" />
  <path
     d="M550.43,673.37a55.07,55.07,0,0,1,17.94,9.6,1.85,1.85,0,0,1,.81,1.1c.14,1-1.24,1.45-2.24,1.74-3,.85-4.83,3.62-7,5.78s-5.65,3.87-8.18,2.14a8,8,0,0,1-1.72-1.81L539.36,678a64.67,64.67,0,0,1,11.37-5"
     transform="translate(-121.63 -93.4)"
     fill="#f1f1f1"
     id="path6859" />
  <path
     d="M569.64,676.27c1.42,1.44,2,3.52,3.42,5a12.23,12.23,0,0,0,3.16,2.19l8.18,4.5a22.62,22.62,0,0,0,4,1.87,35.5,35.5,0,0,0,4.69,1,33.78,33.78,0,0,1,6.62,2c1.6.66,3.39,1.79,3.38,3.52a3.82,3.82,0,0,1-1,2.28c-3.22,4.06-8.93,5-14.09,5.51-11.16,1.18-22.58,2.06-33.49-.57a14.29,14.29,0,0,1-5.89-2.55c-3.29-2.73-4-7.7-2.72-11.79a6.38,6.38,0,0,1,2.6-3.87c1.73-1,3.88-.53,5.87-.68a18.52,18.52,0,0,0,6-1.93c1.25-.56,2.68-1.29,3-2.77s-1.37-2.76-1-4C563.07,673.19,568.34,674.94,569.64,676.27Z"
     transform="translate(-121.63 -93.4)"
     fill="#575a89"
     id="path6861" />
  <path
     d="M569.64,676.27c1.42,1.44,2,3.52,3.42,5a12.23,12.23,0,0,0,3.16,2.19l8.18,4.5a22.62,22.62,0,0,0,4,1.87,35.5,35.5,0,0,0,4.69,1,33.78,33.78,0,0,1,6.62,2c1.6.66,3.39,1.79,3.38,3.52a3.82,3.82,0,0,1-1,2.28c-3.22,4.06-8.93,5-14.09,5.51-11.16,1.18-22.58,2.06-33.49-.57a14.29,14.29,0,0,1-5.89-2.55c-3.29-2.73-4-7.7-2.72-11.79a6.38,6.38,0,0,1,2.6-3.87c1.73-1,3.88-.53,5.87-.68a18.52,18.52,0,0,0,6-1.93c1.25-.56,2.68-1.29,3-2.77s-1.37-2.76-1-4C563.07,673.19,568.34,674.94,569.64,676.27Z"
     transform="translate(-121.63 -93.4)"
     opacity="0.1"
     id="path6863" />
  <path
     d="M588.61,720.93l3.44,2.27a6.15,6.15,0,0,1,2.49,2.46c.75,1.75-.26,3.73-1.38,5.27a30.28,30.28,0,0,1-13.24,10.26,19.73,19.73,0,0,1-5.75,1.43,2.4,2.4,0,0,1-1.33-.16c-1.05-.56-.9-2.05-.91-3.24,0-3.43-2.63-6.22-5-8.75s-4.71-5.63-4.17-9a11.2,11.2,0,0,1,3-5.28,21.59,21.59,0,0,1,4.5-4.25c2.43-1.59,3.28-.73,5.56.72Q582.25,716.75,588.61,720.93Z"
     transform="translate(-121.63 -93.4)"
     fill="#f1f1f1"
     id="path6865" />
  <path
     d="M577.45,737.67a6.13,6.13,0,0,0,5.41-1.22,13.55,13.55,0,0,0,3.51-4.52,36.74,36.74,0,0,0,2.18-4.78c.72-1.93,1.38-4.06,3.08-5.23,2-1.42,4.94-.86,7,.51s3.62,3.4,5.39,5.16c4.17,4.16,9.66,6.79,15.3,8.51s11.49,2.58,17.28,3.69a9.8,9.8,0,0,1,3.32,1.07c2.34,1.43,3.13,4.62,2.47,7.28S640,753,638.11,755a17.24,17.24,0,0,1-5.73,4.43,18.29,18.29,0,0,1-5.79,1.1,98.89,98.89,0,0,1-28.6-2.24,76.51,76.51,0,0,0-10.48-2.09c-2.15-.19-4.33-.13-6.48-.28a34.12,34.12,0,0,1-12.38-3.26,4.37,4.37,0,0,1-2.25-1.88,4.62,4.62,0,0,1-.17-2.48l1.43-12.54c.13-1.09.49-2.45,1.58-2.62s1.78.9,2.43,1.72a8.87,8.87,0,0,0,10.61,2.32"
     transform="translate(-121.63 -93.4)"
     fill="#575a89"
     id="path6867" />
  <path
     d="M494.41,579.53c6.29-.71,13.59-.83,17.85,3.86,2.61,2.88,3.4,6.91,4.3,10.68a69.35,69.35,0,0,0,6.82,18.16c2,3.54,4.43,6.85,6,10.61s2.16,8,3.08,12.09A72.94,72.94,0,0,0,558,675.57c-2.27,6.17-8.84,9.7-15.23,11.28A8.39,8.39,0,0,1,538,687a8.52,8.52,0,0,1-3.09-2.28,106,106,0,0,1-8.33-10.21c-9.21-12.3-18.55-24.85-23.57-39.36-1.76-5.1-3.52-11-8.47-13.17-2.82-1.22-6.05-.84-9.08-.32a123.09,123.09,0,0,0-19.92,5.11c-6.92,2.41-14.84,5.37-21.17,1.69-3.79-2.21-6-6.44-6.87-10.74s-.43-8.74,0-13.1a13.49,13.49,0,0,1,1.38-5.66,12.27,12.27,0,0,1,3.31-3.35,68.15,68.15,0,0,1,18.64-10c6.39-2.26,13.27-3,19.94-4.13Q487.56,580.3,494.41,579.53Z"
     transform="translate(-121.63 -93.4)"
     fill="#575a89"
     id="path6869"
     style="fill:#3f3d56;fill-opacity:1" />
  <path
     d="m 372.78,486.13 c 6.29,-0.71 13.59,-0.83 17.85,3.86 2.61,2.88 3.4,6.91 4.3,10.68 a 69.35,69.35 0 0 0 6.82,18.16 c 2,3.54 4.43,6.85 6,10.61 1.57,3.76 2.16,8 3.08,12.09 a 72.94,72.94 0 0 0 25.54,40.64 c -2.27,6.17 -8.84,9.7 -15.23,11.28 a 8.39,8.39 0 0 1 -4.77,0.15 8.52,8.52 0 0 1 -3.09,-2.28 106,106 0 0 1 -8.33,-10.21 c -9.21,-12.3 -18.55,-24.85 -23.57,-39.36 -1.76,-5.1 -3.52,-11 -8.47,-13.17 -2.82,-1.22 -6.05,-0.84 -9.08,-0.32 a 123.09,123.09 0 0 0 -19.92,5.11 c -6.92,2.41 -14.84,5.37 -21.17,1.69 -3.79,-2.21 -6,-6.44 -6.87,-10.74 -0.87,-4.3 -0.43,-8.74 0,-13.1 a 13.49,13.49 0 0 1 1.38,-5.66 12.27,12.27 0 0 1 3.31,-3.35 68.15,68.15 0 0 1 18.64,-10 c 6.39,-2.26 13.27,-3 19.94,-4.13 q 6.79,-1.18 13.64,-1.95 z"
     opacity="0.1"
     id="path6871"
     style="fill:#939dac" />
  <path
     d="M530.43,624.91a32.48,32.48,0,0,1,8,5.65c2.55,2.72,4.1,6.23,5.42,9.73a11.81,11.81,0,0,1,.94,3.76,4.27,4.27,0,0,1-1.39,3.48,6.23,6.23,0,0,1-3.93,1c-1.82,0-3.65,0-5.47-.14a9.14,9.14,0,0,1-3.24-.62,9,9,0,0,1-2.52-1.91,35.43,35.43,0,0,1-7.75-10.46c-1.32-2.91-3.5-9.63-1.42-12.66S528.17,623.62,530.43,624.91Z"
     transform="translate(-121.63 -93.4)"
     fill="#ffbfc5"
     id="path6873" />
  <path
     d="m 442.2,623.87 c 9.31,3 19.22,3.32 28.95,4.23 16.36581,1.5316 32.53277,4.72814 48.25,9.54 3.22,1 6.51,2.08 9.1,4.23 2.10484,1.94618 3.88707,4.21446 5.28,6.72 2.55654,3.89395 4.87092,7.94161 6.93,12.12 1.77,3.78 3.12,7.74 4.76,11.57 5.52545,12.82944 14.2629,24.01902 25.37,32.49 2,1.55 4.29,3.23 4.81,5.72 0.23648,1.6065 -0.0253,3.24688 -0.75,4.7 -2.4,5.59 -7.38,9.66 -12.61,12.77 -2.24,1.34 -4.72,2.69 -5.82,5.07 -7.94,-3.28 -13.85,-10.28 -18.76,-17.32 -4.91,-7.04 -9.28,-14.63 -15.58,-20.47 -2.77,-2.58 2.19,3.1 0,0 -3.33,-4.72 -12.34,-19.1 -16.82,-22.74 -4.48,-3.64 -11,-3.17 -16.79,-2.6 -29.66535,2.89241 -59.55699,2.55712 -89.15,-1 -6.15,-0.73 -12.47,-1.67 -17.8,-4.84 -5.33,-3.17 -9.48,-9.09 -8.73,-15.24 0.71,-5.76 5.5,-10.32 10.85,-12.57 5.35,-2.25 11.25,-2.66 17,-3.31 14.31,-1.58 27.97,-4.18 41.51,-9.07 z"
     transform="translate(-121.63,-93.4)"
     fill="#575a89"
     id="path6875"
     style="fill:#3f3d56;fill-opacity:1"
     sodipodi:nodetypes="ccccccccccccsccsccscscc" />
  <path
     d="M357.11,635.82c.73-4.88,2.62-9.5,3.81-14.29a86.42,86.42,0,0,1,2.26-8.93c0-.09.07-.17.1-.25a2.06,2.06,0,0,0,1.52-.87,2.52,2.52,0,0,0,.13-1.34,9.72,9.72,0,0,1,0-1.43,102.25,102.25,0,0,1,6.38-9.45c4-5.71,7.52-11.78,11-17.84,2.86-5,5.72-9.94,8.08-15.16,1.78-3.91,3.27-8,5.23-11.78,7-13.6,19.52-23.63,33-30.83,12.94-6.91,26.93-11.56,40.53-17.06a9.22,9.22,0,0,1,.95,1.12c7.35,10.05,8.14,23.25,11.17,35.33,1.22,4.88,2.85,9.74,2.85,14.76,0,7.42-3.55,14.32-7.08,20.85-3.31,6.15-6.72,12.3-11.11,17.73-2.08,2.58-4.37,5-6.46,7.55-8.58,10.51-13.53,23.44-18.35,36.13-2.78,7.35-7.34,13.86-10.4,21.1-1.18,2.78-1.86,5.77-3.34,8.41s-4.05,4.94-7.07,5a10.6,10.6,0,0,1-2.61-.41c-10.93-2.81-20.08-10-29.16-16.74-1.63-1.2-3.26-2.38-5-3.46s-3.5-2.07-5.28-3l-4.06-2.23c-4.42-2.42-8.86-4.85-13.47-6.9a24.51,24.51,0,0,1-4-2A23.87,23.87,0,0,1,357.11,635.82Z"
     transform="translate(-121.63 -93.4)"
     fill="#3f3d56"
     id="path6877"
     style="fill:#575a89;fill-opacity:1" />
  <circle
     cx="378.36"
     cy="409.02"
     r="25.18"
     fill="#ffbfc5"
     id="circle6879" />
  <path
     d="M516.94,490.64a6,6,0,0,0,6.2,2.91,8.69,8.69,0,0,0,5.79-4.13,16.33,16.33,0,0,0,2.14-6.94c.21-1.91.18-4-1.05-5.49a12.06,12.06,0,0,0-3.19-2.24,12.14,12.14,0,0,1-4-4c-.7-1.17-1.21-2.44-1.84-3.64-2.29-4.35-6.75-7.89-11.66-7.73-2.36.08-4.61,1-6.94,1.38-7.81,1.37-16.29-2.76-23.54.46a22,22,0,0,0-4.92,3.28q-3.06,2.53-5.88,5.32a12.14,12.14,0,0,0-3.58,5.21c-1,3.7,1.35,7.83-.14,11.35a16.72,16.72,0,0,1-1.81,2.85c-1.64,2.41.14,11.82,0,14.73a5.45,5.45,0,0,0,1,4c1.19,1.33,3.18,1.44,5,1.46l3.27,0a4.15,4.15,0,0,0,1.45-.15,4.39,4.39,0,0,0,1.65-1.26c2.72-2.87,3.3-12.24,7.25-12.2a2.82,2.82,0,0,1,1.71.44c.71.52.92,1.49,1.43,2.21a4.18,4.18,0,0,0,4.85,1.14,10.94,10.94,0,0,0,4.13-3.34,16.27,16.27,0,0,1,3.86-3.69c2.11-1.23,4.49-1.76,6.54-3.15,1.71-1.16,2.68-2.84,4.22-4.12s2.84-1.1,4.48-.25C515.73,486.36,515.83,488.44,516.94,490.64Z"
     transform="translate(-121.63 -93.4)"
     fill="#3f3d56"
     id="path6881" />
  <path
     d="M458.76,535a40.07,40.07,0,0,1,17.54,1.4,9.32,9.32,0,0,1,4.89,2.91,8.78,8.78,0,0,1,1.4,3.66,29.59,29.59,0,0,1-2.13,17.84,2.36,2.36,0,0,0-.29,1.9,3.36,3.36,0,0,0,1,1,3.48,3.48,0,0,1-.21,5.19c-.47.34-1.09.64-1.18,1.21s.49,1.12.95,1.56a5.59,5.59,0,0,1,1.56,5.14,11.27,11.27,0,0,0-.51,2.27,7.41,7.41,0,0,0,.83,2.71,11.86,11.86,0,0,1,.75,6,6.61,6.61,0,0,0-.07,2.93,6.82,6.82,0,0,0,1.12,1.76c1.81,2.44,2.2,6.52-.42,8a6.07,6.07,0,0,1,3.23,6.26c1.57-.83,3.47.24,4.78,1.44s2.64,2.68,4.41,2.77c1.24.06,2.55-.58,3.67-.07,1.72.77,1.66,3.56,3.35,4.39,1.48.74,3.55-.46,4.81.61.44.37.66.94,1.09,1.33.95.88,2.45.51,3.75.45,3.07-.12,5.9,2,7.49,4.58s2.16,5.73,2.57,8.77a11.61,11.61,0,0,1-.1,5.05,4.33,4.33,0,0,1-3.55,3.2c-15.45,1-30.7-2.71-45.75-6.37-4.42-1.08-8.91-2.34-12.6-5-3.35-2.43-5.81-5.85-8.21-9.21-4.43-6.21-8.89-12.46-12.06-19.39-4.08-8.91-5.9-18.67-7.68-28.32a26.34,26.34,0,0,1-.65-7.9,22.39,22.39,0,0,1,3.48-8.66,94.3,94.3,0,0,1,7-9.93C446.89,539.71,452.68,535.87,458.76,535Z"
     transform="translate(-121.63 -93.4)"
     opacity="0.1"
     id="path6883"
     style="fill:#5f5fd3" />
  <path
     d="M459.77,534a40,40,0,0,1,17.55,1.41,9.24,9.24,0,0,1,4.89,2.9,8.92,8.92,0,0,1,1.4,3.66,29.66,29.66,0,0,1-2.13,17.84,2.36,2.36,0,0,0-.29,1.9,3.36,3.36,0,0,0,1,1,3.48,3.48,0,0,1-.21,5.19c-.47.34-1.09.64-1.18,1.21s.49,1.12,1,1.56a5.59,5.59,0,0,1,1.56,5.14,11.27,11.27,0,0,0-.51,2.27,7.39,7.39,0,0,0,.82,2.71,11.77,11.77,0,0,1,.76,6,4.32,4.32,0,0,0,1.05,4.69c1.81,2.44,2.2,6.52-.42,8.06a6.05,6.05,0,0,1,3.23,6.25c1.57-.83,3.47.24,4.78,1.44s2.64,2.68,4.41,2.77c1.24.06,2.54-.58,3.67-.07,1.72.78,1.66,3.56,3.35,4.4,1.48.73,3.55-.47,4.81.6.44.37.66.94,1.09,1.33.95.88,2.45.51,3.75.45,3.07-.12,5.9,2,7.49,4.58a22.5,22.5,0,0,1,2.57,8.77,11.93,11.93,0,0,1-.1,5,4.33,4.33,0,0,1-3.55,3.2c-15.45,1-30.7-2.71-45.75-6.37-4.42-1.08-8.92-2.34-12.6-5-3.35-2.42-5.81-5.85-8.21-9.21-4.43-6.2-8.89-12.45-12.06-19.38-4.08-8.92-5.9-18.68-7.68-28.32a26.4,26.4,0,0,1-.65-7.91A22.39,22.39,0,0,1,437,553.4a91.74,91.74,0,0,1,7-9.92C447.91,538.69,453.7,534.86,459.77,534Z"
     transform="translate(-121.63 -93.4)"
     fill="#3f3d56"
     id="path6885"
     style="fill:#575a89;fill-opacity:1" />
  <g
     id="g61868"
     transform="matrix(6.7912937,0,0,6.7912937,283.98368,133.3063)"
     style="fill:#575a89;fill-opacity:1">
    <g
       id="g61814"
       style="fill:#575a89;fill-opacity:1">
	<path
   d="m 15.255,0 c 5.424,0 10.764,2.498 10.764,8.473 0,5.51 -6.314,7.629 -7.67,9.62 -1.018,1.481 -0.678,3.562 -3.475,3.562 -1.822,0 -2.712,-1.482 -2.712,-2.838 0,-5.046 7.414,-6.188 7.414,-10.343 0,-2.287 -1.522,-3.643 -4.066,-3.643 -5.424,0 -3.306,5.592 -7.414,5.592 C 6.613,10.423 5.34,9.533 5.34,7.839 5.339,3.683 10.084,0 15.255,0 Z m -0.211,24.406 c 1.904,0 3.475,1.566 3.475,3.476 0,1.91 -1.568,3.476 -3.475,3.476 -1.907,0 -3.476,-1.564 -3.476,-3.476 0,-1.909 1.569,-3.476 3.476,-3.476 z"
   id="path61812"
   style="fill:#575a89;fill-opacity:1" />

</g>
    <g
       id="g61816"
       style="fill:#575a89;fill-opacity:1">
</g>
    <g
       id="g61818"
       style="fill:#575a89;fill-opacity:1">
</g>
    <g
       id="g61820"
       style="fill:#575a89;fill-opacity:1">
</g>
    <g
       id="g61822"
       style="fill:#575a89;fill-opacity:1">
</g>
    <g
       id="g61824"
       style="fill:#575a89;fill-opacity:1">
</g>
    <g
       id="g61826"
       style="fill:#575a89;fill-opacity:1">
</g>
    <g
       id="g61828"
       style="fill:#575a89;fill-opacity:1">
</g>
    <g
       id="g61830"
       style="fill:#575a89;fill-opacity:1">
</g>
    <g
       id="g61832"
       style="fill:#575a89;fill-opacity:1">
</g>
    <g
       id="g61834"
       style="fill:#575a89;fill-opacity:1">
</g>
    <g
       id="g61836"
       style="fill:#575a89;fill-opacity:1">
</g>
    <g
       id="g61838"
       style="fill:#575a89;fill-opacity:1">
</g>
    <g
       id="g61840"
       style="fill:#575a89;fill-opacity:1">
</g>
    <g
       id="g61842"
       style="fill:#575a89;fill-opacity:1">
</g>
    <g
       id="g61844"
       style="fill:#575a89;fill-opacity:1">
</g>
  </g>
  <metadata
     id="metadata91313">
    <rdf:RDF>
      <cc:Work
         rdf:about="">
        <dc:title>creative thinking</dc:title>
      </cc:Work>
    </rdf:RDF>
  </metadata>
</svg>
