<?xml version="1.0" encoding="UTF-8" standalone="no"?>
<svg
   id="b6844486-882e-488a-b917-920917943dff"
   data-name="Layer 1"
   width="762"
   height="689.78723"
   viewBox="0 0 762 689.78723"
   version="1.1"
   sodipodi:docname="2 - responsibility-edit.svg"
   inkscape:version="1.1 (c68e22c387, 2021-05-23)"
   xmlns:inkscape="http://www.inkscape.org/namespaces/inkscape"
   xmlns:sodipodi="http://sodipodi.sourceforge.net/DTD/sodipodi-0.dtd"
   xmlns="http://www.w3.org/2000/svg"
   xmlns:svg="http://www.w3.org/2000/svg">
  <defs
     id="defs273" />
  <sodipodi:namedview
     id="namedview271"
     pagecolor="#505050"
     bordercolor="#eeeeee"
     borderopacity="1"
     inkscape:pageshadow="0"
     inkscape:pageopacity="0"
     inkscape:pagecheckerboard="0"
     showgrid="false"
     inkscape:zoom="0.82931281"
     inkscape:cx="151.33011"
     inkscape:cy="289.99914"
     inkscape:window-width="1920"
     inkscape:window-height="1017"
     inkscape:window-x="1912"
     inkscape:window-y="-8"
     inkscape:window-maximized="1"
     inkscape:current-layer="layer3" />
  <path
     d="M980,794.89362H220a1,1,0,0,1,0-2H980a1,1,0,0,1,0,2Z"
     transform="translate(-219 -105.10638)"
     fill="#ccc"
     id="path170" />
  <g
     inkscape:groupmode="layer"
     id="layer2"
     inkscape:label="Layer 2">
    <g
       transform="matrix(0.04430236,0,0,-0.04430236,224.68587,653.94414)"
       fill="#3f51b5"
       stroke="none"
       id="g1063"
       style="fill:#5f5fd3">
      <path
         d="m 3335,12789 c -342,-36 -464,-56 -659,-105 C 1937,12497 1269,12057 786,11440 620,11229 512,11055 385,10795 189,10395 73,9990 31,9565 25,9505 16,9409 10,9352 -2,9224 -3,9126 9,9007 c 5,-51 15,-144 21,-207 44,-449 189,-937 395,-1326 163,-310 331,-543 627,-869 340,-375 868,-1249 1022,-1692 68,-198 66,-162 66,-1098 v -845 h 50 c 49,0 49,-1 59,-37 5,-21 23,-92 40,-157 23,-87 31,-142 31,-205 0,-124 3,-131 56,-131 24,0 87,5 141,10 54,6 352,33 663,60 1423,127 1530,137 1536,142 2,3 20,63 40,134 56,209 49,194 100,194 h 44 v 840 c 0,931 -2,896 66,1093 154,443 684,1320 1022,1692 288,316 463,558 621,856 212,402 356,884 401,1339 6,63 16,156 21,207 12,119 11,217 -1,345 -6,57 -15,153 -21,213 -57,587 -272,1176 -612,1680 -519,771 -1344,1318 -2238,1484 -153,28 -157,29 -373,51 -209,21 -317,23 -451,9 z m 560,-214 c 623,-72 1209,-324 1705,-730 127,-105 367,-347 466,-471 416,-520 659,-1088 749,-1749 23,-164 31,-557 16,-737 -60,-698 -318,-1351 -746,-1883 -40,-49 -130,-153 -200,-230 -146,-161 -276,-330 -432,-565 -413,-620 -699,-1205 -733,-1497 -6,-51 -10,-388 -10,-809 v -721 l -137,-6 c -75,-4 -610,-7 -1190,-7 H 2330 v 723 c 0,397 -5,764 -10,814 -30,289 -317,878 -721,1485 -188,282 -285,409 -456,596 -525,575 -811,1179 -920,1943 -25,177 -25,710 0,889 96,675 335,1234 751,1754 101,126 340,368 466,471 326,267 682,463 1069,589 280,92 503,134 846,160 95,7 410,-4 540,-19 z"
         id="path1047"
         style="fill:#5f5fd3" />
      <path
         d="m 4440,2519 c -201,-19 -552,-51 -1430,-129 -311,-27 -588,-52 -615,-55 l -50,-6 -48,-84 -48,-84 47,-81 c 26,-44 50,-80 54,-80 5,0 158,14 342,30 485,44 708,64 1338,120 311,27 588,52 615,55 l 50,6 48,84 48,84 -47,81 c -55,94 -21,87 -304,59 z"
         id="path1049"
         style="fill:#5f5fd3" />
      <path
         d="m 4290,2069 c -266,-25 -1435,-130 -1775,-160 -199,-17 -185,-12 -185,-69 0,-60 -17,-57 216,-35 171,16 478,43 1449,130 780,69 712,60 718,94 3,16 3,38 0,50 -7,27 -29,27 -423,-10 z"
         id="path1051"
         style="fill:#5f5fd3" />
      <path
         d="m 4305,1860 c -311,-30 -674,-62 -1435,-130 -245,-22 -463,-42 -486,-45 -39,-6 -43,-9 -88,-89 l -47,-84 37,-63 c 55,-95 60,-99 108,-93 22,2 295,27 606,54 311,28 612,54 670,60 58,6 309,28 559,51 250,22 458,42 462,45 4,2 28,40 54,83 l 46,80 -46,80 -47,81 -46,-1 c -26,-1 -182,-14 -347,-29 z"
         id="path1053"
         style="fill:#5f5fd3" />
      <path
         d="m 4490,1439 c -174,-16 -1008,-92 -1850,-167 l -305,-27 -3,-53 c -2,-40 0,-52 12,-52 8,0 162,13 343,30 180,16 582,52 893,80 311,28 688,62 838,75 150,14 276,25 281,25 12,0 20,50 14,83 -3,15 -10,26 -17,26 -6,-1 -99,-10 -206,-20 z"
         id="path1055"
         style="fill:#5f5fd3" />
      <path
         d="m 4385,1219 c -201,-19 -1341,-122 -1770,-160 -126,-11 -240,-22 -251,-24 -15,-3 -37,-32 -68,-86 l -46,-82 35,-62 c 62,-112 40,-105 265,-84 255,24 1496,135 1945,174 99,9 185,18 191,20 6,2 32,40 58,85 l 47,81 -44,77 -45,77 -58,2 c -33,0 -149,-8 -259,-18 z"
         id="path1057"
         style="fill:#5f5fd3" />
      <path
         d="m 4630,803 c -19,-2 -332,-30 -695,-63 -363,-32 -873,-78 -1132,-101 l -473,-43 v -57 -57 l 195,-122 c 177,-110 197,-120 211,-106 14,14 100,16 786,16 672,0 774,-2 788,-15 15,-14 35,-4 206,104 136,86 191,125 195,142 9,31 11,237 3,278 -7,33 -6,32 -84,24 z"
         id="path1059"
         style="fill:#5f5fd3" />
      <path
         d="m 2975,147 c 11,-8 60,-36 109,-62 51,-28 91,-56 94,-67 4,-17 22,-18 342,-18 314,0 339,1 344,18 3,9 53,43 111,75 58,32 105,60 105,63 0,2 -253,4 -562,4 -474,0 -559,-2 -543,-13 z"
         id="path1061"
         style="fill:#5f5fd3" />
    </g>
  </g>
  <g
     inkscape:groupmode="layer"
     id="layer3"
     inkscape:label="engrenagem">
    <g
       transform="matrix(0.01530184,0,0,-0.01530184,238.17977,293.65194)"
       fill="#3f51b5"
       stroke="none"
       id="g1621"
       style="fill:#5f5fd3">
      <path
         d="m 8500,12793 c -203,-19 -252,-24 -264,-29 -21,-8 -67,-401 -84,-718 l -7,-129 -110,-27 c -60,-15 -144,-41 -185,-58 -105,-43 -337,-154 -397,-191 -28,-17 -53,-31 -55,-31 -3,0 -151,120 -329,266 -178,146 -330,268 -336,271 -24,10 -229,-164 -382,-323 -147,-152 -315,-362 -303,-377 43,-57 207,-259 347,-427 94,-113 175,-211 179,-218 4,-8 -9,-38 -34,-78 -67,-106 -145,-271 -180,-379 -18,-55 -43,-132 -56,-172 -13,-39 -24,-78 -24,-86 0,-11 -19,-16 -72,-21 -390,-36 -765,-79 -775,-90 -31,-30 -51,-432 -34,-649 12,-151 35,-315 46,-325 4,-5 299,-34 757,-77 l 77,-7 6,-41 c 4,-23 15,-62 25,-87 10,-25 34,-97 54,-161 39,-121 120,-293 187,-393 22,-33 38,-65 35,-73 -3,-7 -83,-106 -179,-220 -264,-316 -348,-423 -340,-436 34,-60 195,-249 308,-363 149,-150 382,-344 393,-328 4,6 99,86 212,179 113,93 250,207 305,254 55,48 107,92 117,99 14,11 33,4 130,-51 134,-76 299,-144 459,-187 63,-17 121,-35 127,-39 8,-5 23,-109 42,-302 30,-293 57,-524 64,-545 8,-21 310,-37 569,-31 206,5 407,24 423,39 2,3 20,180 39,394 20,214 38,404 41,422 6,38 4,37 177,88 145,43 338,128 455,201 47,30 90,52 96,49 6,-2 67,-52 136,-111 232,-200 522,-426 537,-421 27,11 138,96 200,153 129,120 483,521 483,547 0,3 -114,141 -252,307 -139,165 -263,313 -275,328 l -22,27 59,114 c 79,151 156,344 189,471 l 26,104 185,17 c 102,9 294,27 427,39 l 242,23 6,26 c 13,63 26,219 31,380 9,237 -17,582 -44,599 -7,4 -197,24 -424,45 -227,21 -416,40 -420,42 -4,2 -12,30 -18,62 -27,137 -115,364 -206,533 l -65,121 38,46 c 21,26 139,171 264,323 124,152 229,281 233,288 8,12 -71,113 -203,260 -146,162 -481,451 -504,434 -83,-63 -382,-305 -487,-394 -75,-62 -142,-119 -151,-126 -12,-10 -54,7 -229,96 -153,76 -247,116 -325,139 -60,18 -120,32 -132,32 -25,0 -25,-3 -49,255 -17,191 -64,608 -68,612 -8,8 -126,23 -252,32 -130,10 -372,12 -454,4 z m 455,-2094 c 217,-36 427,-151 610,-333 179,-178 289,-374 335,-601 104,-501 -99,-998 -520,-1276 -192,-127 -378,-186 -616,-196 -222,-10 -388,24 -579,117 -239,117 -419,293 -546,534 -96,183 -134,343 -133,571 1,281 77,507 244,723 212,275 500,446 795,471 111,9 329,4 410,-10 z"
         id="path1613"
         style="fill:#5f5fd3" />
      <path
         d="m 8500,10521 c -365,-80 -663,-359 -777,-727 -25,-83 -27,-101 -27,-279 -1,-207 4,-238 65,-396 65,-169 235,-378 398,-488 90,-61 214,-117 317,-143 128,-32 372,-32 490,0 140,38 241,86 354,170 320,238 473,583 430,970 -27,250 -124,448 -301,617 -134,128 -274,210 -448,262 -119,35 -371,43 -501,14 z m 382,-256 c 228,-48 440,-209 537,-407 17,-35 41,-101 52,-147 18,-73 21,-105 17,-235 -4,-132 -8,-161 -34,-236 -76,-227 -298,-429 -546,-496 -76,-21 -290,-24 -358,-5 -147,40 -267,110 -374,217 -45,44 -96,106 -115,137 -222,373 -105,862 259,1078 74,43 186,87 260,99 75,13 231,10 302,-5 z"
         id="path1615"
         style="fill:#5f5fd3" />
      <path
         d="m 4716,8448 c -75,-191 -162,-428 -251,-680 l -98,-278 h -122 c -231,0 -583,-47 -788,-106 -70,-20 -129,-35 -131,-33 -1,2 -36,51 -77,109 -140,200 -570,790 -575,790 -10,0 -181,-68 -219,-88 -22,-11 -74,-36 -115,-56 -41,-19 -120,-61 -175,-94 -55,-32 -148,-87 -207,-122 -105,-62 -250,-166 -342,-245 l -46,-41 120,-259 c 67,-143 171,-367 232,-498 l 111,-238 -76,-77 c -196,-200 -433,-511 -513,-675 -16,-32 -32,-57 -37,-57 -4,0 -146,24 -315,54 -329,58 -773,129 -777,124 -8,-8 -103,-248 -140,-353 C 124,5479 40,5067 5,4785 l -6,-50 508,-195 508,-195 2,-95 c 4,-171 23,-381 44,-489 11,-58 27,-141 35,-183 8,-43 26,-116 39,-163 14,-47 25,-92 25,-100 0,-7 -93,-80 -207,-161 C 838,3073 640,2930 512,2836 304,2684 280,2663 285,2643 c 22,-88 216,-464 346,-672 74,-116 223,-330 264,-378 l 30,-34 175,81 c 172,81 736,339 796,365 l 30,14 135,-125 c 169,-158 253,-221 482,-361 138,-84 182,-116 180,-130 -1,-10 -22,-142 -47,-293 -44,-266 -116,-748 -116,-773 0,-7 15,-18 33,-26 225,-90 426,-152 715,-220 193,-46 473,-94 483,-83 18,20 261,659 355,929 l 38,113 h 152 c 262,0 447,26 712,102 122,34 146,38 157,27 7,-8 153,-212 325,-454 172,-242 314,-442 316,-443 3,-4 91,37 361,170 112,55 243,130 345,197 145,96 331,233 381,281 18,16 15,25 -81,241 -55,123 -159,350 -230,504 l -130,279 117,126 c 160,170 305,368 405,552 25,48 50,89 54,91 4,2 95,-11 202,-29 559,-94 883,-145 894,-141 22,9 178,453 221,627 8,36 20,75 25,87 9,21 73,382 84,475 l 6,47 -48,21 c -62,28 -480,186 -764,290 l -228,83 v 156 c 0,179 -10,281 -41,448 -18,99 -67,314 -85,375 -4,12 44,51 188,154 217,155 695,511 703,525 7,11 -61,171 -143,334 -116,233 -266,468 -424,667 l -77,97 -133,-58 c -184,-81 -480,-217 -687,-317 l -173,-84 -134,127 c -142,134 -314,268 -429,336 -60,35 -183,116 -208,137 -4,4 11,123 33,266 112,714 131,836 128,839 -2,1 -73,29 -158,62 -180,70 -399,143 -431,143 -12,0 -47,9 -78,19 -80,28 -488,110 -546,111 -16,0 -26,-16 -49,-72 z M 4535,5825 c 276,-49 564,-184 772,-363 246,-212 460,-599 518,-936 22,-127 20,-347 -4,-488 -44,-255 -154,-525 -285,-698 -231,-307 -631,-548 -1020,-615 -114,-19 -334,-19 -454,0 -228,37 -486,130 -646,233 -356,230 -620,625 -702,1052 -24,127 -24,358 0,495 90,509 329,862 761,1126 114,70 293,142 430,175 193,46 439,53 630,19 z"
         id="path1617"
         style="fill:#5f5fd3" />
      <path
         d="m 4175,5623 c -215,-25 -337,-62 -515,-154 -350,-181 -559,-444 -665,-838 -50,-184 -58,-241 -59,-391 0,-142 16,-252 55,-371 24,-74 109,-259 119,-259 3,0 34,-42 67,-92 148,-223 355,-389 609,-488 506,-198 1037,-94 1437,280 180,168 328,436 378,682 69,343 12,664 -173,974 -199,335 -459,524 -858,623 -134,33 -292,47 -395,34 z m 345,-374 c 312,-78 532,-261 681,-565 68,-141 83,-214 83,-409 0,-199 -15,-270 -90,-424 -55,-115 -112,-196 -195,-279 -290,-285 -627,-368 -1024,-252 -258,75 -462,253 -595,519 -127,254 -139,573 -33,816 105,236 289,424 525,535 217,102 408,119 648,59 z"
         id="path1619"
         style="fill:#5f5fd3" />
    </g>
    <path
       d="m 474.73664,382.2414 c -0.78727,2.00478 -1.70041,4.49241 -2.63459,7.13747 l -1.02865,2.91801 h -1.28054 c -2.42467,0 -6.11939,0.49332 -8.27111,1.11262 -0.73475,0.20977 -1.35404,0.36734 -1.37502,0.34636 -0.0114,-0.0199 -0.37788,-0.53529 -0.80821,-1.14408 -1.46948,-2.09929 -5.98292,-8.29213 -6.03541,-8.29213 -0.10502,0 -1.89981,0.71376 -2.29869,0.92367 -0.23084,0.11556 -0.77673,0.3779 -1.20709,0.58781 -0.43032,0.19954 -1.25954,0.64029 -1.83685,0.98668 -0.57727,0.33586 -1.55345,0.91317 -2.17275,1.28054 -1.10208,0.65075 -2.62407,1.74238 -3.5897,2.5716 l -0.48286,0.43036 1.25955,2.71852 c 0.70325,1.50099 1.7949,3.85216 2.43516,5.22718 l 1.16508,2.49813 -0.7977,0.8082 c -2.0573,2.09928 -4.54493,5.36364 -5.38465,7.08505 -0.16792,0.33585 -0.33585,0.59828 -0.38835,0.59828 -0.0418,0 -1.53245,-0.2519 -3.30636,-0.56681 -3.45326,-0.60879 -8.11366,-1.35403 -8.15564,-1.30155 -0.084,0.084 -1.0811,2.60311 -1.46948,3.70521 -0.53529,1.53247 -1.417,5.85696 -1.78436,8.81693 l -0.0629,0.5248 5.33216,2.04679 5.33211,2.0468 0.0199,0.99714 c 0.0418,1.79487 0.24137,3.9991 0.46185,5.13271 0.11555,0.60877 0.28348,1.47996 0.36736,1.92082 0.084,0.45134 0.27296,1.21756 0.40936,1.7109 0.14687,0.49333 0.26242,0.96566 0.26242,1.04964 0,0.0734 -0.97613,0.8397 -2.17271,1.68989 -1.20708,0.85022 -3.28536,2.35121 -4.62889,3.33784 -2.18325,1.59546 -2.43518,1.81588 -2.38266,2.02579 0.23083,0.92368 2.26718,4.87029 3.63172,7.05354 0.77672,1.21758 2.34067,3.46379 2.77101,3.96761 l 0.3149,0.35687 1.83686,-0.85019 c 1.80538,-0.85022 7.72529,-3.55826 8.35509,-3.83116 l 0.31488,-0.14687 1.41699,1.31202 c 1.7739,1.65845 2.6556,2.3197 5.05923,3.78918 1.44851,0.8817 1.91034,1.21759 1.88937,1.36454 -0.0114,0.10503 -0.23084,1.49046 -0.49335,3.07542 -0.46184,2.79204 -1.21756,7.85126 -1.21756,8.11366 0,0.0734 0.15741,0.18899 0.34637,0.27296 2.36168,0.94469 4.47143,1.59546 7.50487,2.3092 2.02578,0.48281 4.96478,0.98663 5.06975,0.87118 0.18899,-0.20977 2.73952,-6.91708 3.72616,-9.75107 l 0.39888,-1.1861 h 1.59544 c 2.75005,0 4.69188,-0.27297 7.47338,-1.07063 1.28055,-0.35688 1.53247,-0.39885 1.64792,-0.28349 0.0734,0.084 1.60596,2.22522 3.41133,4.76531 1.80535,2.54011 3.29583,4.63939 3.31684,4.64986 0.0316,0.0418 0.95515,-0.38834 3.78915,-1.78436 1.1756,-0.57729 2.55061,-1.36451 3.62125,-2.06778 1.52197,-1.00764 3.4743,-2.44563 3.9991,-2.94946 0.18899,-0.16793 0.15739,-0.26242 -0.8502,-2.52961 -0.57731,-1.29105 -1.66894,-3.67374 -2.41416,-5.29014 l -1.36451,-2.92849 1.22806,-1.32253 c 1.6794,-1.7844 3.20137,-3.86264 4.25102,-5.79399 0.26242,-0.5038 0.5248,-0.93415 0.56678,-0.95516 0.0418,-0.0199 0.99717,0.11556 2.12026,0.30441 5.86745,0.98663 9.26826,1.52197 9.38373,1.47998 0.23084,-0.0945 1.86833,-4.75484 2.31966,-6.58122 0.084,-0.37787 0.21006,-0.78722 0.26244,-0.91317 0.0945,-0.2203 0.76622,-4.00959 0.88169,-4.98576 l 0.0629,-0.49332 -0.50383,-0.2203 c -0.65077,-0.29391 -5.03821,-1.95232 -8.01918,-3.04394 l -2.39317,-0.87119 v -1.63744 c 0,-1.87884 -0.10502,-2.94947 -0.43036,-4.70236 -0.18899,-1.03912 -0.70326,-3.29586 -0.8922,-3.93611 -0.0418,-0.12608 0.46184,-0.53532 1.97334,-1.61643 2.27768,-1.62693 7.29492,-5.36363 7.37892,-5.51059 0.0734,-0.11555 -0.64028,-1.79486 -1.501,-3.50577 -1.21757,-2.44564 -2.792,-4.91227 -4.45042,-7.00105 l -0.80824,-1.01814 -1.39598,0.60879 c -1.93135,0.85018 -5.03826,2.27769 -7.211,3.32731 l -1.81587,0.88173 -1.40649,-1.33306 c -1.49049,-1.40649 -3.29587,-2.81299 -4.50292,-3.52675 -0.6298,-0.36737 -1.92085,-1.21759 -2.18325,-1.43801 -0.0418,-0.0418 0.11556,-1.29104 0.34637,-2.79201 1.1756,-7.49439 1.37501,-8.77494 1.34354,-8.80642 -0.0199,-0.0114 -0.76623,-0.30441 -1.65843,-0.65077 -1.88934,-0.73474 -4.18803,-1.50096 -4.52392,-1.50096 -0.12581,0 -0.49332,-0.0945 -0.81871,-0.19953 -0.83971,-0.2939 -5.1222,-1.1546 -5.731,-1.1651 -0.16793,0 -0.27296,0.16793 -0.51433,0.75575 z m -1.89985,27.53184 c 2.89698,0.51433 5.91991,1.93135 8.10317,3.81019 2.5821,2.22523 4.82829,6.28729 5.43709,9.82456 0.23083,1.33304 0.21004,3.64224 -0.0418,5.12221 -0.46184,2.67657 -1.61643,5.51056 -2.99145,7.32644 -2.42464,3.22237 -6.6232,5.75198 -10.70622,6.45522 -1.19658,0.19952 -3.50581,0.19952 -4.76534,0 -2.3932,-0.38835 -5.10124,-1.36449 -6.78066,-2.44562 -3.73671,-2.41417 -6.50773,-6.56022 -7.36843,-11.04215 -0.25189,-1.33304 -0.25189,-3.75768 0,-5.19568 0.94465,-5.34263 3.45329,-9.04784 7.98772,-11.81887 1.19659,-0.73474 3.07542,-1.49047 4.51339,-1.83686 2.02582,-0.48281 4.60792,-0.5563 6.61269,-0.19952 z"
       id="path2351-7"
       style="fill:#5f5fd3;stroke-width:0.0104963" />
    <path
       d="m 469.05811,411.8935 c -2.25671,0.26243 -3.53727,0.65078 -5.40561,1.61644 -3.67371,1.89984 -5.86746,4.66037 -6.98006,8.79594 -0.5248,1.93132 -0.60876,2.52961 -0.61929,4.10404 0,1.49048 0.16794,2.64508 0.5773,3.89416 0.25189,0.77672 1.14408,2.71854 1.24907,2.71854 0.0316,0 0.35687,0.44086 0.70326,0.96566 1.55345,2.34071 3.72619,4.08309 6.39226,5.12221 5.31114,2.07828 10.88469,0.98667 15.08323,-2.93896 1.88932,-1.76339 3.44278,-4.57642 3.9676,-7.15851 0.72425,-3.60024 0.12581,-6.96956 -1.81584,-10.22341 -2.08878,-3.51628 -4.81783,-5.50008 -9.00587,-6.53921 -1.40651,-0.3464 -3.06494,-0.49332 -4.14605,-0.3569 z m 3.62124,3.92563 c 3.27484,0.81874 5.58404,2.73956 7.14798,5.93045 0.71376,1.47998 0.8712,2.2462 0.8712,4.293 0,2.08875 -0.15741,2.83399 -0.94465,4.45043 -0.57731,1.20708 -1.17561,2.05726 -2.04679,2.92849 -3.04394,2.99145 -6.5812,3.86265 -10.74825,2.64505 -2.70804,-0.78723 -4.84931,-2.65555 -6.2453,-5.4476 -1.33303,-2.66606 -1.45901,-6.01437 -0.3464,-8.56499 1.10215,-2.47713 3.03344,-4.45043 5.51059,-5.61553 2.27769,-1.07064 4.28249,-1.24907 6.80162,-0.6193 z"
       id="path2353-1"
       style="fill:#5f5fd3;stroke-width:0.0104963" />
    <path
       d="m 415.35131,181.94958 c -0.82981,2.11315 -1.79232,4.73525 -2.77699,7.52329 l -1.08426,3.07575 h -1.34976 c -2.55574,0 -6.45017,0.51998 -8.71822,1.17276 -0.77446,0.22111 -1.42723,0.3872 -1.44934,0.36508 -0.012,-0.021 -0.3983,-0.56423 -0.8519,-1.20593 -1.54891,-2.21276 -6.30633,-8.74036 -6.36166,-8.74036 -0.1107,0 -2.00251,0.75234 -2.42295,0.9736 -0.24331,0.12181 -0.81871,0.39833 -1.27233,0.61959 -0.45359,0.21032 -1.32762,0.67489 -1.93614,1.04001 -0.60849,0.35401 -1.63742,0.96253 -2.2902,1.34976 -1.16165,0.68593 -2.76592,1.83657 -3.78375,2.71061 l -0.50895,0.45362 1.32763,2.86547 c 0.74127,1.58213 1.89192,4.0604 2.5668,5.50974 l 1.22805,2.63317 -0.84082,0.85189 c -2.1685,2.21276 -4.7906,5.65357 -5.67571,7.46803 -0.177,0.35401 -0.35401,0.63063 -0.40934,0.63063 -0.0441,0 -1.6153,-0.26552 -3.48509,-0.59745 -3.63993,-0.6417 -8.55225,-1.42723 -8.5965,-1.37191 -0.0885,0.0885 -1.13954,2.74382 -1.54891,3.9055 -0.56424,1.61531 -1.4936,6.17356 -1.88083,9.29353 l -0.0663,0.55317 5.62039,2.15743 5.62035,2.15744 0.021,1.05104 c 0.0441,1.89189 0.25442,4.21527 0.48681,5.41016 0.1218,0.64168 0.29881,1.55996 0.38723,2.02465 0.0885,0.47574 0.28771,1.28338 0.43148,1.80339 0.1548,0.51999 0.27661,1.01786 0.27661,1.10637 0,0.0774 -1.0289,0.8851 -2.29016,1.78124 -1.27233,0.89618 -3.46295,2.47831 -4.87911,3.51828 -2.30126,1.6817 -2.56681,1.91403 -2.51145,2.13529 0.24331,0.97361 2.38973,5.13355 3.82803,7.43482 0.81871,1.2834 2.4672,3.65103 2.9208,4.18208 l 0.33193,0.37616 1.93615,-0.89614 c 1.90296,-0.89618 8.14288,-3.75061 8.80672,-4.03826 l 0.33191,-0.15481 1.49359,1.38295 c 1.86978,1.74809 2.79914,2.44509 5.3327,3.994 1.52681,0.92936 2.01361,1.28341 1.9915,1.4383 -0.012,0.11071 -0.24331,1.57103 -0.52002,3.24166 -0.4868,2.94297 -1.28337,8.27567 -1.28337,8.55225 0,0.0774 0.16591,0.19921 0.36509,0.28772 2.48934,0.99575 4.71314,1.6817 7.91055,2.43402 2.13529,0.50891 5.23315,1.03997 5.3438,0.91828 0.19921,-0.22111 2.88761,-7.29099 3.92758,-10.27817 l 0.42044,-1.25022 h 1.68168 c 2.89871,0 4.9455,-0.28772 7.87736,-1.12851 1.34977,-0.37616 1.61531,-0.42041 1.737,-0.29881 0.0774,0.0885 1.69277,2.34551 3.59573,5.0229 1.90294,2.67742 3.47399,4.89018 3.49614,4.90122 0.0333,0.0441 1.00678,-0.40934 3.99397,-1.88082 1.23915,-0.60849 2.68849,-1.43827 3.817,-2.17955 1.60424,-1.06211 3.6621,-2.57784 4.21527,-3.1089 0.19921,-0.17701 0.1659,-0.27661 -0.89615,-2.66635 -0.60852,-1.36084 -1.75916,-3.87232 -2.54466,-5.5761 l -1.43827,-3.08679 1.29444,-1.39402 c 1.77018,-1.88086 3.37442,-4.07144 4.48081,-6.10719 0.27661,-0.53103 0.55317,-0.98465 0.59742,-1.00679 0.0441,-0.021 1.05107,0.1218 2.23487,0.32086 6.18462,1.03997 9.76926,1.60424 9.89097,1.55999 0.24332,-0.0996 1.96933,-5.01187 2.44506,-6.93697 0.0885,-0.3983 0.22141,-0.82978 0.27662,-0.96254 0.0996,-0.23221 0.80764,-4.22633 0.92935,-5.25527 l 0.0663,-0.51998 -0.53106,-0.23221 c -0.68595,-0.3098 -5.31056,-2.05786 -8.45267,-3.20848 l -2.52253,-0.91828 v -1.72596 c 0,-1.9804 -0.1107,-3.1089 -0.45362,-4.95654 -0.19921,-1.0953 -0.74128,-3.47402 -0.94043,-4.14888 -0.0441,-0.1329 0.48681,-0.56426 2.08001,-1.70381 2.4008,-1.71488 7.68925,-5.65357 7.77779,-5.80847 0.0774,-0.1218 -0.67489,-1.89189 -1.58213,-3.69528 -1.2834,-2.57784 -2.94293,-5.1778 -4.691,-7.37949 l -0.85192,-1.07318 -1.47145,0.6417 c -2.03575,0.89614 -5.3106,2.40081 -7.60079,3.50717 l -1.91403,0.92939 -1.48252,-1.40512 c -1.57106,-1.48252 -3.47403,-2.96505 -4.74633,-3.71739 -0.66384,-0.38723 -2.02468,-1.28341 -2.30126,-1.51574 -0.0441,-0.0441 0.12181,-1.36083 0.36509,-2.94293 1.23915,-7.89951 1.44934,-9.24928 1.41616,-9.28246 -0.021,-0.012 -0.80764,-0.32086 -1.74807,-0.68595 -1.99147,-0.77446 -4.41442,-1.5821 -4.76846,-1.5821 -0.13261,0 -0.51999,-0.0996 -0.86297,-0.21031 -0.8851,-0.30979 -5.39909,-1.21701 -6.04079,-1.22808 -0.17701,0 -0.28772,0.17701 -0.54213,0.7966 z m -2.00254,29.02009 c 3.05358,0.54213 6.23992,2.03575 8.54118,4.01615 2.72168,2.34552 5.0893,6.62715 5.731,10.35564 0.24332,1.40509 0.22141,3.83911 -0.0441,5.39909 -0.4868,2.82125 -1.70381,5.80844 -3.15315,7.72247 -2.55571,3.39656 -6.98123,6.06291 -11.28497,6.80416 -1.26126,0.21031 -3.69531,0.21031 -5.02293,0 -2.52256,-0.40934 -5.37699,-1.43824 -7.14719,-2.57782 -3.93869,-2.54466 -6.85951,-6.91483 -7.76673,-11.63904 -0.26551,-1.40509 -0.26551,-3.9608 0,-5.47653 0.99572,-5.63143 3.63996,-9.53693 8.4195,-12.45775 1.26126,-0.77446 3.24166,-1.57103 4.75736,-1.93615 2.13533,-0.50891 4.857,-0.58637 6.97015,-0.21031 z"
       id="path2351"
       style="fill:#5f5fd3;stroke-width:0.0110637" />
    <path
       d="m 409.36584,213.20454 c -2.3787,0.27662 -3.7285,0.68596 -5.69782,1.70382 -3.87229,2.00254 -6.18463,4.91229 -7.35738,9.27141 -0.55317,2.03572 -0.64167,2.66635 -0.65275,4.32588 0,1.57106 0.17701,2.78807 0.60849,4.10466 0.26552,0.81871 1.20594,2.8655 1.31659,2.8655 0.0333,0 0.37616,0.46469 0.74128,1.01786 1.63742,2.46723 3.92761,4.3038 6.73779,5.39909 5.59824,2.19062 11.47307,1.04 15.89856,-3.09783 1.99146,-1.85871 3.62889,-4.82379 4.18208,-7.54546 0.76339,-3.79486 0.13261,-7.34631 -1.914,-10.77605 -2.20169,-3.70635 -5.07826,-5.79739 -9.49268,-6.89269 -1.48255,-0.36512 -3.23062,-0.51998 -4.37016,-0.37619 z m 3.81697,4.13784 c 3.45187,0.86299 5.88589,2.88764 7.53438,6.25101 0.75235,1.55999 0.91829,2.36763 0.91829,4.52507 0,2.20165 -0.16591,2.98718 -0.99572,4.691 -0.60852,1.27233 -1.23915,2.16847 -2.15743,3.08679 -3.20848,3.15315 -6.93695,4.07144 -11.32925,2.78803 -2.85443,-0.82978 -5.11144,-2.7991 -6.58289,-5.74207 -1.40509,-2.81018 -1.53788,-6.33949 -0.36512,-9.02798 1.16172,-2.61103 3.19741,-4.691 5.80846,-5.91908 2.40081,-1.12851 4.51399,-1.31659 7.16928,-0.65277 z"
       id="path2353"
       style="fill:#5f5fd3;stroke-width:0.0110637" />
    <path
       d="m 460.31374,165.19948 c -0.34907,0.88892 -0.75396,1.99194 -1.16817,3.16475 l -0.4561,1.29386 h -0.5678 c -1.0751,0 -2.71334,0.21873 -3.66742,0.49333 -0.32578,0.093 -0.60038,0.16288 -0.60968,0.15358 -0.005,-0.009 -0.16755,-0.23735 -0.35836,-0.50729 -0.65156,-0.93083 -2.65283,-3.67673 -2.67611,-3.67673 -0.0466,0 -0.84237,0.31648 -1.01923,0.40955 -0.10235,0.0512 -0.34441,0.16756 -0.53522,0.26064 -0.19081,0.0885 -0.55848,0.2839 -0.81446,0.43749 -0.25597,0.14892 -0.6888,0.4049 -0.9634,0.56779 -0.48866,0.28855 -1.16352,0.77258 -1.59168,1.14025 l -0.2141,0.19082 0.55849,1.2054 c 0.31182,0.66554 0.79586,1.70804 1.07975,2.31773 l 0.5166,1.10767 -0.3537,0.35836 c -0.91221,0.93082 -2.01523,2.37824 -2.38756,3.14151 -0.0745,0.14892 -0.14891,0.26528 -0.17219,0.26528 -0.0185,0 -0.67949,-0.11169 -1.46604,-0.25133 -1.53118,-0.26993 -3.5976,-0.60037 -3.61622,-0.5771 -0.0372,0.0372 -0.47936,1.15421 -0.65156,1.64289 -0.23736,0.6795 -0.6283,2.59698 -0.7912,3.90943 l -0.0279,0.2327 2.36428,0.90755 2.36426,0.90755 0.009,0.44212 c 0.0185,0.79585 0.10703,1.77321 0.20478,2.27585 0.0512,0.26994 0.1257,0.65622 0.16289,0.85169 0.0373,0.20013 0.12103,0.53987 0.18151,0.75862 0.0651,0.21874 0.11636,0.42817 0.11636,0.46541 0,0.0326 -0.43282,0.37232 -0.96338,0.74929 -0.53522,0.37699 -1.45673,1.04254 -2.05245,1.48001 -0.96806,0.70743 -1.07976,0.80516 -1.05647,0.89824 0.10235,0.40955 1.00526,2.15948 1.6103,3.12754 0.3444,0.53987 1.03786,1.53584 1.22867,1.75923 l 0.13963,0.15824 0.81446,-0.37697 c 0.80051,-0.37699 3.4254,-1.57774 3.70465,-1.69874 l 0.13962,-0.0651 0.6283,0.58175 c 0.78654,0.73536 1.17749,1.02855 2.24326,1.68012 0.64226,0.39095 0.84705,0.53989 0.83774,0.60504 -0.005,0.0465 -0.10235,0.66087 -0.21875,1.36364 -0.20477,1.238 -0.53986,3.48126 -0.53986,3.5976 0,0.0326 0.0698,0.0838 0.15357,0.12103 1.04718,0.41888 1.98264,0.70743 3.32767,1.0239 0.89823,0.21408 2.20138,0.43748 2.24793,0.38628 0.0838,-0.093 1.2147,-3.06703 1.65218,-4.32362 l 0.17686,-0.52592 h 0.70742 c 1.21937,0 2.08038,-0.12103 3.3137,-0.47472 0.5678,-0.15824 0.6795,-0.17685 0.73069,-0.1257 0.0326,0.0373 0.71208,0.98667 1.51258,2.11294 0.8005,1.12629 1.46138,2.05711 1.47069,2.06175 0.014,0.0185 0.42352,-0.17219 1.68011,-0.79119 0.52127,-0.25596 1.13095,-0.60502 1.60567,-0.91685 0.67484,-0.44679 1.5405,-1.08439 1.7732,-1.30779 0.0838,-0.0745 0.0698,-0.11636 -0.37697,-1.12163 -0.25599,-0.57245 -0.74002,-1.62893 -1.07045,-2.34565 l -0.60502,-1.29849 0.54452,-0.58641 c 0.74465,-0.79121 1.41949,-1.7127 1.88491,-2.56906 0.11635,-0.22339 0.23269,-0.41421 0.25131,-0.42352 0.0185,-0.009 0.44214,0.0512 0.94012,0.13498 2.60163,0.43747 4.10955,0.67483 4.16075,0.65622 0.10235,-0.0419 0.82841,-2.1083 1.02854,-2.91812 0.0372,-0.16754 0.0931,-0.34905 0.11636,-0.4049 0.0419,-0.0977 0.33974,-1.77785 0.39095,-2.21068 l 0.0279,-0.21874 -0.2234,-0.0977 c -0.28855,-0.13032 -2.23395,-0.86567 -3.55571,-1.34969 l -1.06113,-0.38628 v -0.72604 c 0,-0.83308 -0.0465,-1.3078 -0.19082,-2.08503 -0.0838,-0.46075 -0.31183,-1.46138 -0.3956,-1.74528 -0.0185,-0.0559 0.20478,-0.23736 0.87498,-0.71672 1.00992,-0.72138 3.23457,-2.37824 3.27181,-2.4434 0.0326,-0.0512 -0.2839,-0.79585 -0.66554,-1.55446 -0.53988,-1.0844 -1.23798,-2.1781 -1.97332,-3.10427 l -0.35837,-0.45145 -0.61898,0.26994 c -0.85636,0.37698 -2.23396,1.00993 -3.19736,1.47534 l -0.80516,0.39095 -0.62364,-0.59107 c -0.66088,-0.62364 -1.46139,-1.24729 -1.99659,-1.56376 -0.27926,-0.1629 -0.85171,-0.53989 -0.96806,-0.63762 -0.0185,-0.0185 0.0512,-0.57245 0.15359,-1.23798 0.52125,-3.32301 0.60968,-3.89081 0.59572,-3.90477 -0.009,-0.005 -0.33974,-0.13497 -0.73535,-0.28855 -0.83773,-0.32579 -1.85698,-0.66553 -2.00591,-0.66553 -0.0558,0 -0.21873,-0.0419 -0.36301,-0.0885 -0.37233,-0.13032 -2.27119,-0.51195 -2.54113,-0.5166 -0.0745,0 -0.12103,0.0745 -0.22805,0.33509 z m -0.84239,12.20763 c 1.28452,0.22805 2.62489,0.85636 3.59295,1.68944 1.1449,0.98667 2.14087,2.78778 2.41081,4.35621 0.10235,0.59107 0.0931,1.61497 -0.0185,2.27119 -0.20479,1.18679 -0.71673,2.44339 -1.32641,3.24855 -1.07509,1.4288 -2.93674,2.55043 -4.74715,2.86225 -0.53057,0.0885 -1.55448,0.0885 -2.11296,0 -1.06114,-0.1722 -2.26189,-0.60502 -3.00655,-1.08439 -1.65685,-1.07044 -2.88552,-2.90881 -3.26715,-4.8961 -0.1117,-0.59107 -0.1117,-1.66615 0,-2.30377 0.41885,-2.36892 1.53118,-4.01181 3.54175,-5.24049 0.53056,-0.32578 1.36364,-0.66087 2.00124,-0.81446 0.89825,-0.21408 2.04315,-0.24667 2.93207,-0.0885 z"
       id="path2351-4"
       style="fill:#5f5fd3;stroke-width:0.00465407" />
    <path
       d="m 457.79589,178.34723 c -1.00063,0.11637 -1.56844,0.28856 -2.39685,0.71673 -1.62893,0.84239 -2.60164,2.06641 -3.09497,3.90013 -0.2327,0.85634 -0.26993,1.12163 -0.27459,1.81973 0,0.66088 0.0745,1.17283 0.25597,1.72667 0.11169,0.3444 0.50729,1.2054 0.55384,1.2054 0.014,0 0.15823,0.19548 0.31183,0.42818 0.6888,1.03787 1.65219,1.81044 2.83432,2.27118 2.35497,0.92152 4.82628,0.4375 6.68791,-1.30313 0.83774,-0.78189 1.52654,-2.02918 1.75924,-3.17409 0.32113,-1.59634 0.0558,-3.0903 -0.80514,-4.53306 -0.92617,-1.55912 -2.13623,-2.43874 -3.99321,-2.89949 -0.62365,-0.15359 -1.359,-0.21873 -1.83835,-0.15825 z m 1.60565,1.74063 c 1.45207,0.36303 2.47597,1.21472 3.16942,2.62956 0.31649,0.65623 0.38629,0.99597 0.38629,1.90352 0,0.92615 -0.0698,1.25659 -0.41886,1.97332 -0.25598,0.53523 -0.52126,0.9122 -0.90755,1.2985 -1.34968,1.32641 -2.9181,1.71269 -4.76578,1.17281 -1.20075,-0.34905 -2.15018,-1.17747 -2.76916,-2.41546 -0.59107,-1.18214 -0.64693,-2.66679 -0.15359,-3.79773 0.48869,-1.09835 1.34502,-1.97332 2.44339,-2.48993 1.00993,-0.47471 1.89886,-0.55383 3.01584,-0.27459 z"
       id="path2353-2"
       style="fill:#5f5fd3;stroke-width:0.00465407" />
    <path
       d="m 446.24949,120.00638 c -0.42805,1.09007 -0.92457,2.44268 -1.43251,3.88088 l -0.5593,1.58664 h -0.69629 c -1.31838,0 -3.32733,0.26823 -4.4973,0.60497 -0.3995,0.11404 -0.73624,0.19974 -0.74764,0.18833 -0.006,-0.011 -0.20547,-0.29106 -0.43945,-0.62208 -0.799,-1.14146 -3.25313,-4.50872 -3.28168,-4.50872 -0.0571,0 -1.03298,0.38809 -1.24986,0.50222 -0.12551,0.0628 -0.42235,0.20548 -0.65634,0.31962 -0.23398,0.10853 -0.68485,0.34815 -0.99876,0.53649 -0.31389,0.18262 -0.84466,0.49652 -1.1814,0.69627 -0.59924,0.35385 -1.42681,0.94741 -1.95185,1.39828 l -0.26255,0.23399 0.68487,1.47817 c 0.38238,0.81614 0.97595,2.09454 1.32408,2.8422 l 0.6335,1.35832 -0.43374,0.43945 c -1.11863,1.14145 -2.47125,2.9164 -2.92783,3.85238 -0.0914,0.18262 -0.1826,0.32531 -0.21115,0.32531 -0.0227,0 -0.83325,-0.13696 -1.79779,-0.3082 -1.87766,-0.33101 -4.41168,-0.73622 -4.43451,-0.70769 -0.0456,0.0456 -0.58783,1.41539 -0.799,2.01465 -0.29107,0.83326 -0.77047,3.18464 -0.97024,4.79408 l -0.0342,0.28535 2.89928,1.11292 2.89926,1.11291 0.011,0.54217 c 0.0227,0.97594 0.13125,2.17446 0.25112,2.79084 0.0628,0.33102 0.15415,0.80471 0.19975,1.04442 0.0457,0.24541 0.14842,0.66203 0.22259,0.93028 0.0798,0.26824 0.14269,0.52506 0.14269,0.57073 0,0.04 -0.53076,0.45657 -1.18138,0.91884 -0.65633,0.4623 -1.78637,1.27845 -2.51689,1.81491 -1.18712,0.86751 -1.32409,0.98736 -1.29553,1.1015 0.12551,0.50223 1.23273,2.64814 1.97468,3.83526 0.42233,0.66203 1.27271,1.88337 1.5067,2.15731 l 0.17123,0.19405 0.99876,-0.46227 c 0.98165,-0.4623 4.20052,-1.93476 4.54296,-2.08314 l 0.17121,-0.0798 0.77047,0.71339 c 0.96453,0.90176 1.44394,1.26129 2.75088,2.06031 0.78759,0.47941 1.03872,0.66205 1.02731,0.74195 -0.006,0.057 -0.12551,0.81041 -0.26825,1.67221 -0.25111,1.51814 -0.66202,4.26901 -0.66202,4.41168 0,0.04 0.0856,0.10276 0.18832,0.14842 1.28414,0.51366 2.43128,0.86751 4.08067,1.25559 1.10148,0.26252 2.69952,0.53648 2.7566,0.47369 0.10276,-0.11404 1.48957,-3.76105 2.02605,-5.30199 l 0.21688,-0.64493 h 0.86749 c 1.4953,0 2.55114,-0.14841 4.06355,-0.58214 0.69628,-0.19405 0.83326,-0.21687 0.89603,-0.15414 0.04,0.0457 0.87321,1.20994 1.85485,2.59106 0.98164,1.38116 1.79207,2.52261 1.80349,2.5283 0.0172,0.0227 0.51936,-0.21116 2.06029,-0.97023 0.63923,-0.31388 1.38687,-0.74193 1.96901,-1.12432 0.82755,-0.54789 1.88909,-1.32977 2.17445,-1.60372 0.10276,-0.0914 0.0856,-0.14269 -0.46227,-1.37544 -0.31392,-0.70199 -0.90748,-1.99753 -1.31268,-2.87643 l -0.74193,-1.59232 0.66774,-0.71911 c 0.91315,-0.97025 1.7407,-2.10026 2.31144,-3.1504 0.14268,-0.27394 0.28534,-0.50794 0.30818,-0.51936 0.0227,-0.011 0.54218,0.0628 1.15285,0.16553 3.19034,0.53646 5.03948,0.82753 5.10227,0.80471 0.12551,-0.0514 1.01586,-2.58538 1.26128,-3.57845 0.0456,-0.20545 0.11417,-0.42803 0.14269,-0.49652 0.0514,-0.11981 0.41662,-2.18015 0.47942,-2.71092 l 0.0342,-0.26824 -0.27395,-0.11981 c -0.35385,-0.15981 -2.73946,-1.06156 -4.36032,-1.6551 l -1.30124,-0.47369 v -0.89033 c 0,-1.0216 -0.057,-1.60374 -0.234,-2.55684 -0.10277,-0.56502 -0.3824,-1.79207 -0.48512,-2.14022 -0.0227,-0.0685 0.25112,-0.29107 1.07297,-0.8789 1.23845,-0.88462 3.96651,-2.9164 4.01217,-2.9963 0.04,-0.0628 -0.34814,-0.97594 -0.81614,-1.90621 -0.66204,-1.32979 -1.51811,-2.67098 -2.41985,-3.80672 l -0.43946,-0.55361 -0.75905,0.33102 c -1.05014,0.46229 -2.73947,1.23846 -3.92088,1.80919 l -0.98735,0.47942 -0.76476,-0.72482 c -0.81043,-0.76476 -1.79208,-1.52954 -2.44839,-1.91762 -0.34245,-0.19976 -1.04444,-0.66206 -1.18712,-0.7819 -0.0227,-0.0227 0.0628,-0.70199 0.18835,-1.51812 0.6392,-4.07496 0.74764,-4.77124 0.73052,-4.78836 -0.011,-0.006 -0.41662,-0.16551 -0.90175,-0.35385 -1.02729,-0.39951 -2.27719,-0.81612 -2.45982,-0.81612 -0.0684,0 -0.26822,-0.0514 -0.44515,-0.10853 -0.45658,-0.15981 -2.78513,-0.6278 -3.11615,-0.6335 -0.0914,0 -0.14842,0.0914 -0.27965,0.41092 z m -1.03301,14.97003 c 1.57519,0.27966 3.21887,1.05014 4.40598,2.07174 1.40398,1.20994 2.62532,3.41861 2.95635,5.34195 0.12551,0.72482 0.11416,1.98042 -0.0227,2.78513 -0.25113,1.45534 -0.87892,2.99629 -1.62656,3.98365 -1.31836,1.75211 -3.60128,3.12755 -5.82136,3.50993 -0.65063,0.10853 -1.90623,0.10853 -2.59109,0 -1.30126,-0.21117 -2.77372,-0.74193 -3.68689,-1.32977 -2.03177,-1.31266 -3.53847,-3.56703 -4.00645,-6.00401 -0.13698,-0.72482 -0.13698,-2.04318 0,-2.82508 0.51363,-2.90497 1.87766,-4.91963 4.34319,-6.42634 0.65062,-0.3995 1.67221,-0.81041 2.45409,-0.99876 1.10151,-0.26252 2.50549,-0.30249 3.59556,-0.10852 z"
       id="path2351-4-8"
       style="fill:#5f5fd3;stroke-width:0.00570722" />
    <path
       d="m 443.16189,136.12927 c -1.22706,0.1427 -1.92335,0.35385 -2.93922,0.87891 -1.99753,1.03301 -3.19035,2.53401 -3.79531,4.78267 -0.28536,1.05012 -0.33102,1.37544 -0.33673,2.23151 0,0.81043 0.0914,1.43823 0.31389,2.11739 0.13697,0.42233 0.62208,1.47816 0.67917,1.47816 0.0172,0 0.19403,0.23972 0.38239,0.52508 0.84467,1.27272 2.02606,2.22011 3.47568,2.78511 2.88787,1.13005 5.9184,0.5365 8.20129,-1.59801 1.02731,-0.95882 1.87197,-2.48835 2.15733,-3.89234 0.3938,-1.95757 0.0684,-3.78959 -0.98733,-5.55882 -1.13575,-1.91193 -2.61963,-2.99059 -4.89682,-3.5556 -0.76477,-0.18835 -1.66652,-0.26823 -2.25434,-0.19406 z m 1.96899,2.13451 c 1.78065,0.44517 3.03624,1.48959 3.88661,3.22459 0.38811,0.80472 0.4737,1.22134 0.4737,2.33425 0,1.13573 -0.0856,1.54094 -0.51364,2.41986 -0.31391,0.65634 -0.63921,1.11861 -1.11292,1.59233 -1.65509,1.62655 -3.57842,2.10024 -5.8442,1.4382 -1.47246,-0.42804 -2.63673,-1.44392 -3.39578,-2.96205 -0.72482,-1.44964 -0.79332,-3.27024 -0.18834,-4.65709 0.59927,-1.34689 1.64937,-2.41986 2.99629,-3.05337 1.23846,-0.58213 2.32854,-0.67915 3.69828,-0.33672 z"
       id="path2353-2-4"
       style="fill:#5f5fd3;stroke-width:0.00570722" />
  </g>
  <g
     inkscape:groupmode="layer"
     id="layer1"
     inkscape:label="Layer 1">
    <path
       d="m 723.69,518.032 c 0.33376,0.45301 0.63129,0.93163 0.8898,1.43141 l 50.11327,5.63486 7.28838,-9.84724 16.29888,9.05707 -14.34733,23.91944 -61.39551,-16.11278 c -0.46684,0.66164 -4.61914,-2.47971 -1.48191,-10.21162 2.65594,-6.54575 2.63442,-3.87114 2.63442,-3.87114 z"
       transform="translate(-219,-105.10638)"
       fill="#ffb8b8"
       id="path172"
       sodipodi:nodetypes="cccccccsc" />
    <path
       d="m 467.98716,505.09418 a 10.05572,10.05572 0 0 1 -14.52487,-5.17531 l -35.72708,0.745 9.8976,-15.71214 32.40963,1.70135 a 10.11027,10.11027 0 0 1 7.94472,18.44106 z"
       transform="translate(-219,-105.10638)"
       fill="#ffb8b8"
       id="path174" />
    <path
       d="m 452.285,500.59644 a 4.509,4.509 0 0 1 -4.42846,3.21337 l -65.38677,-1.66091 -59.2065,-17.52973 a 12.81886,12.81886 0 1 1 7.63274,-24.47233 l 53.4904,17.53816 64.201,6.19566 a 4.52376,4.52376 0 0 1 4.06742,4.55554 l -0.18586,10.95078 a 4.52253,4.52253 0 0 1 -0.18397,1.20946 z"
       transform="translate(-219,-105.10638)"
       fill="#3f3d56"
       id="path176" />
    <polygon
       points="150.72,676.6 156.553,629.312 138.459,629.313 138.461,676.601 "
       fill="#ffb8b8"
       id="polygon178" />
    <path
       d="m 354.33347,777.70432 24.1438,-0.001 h 0.001 a 15.38605,15.38605 0 0 1 15.38647,15.38623 v 0.5 l -39.53051,0.001 z"
       transform="translate(-219,-105.10638)"
       fill="#2f2e41"
       id="path180" />
    <polygon
       points="114.72,676.6 120.553,629.312 102.459,629.313 102.461,676.601 "
       fill="#ffb8b8"
       id="polygon182" />
    <path
       d="m 318.33347,777.70432 24.1438,-0.001 h 0.001 a 15.38605,15.38605 0 0 1 15.38647,15.38623 v 0.5 l -39.53051,0.001 z"
       transform="translate(-219,-105.10638)"
       fill="#2f2e41"
       id="path184" />
    <path
       d="m 313.233,590.5992 2.92742,173.69393 a 4,4 0 0 0 4.36158,3.91617 l 14.34623,-1.30421 a 4,4 0 0 0 3.62589,-3.67442 l 8.39886,-108.34524 a 1,1 0 0 1 1.99629,0.0394 l 4.19795,110.82575 a 4,4 0 0 0 3.99713,3.84859 h 15.38563 a 4,4 0 0 0 3.99255,-3.756 l 10.77047,-176.244 -64,-16 z"
       transform="translate(-219,-105.10638)"
       fill="#2f2e41"
       id="path186" />
    <circle
       cx="140.65422"
       cy="297.83533"
       r="24.561029"
       fill="#ffb8b8"
       id="circle188" />
    <path
       d="m 386.29155,597.03866 c -0.0239,0 -0.0476,-0.001 -0.0715,-0.001 l -57.43091,-0.88379 a 4.49951,4.49951 0 0 1 -4.40845,-4.05176 l -0.65014,-6.50293 a 0.50005,0.50005 0 0 0 -0.99512,0 l -0.67163,6.7168 a 4.49386,4.49386 0 0 1 -4.13257,4.03809 l -4.05859,0.3125 a 4.49944,4.49944 0 0 1 -4.698,-5.62793 l 3.49463,-13.32422 a 181.54022,181.54022 0 0 0 1.69775,-84.66016 l -1.73657,-7.89941 a 28.528,28.528 0 0 1 13.47021,-30.81641 l 11.28028,-6.6123 5.11792,-7.67676 a 11.08482,11.08482 0 0 1 8.97754,-4.92285 c 7.1394,-0.15625 19.38623,1.15137 21.68725,11.59082 a 28.50083,28.50083 0 0 1 19.282,27.44141 l -1.65673,118.44238 a 4.50121,4.50121 0 0 1 -4.49732,4.4375 z"
       transform="translate(-219,-105.10638)"
       fill="#3f3d56"
       id="path190" />
    <path
       d="m 357.733,417.0992 c -0.10071,3.472 -2.51116,5.48066 -5.47053,7.29925 -2.95937,1.81859 -6.41876,2.60712 -9.80794,3.36775 a 2.99863,2.99863 0 0 1 -4.40516,-2.62457 l -3.1084,-11.82324 a 74.84075,74.84075 0 0 1 -2.39306,-11.537 c -0.74861,-7.50914 1.031,-15.58706 6.27222,-21.01633 5.24122,-5.42927 14.33084,-7.358 20.6116,-3.17479 7.45361,-9.51977 41.52344,11.513 33.11914,18.13282 -1.49512,1.17767 -3.78063,-0.31249 -5.67841,-0.45693 -1.89778,-0.14444 -4.02454,0.18936 -5.23,1.66218 -1.575,1.92421 -0.889,4.79052 -1.538,7.1909 a 6.71433,6.71433 0 0 1 -8.48369,4.34834 23.08891,23.08891 0 0 1 -4.39987,-2.82861 c -1.45566,-0.96957 -3.29506,-1.686 -4.93368,-1.0745 -2.15991,0.80607 -2.92722,3.45041 -3.12242,5.74756 a 53.23525,53.23525 0 0 1 -1.4318,6.78717 z"
       transform="translate(-219,-105.10638)"
       fill="#2f2e41"
       id="path192" />
    <polygon
       points="148.469,426.819 169.469,477.819 138.469,427.819 144.469,377.819 "
       opacity="0.2"
       id="polygon194" />
    <path
       d="m 393.37946,601.9174 a 10.05579,10.05579 0 0 1 -0.31761,-15.41606 l -13.37856,-33.136 18.20228,3.67571 9.9139,30.903 a 10.11027,10.11027 0 0 1 -14.42,13.97336 z"
       transform="translate(-219,-105.10638)"
       fill="#ffb8b8"
       id="path242" />
    <path
       d="m 393.1576,587.56063 a 4.50906,4.50906 0 0 1 -4.57608,-2.99942 L 366.92391,522.843 362.29553,461.26964 a 12.81886,12.81886 0 1 1 25.588,-1.55128 l 2.59146,56.23251 16.99724,62.21933 a 4.52375,4.52375 0 0 1 -2.81506,5.41961 l -10.30361,3.71344 a 4.52237,4.52237 0 0 1 -1.19596,0.25738 z"
       transform="translate(-219,-105.10638)"
       fill="#3f3d56"
       id="path244" />
    <path
       d="m 794.719,532.87451 a 4.58959,4.58959 0 0 1 -1.11619,-0.69655 l -20.14091,-16.9666 a 4.57512,4.57512 0 0 1 -0.29423,-6.72835 l 18.27677,-18.35229 a 4.5519,4.5519 0 0 1 5.93049,-0.47235 l 13.82153,10.03663 a 4.57786,4.57786 0 0 1 1.448,5.65826 l -11.957,25.28131 a 4.57994,4.57994 0 0 1 -5.96851,2.23991 z"
       transform="translate(-219,-105.10638)"
       fill="#6c63ff"
       id="path246" />
    <polygon
       points="642.247,671.003 623.898,626.162 641.652,621.332 654.276,667.73 "
       fill="#ffb8b8"
       id="polygon248" />
    <path
       d="M 853.29972,773.57564 H 877.593 v 15.13777 h -39.18013 v -0.25092 a 14.88686,14.88686 0 0 1 14.88685,-14.88685 z"
       transform="rotate(-15.22067,355.17626,1548.128)"
       fill="#2f2e41"
       id="path250" />
    <polygon
       points="538.975,676.908 533.044,628.823 551.444,628.824 551.441,676.909 "
       fill="#ffb8b8"
       id="polygon252" />
    <path
       d="m 529.81942,673.346 h 24.29327 v 15.13777 h -39.18013 v -0.25092 A 14.88686,14.88686 0 0 1 529.81942,673.346 Z"
       fill="#2f2e41"
       id="path254" />
    <circle
       cx="570.22113"
       cy="334.45279"
       r="24.974979"
       fill="#ffb8b8"
       id="circle256" />
    <path
       d="m 769.67811,747.73077 h -17.036 a 4.58914,4.58914 0 0 1 -4.57138,-4.29382 c -5.07632,-80.69888 -2.10694,-138.58608 9.34458,-182.17277 a 4.75677,4.75677 0 0 1 0.18545,-0.56105 l 0.91234,-2.281 a 4.55426,4.55426 0 0 1 4.24889,-2.87679 h 35.03255 a 4.56841,4.56841 0 0 1 3.47434,1.59778 l 4.75831,5.552 c 0.0928,0.10824 0.17973,0.21846 0.2634,0.33465 21.45671,29.92172 40.68557,88.41962 62.95582,167.04706 a 4.5605,4.5605 0 0 1 -3.00836,5.60957 l -18.30834,5.85883 a 4.60045,4.60045 0 0 1 -5.51648,-2.37133 l -47.51012,-98.5405 a 3.55918,3.55918 0 0 0 -6.73194,1.06353 l -13.9594,102.07763 a 4.59333,4.59333 0 0 1 -4.53366,3.95621 z"
       transform="translate(-219,-105.10638)"
       fill="#2f2e41"
       id="path258" />
    <path
       d="m 804.10666,563.10127 c -0.0479,0 -0.0956,-10e-4 -0.14374,-0.002 l -42.5537,-1.34356 a 4.561,4.561 0 0 1 -4.40156,-4.02074 c -5.39434,-43.66514 9.39994,-55.36293 16.011,-58.36484 a 3.51794,3.51794 0 0 0 2.04612,-2.7894 l 0.572,-4.57683 a 4.55913,4.55913 0 0 1 0.90414,-2.22238 c 10.36541,-13.42764 24.51919,-17.72742 32.03363,-19.09481 a 4.56882,4.56882 0 0 1 5.33973,3.91449 l 0.857,6.57181 a 3.62041,3.62041 0 0 0 0.7254,1.71992 c 21.61733,28.26039 -2.46543,69.98715 -7.51271,78.06439 v 0 a 4.58439,4.58439 0 0 1 -3.87731,2.14395 z"
       transform="translate(-219,-105.10638)"
       fill="#6c63ff"
       id="path260" />
    <path
       d="m 816.7,424.02666 a 103.57206,103.57206 0 0 1 -4.09287,-17.25254 c -0.273,-3.41006 0.60057,-7.07923 3.08395,-9.43206 4.64755,-4.40323 12.54378,-2.306 17.40406,1.86121 7.02423,6.02258 10.52747,15.27806 11.85143,24.43548 1.32396,9.15742 0.74144,18.46957 1.06013,27.71671 0.31869,9.24714 1.64124,18.75534 6.35559,26.71687 4.71435,7.96153 13.46275,14.07278 22.69054,13.39517 a 15.969,15.969 0 0 0 9.9964,-4.23637 11.591,11.591 0 0 0 3.48119,-10.06508 c 4.71642,8.44535 2.32556,19.89152 -4.70938,26.53065 -7.03494,6.63913 -17.856,8.51593 -27.10448,5.68134 -9.24848,-2.83459 -16.86021,-9.94222 -21.4068,-18.4802 -4.54659,-8.53798 -6.2127,-18.40091 -5.97125,-28.071 0.18542,-7.42586 1.4477,-14.91251 0.19284,-22.23392 -1.25486,-7.32141 -5.837,-14.75531 -13.0623,-16.4794 z"
       transform="translate(-219,-105.10638)"
       fill="#2f2e41"
       id="path262" />
    <path
       d="m 784.25282,433.65235 c -1.23189,4.11515 -5.94388,6.65267 -10.18271,5.95671 a 11.94052,11.94052 0 0 1 -9.01247,-8.28474 17.05556,17.05556 0 0 1 1.3329,-12.50345 19.47082,19.47082 0 0 1 11.14084,-9.92334 15.98674,15.98674 0 0 1 14.53656,2.32276 5.3461,5.3461 0 0 1 3.736,-3.907 10.21608,10.21608 0 0 1 5.60645,0.0828 23.10023,23.10023 0 0 1 12.857,9.35333 37.59027,37.59027 0 0 1 5.82701,15.02063 c 1.43448,8.05189 0.90537,16.85038 -3.61682,23.6651 -4.52219,6.81472 -13.774,10.83861 -21.27971,7.58968 -0.468,-2.39261 0.6407,-4.80178 1.92341,-6.875 1.28271,-2.07322 2.80291,-4.09289 3.29567,-6.48052 0.49276,-2.38763 -0.45191,-5.30818 -2.76144,-6.089 -1.9703,-0.66614 -4.071,0.4131 -6.14677,0.54342 a 6.73548,6.73548 0 0 1 -6.461,-9.70517 z"
       transform="translate(-219,-105.10638)"
       fill="#2f2e41"
       id="path264" />
    <path
       d="m 720.95558,536.53977 a 10.7034,10.7034 0 0 1 1.14367,1.238 l 50.27705,-3.9129 5.30143,-11.04461 17.714,5.82223 -9.58111,26.19523 -63.33219,-4.25038 a 10.67269,10.67269 0 1 1 -1.52285,-14.04759 z"
       transform="translate(-219,-105.10638)"
       fill="#ffb8b8"
       id="path266" />
    <path
       d="m 795.11921,546.09046 a 4.58982,4.58982 0 0 1 -1.2007,-0.53793 L 771.65332,531.489 a 4.57513,4.57513 0 0 1 -1.20841,-6.62549 l 15.60522,-20.6718 a 4.5519,4.5519 0 0 1 5.81079,-1.27615 l 15.06041,8.05944 a 4.57784,4.57784 0 0 1 2.20564,5.40813 l -8.40018,26.67494 a 4.57994,4.57994 0 0 1 -5.60758,3.03239 z"
       fill="#6c63ff"
       id="path268"
       transform="translate(-219,-105.10638)" />
  </g>
</svg>
