<?xml version="1.0" encoding="UTF-8" standalone="no"?>
<!-- Created with Inkscape (http://www.inkscape.org/) -->

<svg
   width="210mm"
   height="297mm"
   viewBox="0 0 210 297"
   version="1.1"
   id="svg5"
   inkscape:version="1.1 (c68e22c387, 2021-05-23)"
   sodipodi:docname="4- Rational2-edit.svg"
   xmlns:inkscape="http://www.inkscape.org/namespaces/inkscape"
   xmlns:sodipodi="http://sodipodi.sourceforge.net/DTD/sodipodi-0.dtd"
   xmlns="http://www.w3.org/2000/svg"
   xmlns:svg="http://www.w3.org/2000/svg">
  <sodipodi:namedview
     id="namedview7"
     pagecolor="#505050"
     bordercolor="#eeeeee"
     borderopacity="1"
     inkscape:pageshadow="0"
     inkscape:pageopacity="0"
     inkscape:pagecheckerboard="0"
     inkscape:document-units="mm"
     showgrid="false"
     inkscape:zoom="0.37059484"
     inkscape:cx="820.30285"
     inkscape:cy="346.73986"
     inkscape:window-width="1920"
     inkscape:window-height="1017"
     inkscape:window-x="1912"
     inkscape:window-y="-8"
     inkscape:window-maximized="1"
     inkscape:current-layer="layer1" />
  <defs
     id="defs2" />
  <g
     inkscape:label="Camada 1"
     inkscape:groupmode="layer"
     id="layer1">
    <g
       id="g112"
       transform="matrix(0.26458333,0,0,0.26458333,8.7262104,91.989854)">
      <ellipse
         cx="357.30905"
         cy="545.55121"
         rx="311.72061"
         ry="47.450134"
         opacity="0.1"
         id="ellipse13"
         style="stroke-width:1.41027" />
      <path
         d="m 415.73561,225.93558 a 79.10964,79.801213 0 0 0 -12.32841,7.87531 26.510295,26.742047 0 0 0 -8.57934,11.7138 c -2.40109,-5.02829 -3.70695,-10.49568 -5.30767,-15.83559 a 261.17133,263.45448 0 0 0 -10.84002,-28.45592 37.589014,37.917616 0 0 0 17.06039,-13.21522 c 8.42488,8.42771 17.00422,17.20953 21.17453,28.32844 0.71612,1.92634 2.8083,3.98015 3.29975,5.66569 0.65995,2.50707 -2.65384,2.90367 -4.47923,3.92349 z"
         fill="#ffbfc5"
         id="path23"
         style="stroke-width:1.41027" />
      <path
         d="m 183.71437,498.85176 c 0,63.20075 45.19949,69.90043 100.9722,69.90043 55.77272,0 100.95817,-6.69968 100.95817,-69.90043 0,-63.20075 -45.19949,-87.2091 -100.95817,-87.2091 -55.75867,0 -100.9722,24.02252 -100.9722,87.2091 z"
         fill="#3f3d56"
         id="path25"
         style="stroke-width:1.41027" />
      <path
         d="m 494.63463,431.21761 a 77.326373,78.002357 0 0 1 25.19039,13.59765 2.5976719,2.6203806 0 0 1 1.13736,1.55807 c 0.19658,1.41642 -1.74114,2.05381 -3.14529,2.46457 -4.21244,1.20396 -6.78203,5.12745 -9.82902,8.18692 -3.047,3.05947 -7.93344,5.48155 -11.48593,3.03114 a 11.233176,11.331376 0 0 1 -2.41513,-2.56372 l -14.99629,-19.71659 a 90.806184,91.600008 0 0 1 15.96515,-7.08211"
         fill="#f1f1f1"
         id="path27"
         style="stroke-width:1.41027" />
      <path
         d="m 521.60829,435.32524 c 1.99389,2.03964 2.80829,4.9858 4.80218,7.08211 a 17.172717,17.322841 0 0 0 4.43711,3.10196 l 11.48592,6.3739 a 31.761804,32.039465 0 0 0 5.61659,2.64871 49.847217,50.282979 0 0 0 6.58545,1.41642 47.432084,47.846734 0 0 1 9.29545,2.83284 c 2.24663,0.93484 4.76006,2.5354 4.74602,4.98581 a 5.3638414,5.4107319 0 0 1 -1.40415,3.22944 c -4.52135,5.75067 -12.53903,7.08211 -19.78443,7.80449 -15.67028,1.67137 -31.70564,2.91783 -47.02488,-0.80736 a 20.06526,20.24067 0 0 1 -8.27043,-3.61188 c -4.61964,-3.86683 -5.61659,-10.90645 -3.81928,-16.69961 a 8.9584576,9.0367721 0 0 1 3.65078,-5.48156 c 2.42918,-1.41642 5.44809,-0.7507 8.24235,-0.96316 a 26.004802,26.232135 0 0 0 8.42488,-2.7337 c 1.75518,-0.7932 3.76311,-1.82718 4.21244,-3.92349 0.44933,-2.0963 -1.92368,-3.90932 -1.40415,-5.66569 0.98291,-3.95181 8.38276,-1.47307 10.20815,0.41077 z"
         fill="#575a89"
         id="path29"
         style="stroke-width:1.41027" />
      <path
         d="m 521.60829,435.32524 c 1.99389,2.03964 2.80829,4.9858 4.80218,7.08211 a 17.172717,17.322841 0 0 0 4.43711,3.10196 l 11.48592,6.3739 a 31.761804,32.039465 0 0 0 5.61659,2.64871 49.847217,50.282979 0 0 0 6.58545,1.41642 47.432084,47.846734 0 0 1 9.29545,2.83284 c 2.24663,0.93484 4.76006,2.5354 4.74602,4.98581 a 5.3638414,5.4107319 0 0 1 -1.40415,3.22944 c -4.52135,5.75067 -12.53903,7.08211 -19.78443,7.80449 -15.67028,1.67137 -31.70564,2.91783 -47.02488,-0.80736 a 20.06526,20.24067 0 0 1 -8.27043,-3.61188 c -4.61964,-3.86683 -5.61659,-10.90645 -3.81928,-16.69961 a 8.9584576,9.0367721 0 0 1 3.65078,-5.48156 c 2.42918,-1.41642 5.44809,-0.7507 8.24235,-0.96316 a 26.004802,26.232135 0 0 0 8.42488,-2.7337 c 1.75518,-0.7932 3.76311,-1.82718 4.21244,-3.92349 0.44933,-2.0963 -1.92368,-3.90932 -1.40415,-5.66569 0.98291,-3.95181 8.38276,-1.47307 10.20815,0.41077 z"
         opacity="0.1"
         id="path31"
         style="stroke-width:1.41027" />
      <path
         d="m 548.24496,498.58264 4.83026,3.21528 a 8.6355038,8.710995 0 0 1 3.49633,3.4844 c 1.05311,2.47874 -0.36508,5.28325 -1.93772,7.46454 a 42.51757,42.889257 0 0 1 -18.59091,14.53249 27.70382,27.946005 0 0 1 -8.07384,2.02548 3.3699527,3.3994127 0 0 1 -1.86752,-0.22662 c -1.47435,-0.7932 -1.26373,-2.90367 -1.27777,-4.58921 0,-4.85833 -3.69291,-8.81015 -7.02074,-12.39369 -3.32783,-3.58355 -6.61353,-7.97446 -5.85529,-12.7478 a 15.726446,15.863926 0 0 1 4.21244,-7.47871 30.315533,30.58055 0 0 1 6.31866,-6.01979 c 3.41208,-2.25211 4.6056,-1.03399 7.80706,1.01982 q 9.02866,5.79317 17.95904,11.71381 z"
         fill="#f1f1f1"
         id="path33"
         style="stroke-width:1.41027" />
      <path
         d="m 532.57468,522.29354 a 8.6074209,8.6826666 0 0 0 7.59643,-1.72803 19.026191,19.192518 0 0 0 4.92856,-6.40223 51.588359,52.039343 0 0 0 3.06104,-6.77049 c 1.01099,-2.7337 1.93772,-5.75068 4.32477,-7.40789 2.8083,-2.01132 6.93649,-1.21812 9.82903,0.72237 2.89254,1.9405 5.08301,4.81584 7.56835,7.30874 5.8553,5.89232 13.56406,9.61751 21.48345,12.05375 7.91939,2.43625 16.13365,3.65437 24.26366,5.2266 a 13.76064,13.880935 0 0 1 4.66177,1.51557 c 3.2857,2.02548 4.39498,6.54387 3.46824,10.31155 -0.92673,3.76769 -3.35591,6.88381 -6.00975,9.71666 a 24.207494,24.419115 0 0 1 -8.04576,6.27475 25.681848,25.906358 0 0 1 -8.13001,1.55806 138.85609,140.06997 0 0 1 -40.1586,-3.17278 107.43128,108.37044 0 0 0 -14.71546,-2.96033 c -3.01892,-0.26912 -6.07996,-0.18413 -9.09888,-0.39659 a 47.909494,48.328317 0 0 1 -17.38333,-4.61754 6.1361222,6.1897639 0 0 1 -3.15934,-2.66287 6.487159,6.5438694 0 0 1 -0.2387,-3.51273 l 2.00793,-17.76193 c 0.18254,-1.5439 0.68803,-3.47023 2.21855,-3.71103 1.53052,-0.24079 2.49938,1.27478 3.41208,2.43625 a 12.454784,12.563663 0 0 0 14.898,3.2861"
         fill="#575a89"
         id="path35"
         style="stroke-width:1.41027" />
      <path
         d="m 415.97431,298.30058 c 8.83209,-1.00566 19.08236,-1.17563 25.06403,5.46739 3.66482,4.07929 4.7741,9.78747 6.03783,15.12738 a 97.377592,98.228863 0 0 0 9.57628,25.72222 c 2.8083,5.01414 6.22037,9.7025 8.42488,15.02824 2.20451,5.32575 3.03296,11.33138 4.32478,17.12454 a 102.41848,103.31382 0 0 0 35.86191,57.56339 c -3.18741,8.73932 -12.41266,13.73929 -21.38516,15.97724 a 11.780793,11.88378 0 0 1 -6.69778,0.21246 11.963332,12.067915 0 0 1 -4.33881,-3.22944 148.83958,150.14073 0 0 1 -11.69655,-14.46167 c -12.93219,-17.42199 -26.04692,-35.19808 -33.09574,-55.75036 -2.4713,-7.22376 -4.9426,-15.58065 -11.89313,-18.65428 -3.95969,-1.72804 -8.49509,-1.1898 -12.74965,-0.45326 a 172.83645,174.34738 0 0 0 -27.97061,7.23792 c -9.71669,3.41358 -20.83754,7.60619 -29.72579,2.39375 -5.32172,-3.13029 -8.42488,-9.12175 -9.64649,-15.21237 -1.22161,-6.09061 -0.60378,-12.37953 0,-18.55513 a 18.941942,19.107532 0 0 1 1.93772,-8.01694 17.228883,17.379497 0 0 1 4.64773,-4.74502 95.692615,96.529156 0 0 1 26.1733,-14.16422 c 8.9725,-3.20111 18.63303,-4.24926 27.99869,-5.84982 q 9.53416,-1.67138 19.15256,-2.76202 z"
         fill="#575a89"
         id="path37"
         style="stroke-width:1.41027" />
      <path
         d="m 415.97431,298.30058 c 8.83209,-1.00566 19.08236,-1.17563 25.06403,5.46739 3.66482,4.07929 4.7741,9.78747 6.03783,15.12738 a 97.377592,98.228863 0 0 0 9.57628,25.72222 c 2.8083,5.01414 6.22037,9.7025 8.42488,15.02824 2.20451,5.32575 3.03296,11.33138 4.32478,17.12454 a 102.41848,103.31382 0 0 0 35.86191,57.56339 c -3.18741,8.73932 -12.41266,13.73929 -21.38516,15.97724 a 11.780793,11.88378 0 0 1 -6.69778,0.21246 11.963332,12.067915 0 0 1 -4.33881,-3.22944 148.83958,150.14073 0 0 1 -11.69655,-14.46167 c -12.93219,-17.42199 -26.04692,-35.19808 -33.09574,-55.75036 -2.4713,-7.22376 -4.9426,-15.58065 -11.89313,-18.65428 -3.95969,-1.72804 -8.49509,-1.1898 -12.74965,-0.45326 a 172.83645,174.34738 0 0 0 -27.97061,7.23792 c -9.71669,3.41358 -20.83754,7.60619 -29.72579,2.39375 -5.32172,-3.13029 -8.42488,-9.12175 -9.64649,-15.21237 -1.22161,-6.09061 -0.60378,-12.37953 0,-18.55513 a 18.941942,19.107532 0 0 1 1.93772,-8.01694 17.228883,17.379497 0 0 1 4.64773,-4.74502 95.692615,96.529156 0 0 1 26.1733,-14.16422 c 8.9725,-3.20111 18.63303,-4.24926 27.99869,-5.84982 q 9.53416,-1.67138 19.15256,-2.76202 z"
         opacity="0.1"
         id="path39"
         style="stroke-width:1.41027" />
      <path
         d="m 466.55169,362.57781 a 45.606693,46.005385 0 0 1 11.23317,8.00278 c 3.58058,3.85267 5.75701,8.82431 7.61048,13.78178 a 16.582976,16.727943 0 0 1 1.3199,5.32575 5.9957075,6.0481218 0 0 1 -1.95177,4.92915 8.7478356,8.8243088 0 0 1 -5.51829,1.41642 c -2.55555,0 -5.12514,0 -7.68069,-0.1983 a 12.833903,12.946097 0 0 1 -4.54943,-0.87818 12.637323,12.747798 0 0 1 -3.53845,-2.70536 49.748927,50.18383 0 0 1 -10.88214,-14.81578 c -1.85348,-4.12179 -4.91452,-13.64014 -1.99389,-17.9319 2.92062,-4.29176 12.77774,1.24645 15.95111,3.07364 z"
         fill="#ffbfc5"
         id="path41"
         style="stroke-width:1.41027" />
      <path
         d="m 342.6638,361.10473 c 13.07261,4.24926 26.98771,4.70252 40.65006,5.99146 a 339.49465,342.4625 0 0 1 67.75009,13.51267 c 4.52135,1.41642 9.14099,2.94615 12.77773,5.99146 a 37.996217,38.328378 0 0 1 7.4139,9.51836 159.35664,160.74973 0 0 1 9.73074,17.16703 c 2.48534,5.35408 4.38094,10.96311 6.68374,16.388 a 114.17119,115.16927 0 0 0 35.62321,46.01955 c 2.80829,2.19546 6.02379,4.57505 6.75394,8.10194 a 11.148927,11.24639 0 0 1 -1.05311,6.65718 c -3.36995,7.9178 -10.3626,13.68264 -17.70629,18.08771 -3.14529,1.898 -6.62757,3.81017 -8.17213,7.18126 -11.14893,-4.64587 -19.44744,-14.56082 -26.3418,-24.53243 -6.89436,-9.97161 -13.03049,-20.72225 -21.87661,-28.99416 -3.88949,-3.65437 -8.31255,-6.82715 -11.38763,-11.21806 -4.67581,-6.68551 -5.93954,-15.8356 -12.23012,-20.99137 -6.29058,-5.15578 -15.44562,-4.49006 -23.57563,-3.6827 a 578.50855,583.56585 0 0 1 -125.1797,-1.41642 c -8.63551,-1.03399 -17.50971,-2.36543 -24.99382,-6.85549 -7.4841,-4.49005 -13.31131,-12.87527 -12.2582,-21.58627 0.99694,-8.15859 7.72281,-14.61747 15.23499,-17.80442 7.51219,-3.18695 15.79666,-3.76768 23.8705,-4.68836 20.09334,-2.23794 39.27399,-5.92064 58.28614,-12.84694 z"
         fill="#575a89"
         id="path43"
         style="stroke-width:1.41027" />
      <path
         d="m 223.18494,378.03097 c 1.02502,-6.91214 3.67886,-13.45601 5.3498,-20.24067 a 121.34638,122.40719 0 0 1 3.17337,-12.64865 c 0,-0.12748 0.0983,-0.24079 0.14041,-0.3541 a 2.8925427,2.9178292 0 0 0 2.13431,-1.23229 3.5384503,3.5693833 0 0 0 0.18254,-1.89801 13.648308,13.767621 0 0 1 0,-2.02548 143.57403,144.82915 0 0 1 8.95845,-13.38519 c 5.61659,-8.08777 10.55919,-16.68545 15.44562,-25.26897 4.01586,-7.08211 8.03172,-14.07923 11.34551,-21.47295 2.49938,-5.53821 4.59156,-11.33138 7.34369,-16.68545 9.82903,-19.26334 27.40895,-33.47005 46.33685,-43.66829 18.16966,-9.78748 37.81367,-16.37384 56.91007,-24.16416 a 12.946235,13.05941 0 0 1 1.33394,1.58639 c 10.32048,14.23504 11.42976,32.93181 15.68432,50.04219 1.71306,6.91214 4.00182,13.79595 4.00182,20.90639 0,10.50985 -4.98472,20.28316 -9.94136,29.5324 -4.64772,8.71099 -9.43587,17.42199 -15.60007,25.11316 -2.92063,3.65437 -6.13612,7.08211 -9.07079,10.69398 -12.04758,14.8866 -18.99811,33.20093 -25.7661,51.17533 -3.90353,10.4107 -10.30644,19.63161 -14.60312,29.8865 -1.6569,3.93765 -2.61172,8.17276 -4.68986,11.91211 -2.07813,3.73935 -5.68679,6.99712 -9.92731,7.08211 a 14.883958,15.014073 0 0 1 -3.66483,-0.58073 c -15.34732,-3.98015 -28.19527,-14.16422 -40.94492,-23.71091 -2.28876,-1.6997 -4.57752,-3.37108 -7.02074,-4.90082 -2.44321,-1.52973 -4.91451,-2.93199 -7.41389,-4.24926 l -5.70084,-3.15862 c -6.20633,-3.42775 -12.44074,-6.86965 -18.91386,-9.77332 a 34.415642,34.716502 0 0 1 -5.61659,-2.83284 33.516988,33.809992 0 0 1 0.53358,-5.67985 z"
         fill="#3f3d56"
         id="path45"
         style="stroke-width:1.41027" />
      <ellipse
         cx="423.80945"
         cy="189.08025"
         fill="#ffbfc5"
         id="circle47"
         rx="35.356422"
         ry="35.665504"
         style="stroke-width:1.41027" />
      <path
         d="m 447.60975,172.39483 a 8.4248818,8.4985317 0 0 0 8.70571,4.12179 12.202037,12.308707 0 0 0 8.13001,-5.84983 22.92972,23.130171 0 0 0 3.00487,-9.82996 c 0.29487,-2.70537 0.25275,-5.66569 -1.47435,-7.77616 a 16.934012,17.082049 0 0 0 -4.47923,-3.17279 17.046344,17.195363 0 0 1 -5.61659,-5.66568 c -0.9829,-1.65722 -1.69902,-3.45607 -2.58363,-5.15578 -3.2155,-6.16144 -9.47799,-11.17557 -16.37235,-10.94894 -3.31379,0.11331 -6.47312,1.41642 -9.74478,1.95466 -10.96639,1.9405 -22.87356,-3.90932 -33.05362,0.65156 a 30.891233,31.161283 0 0 0 -6.9084,4.64586 q -4.29669,3.58355 -8.25639,7.53536 a 17.046344,17.195363 0 0 0 -5.02685,7.37956 c -1.40414,5.24076 1.8956,11.09059 -0.19658,16.07639 a 23.477337,23.682575 0 0 1 -2.5415,4.0368 c -2.3028,3.41358 0.19658,16.74211 0,20.8639 a 7.6526009,7.7194997 0 0 0 1.40415,5.66569 c 1.67093,1.88384 4.46518,2.03964 7.02073,2.06797 h 4.59156 a 5.8272099,5.8781511 0 0 0 2.03601,-0.21246 6.1642052,6.2180924 0 0 0 2.31685,-1.78469 c 3.81928,-4.06513 4.63368,-17.33701 10.18006,-17.28035 a 3.9596944,3.9943099 0 0 1 2.40109,0.62323 c 0.99695,0.73654 1.29182,2.11046 2.00793,3.13029 a 5.8693343,5.9206438 0 0 0 6.81012,1.61472 15.361368,15.495656 0 0 0 5.79912,-4.73085 22.845471,23.045185 0 0 1 5.42001,-5.2266 c 2.96275,-1.7422 6.30462,-2.4929 9.18312,-4.46173 2.40109,-1.64305 3.76312,-4.02263 5.9255,-5.83565 2.16239,-1.81302 3.98778,-1.55807 6.29058,-0.35411 3.32783,1.85551 3.46824,4.80167 5.02685,7.9178 z"
         fill="#3f3d56"
         id="path49"
         style="stroke-width:1.41027" />
      <path
         d="m 365.91648,235.22731 a 56.264169,56.756028 0 0 1 24.62873,1.98299 13.08665,13.201053 0 0 1 6.86628,4.12179 12.32841,12.436185 0 0 1 1.96581,5.1841 41.548709,41.911926 0 0 1 -2.99084,25.26897 3.3137868,3.3427558 0 0 0 -0.4072,2.6912 4.7179338,4.7591778 0 0 0 1.40415,1.41642 4.8864314,4.9291484 0 0 1 -0.29487,7.35123 c -0.65995,0.48158 -1.53052,0.90651 -1.6569,1.71387 -0.12637,0.80736 0.68804,1.58639 1.33394,2.20962 a 7.8491815,7.9177987 0 0 1 2.19047,7.28041 15.824736,15.963075 0 0 0 -0.71611,3.21528 10.404729,10.495687 0 0 0 1.16544,3.8385 16.653183,16.798764 0 0 1 1.05311,8.49853 9.2814114,9.3625491 0 0 0 -0.0983,4.15012 9.5762823,9.6599977 0 0 0 1.57265,2.4929 c 2.5415,3.45607 3.08912,9.23507 -0.58975,11.33138 a 8.523172,8.5976813 0 0 1 4.5354,8.8668 c 2.20451,-1.17563 4.87239,0.33994 6.71182,2.03965 1.83943,1.6997 3.70695,3.79601 6.19229,3.92348 1.74114,0.085 3.58057,-0.82152 5.15322,-0.0991 2.41513,1.09064 2.33088,5.04246 4.70389,6.21809 2.07814,1.04815 4.98472,-0.65156 6.75395,0.86401 0.61782,0.52408 0.92673,1.33144 1.53052,1.88385 1.33394,1.24645 3.44016,0.72237 5.26555,0.63739 4.31073,-0.16997 8.28447,2.83284 10.51706,6.48721 2.23259,3.65437 3.03296,8.1161 3.60866,12.42202 a 16.302146,16.444659 0 0 1 -0.14042,7.15293 6.0799563,6.1331071 0 0 1 -4.98472,4.53255 c -21.69407,1.41642 -43.10731,-3.8385 -64.23972,-9.02261 -6.20633,-1.52973 -12.51095,-3.31443 -17.69225,-7.08211 -4.7039,-3.4419 -8.1581,-8.28607 -11.52805,-13.04524 -6.22037,-8.79598 -12.48287,-17.64862 -16.93401,-27.46443 -5.72892,-12.62032 -8.28447,-26.44459 -10.78385,-40.11307 a 36.985231,37.308554 0 0 1 -0.9127,-11.18973 31.43885,31.713688 0 0 1 4.88643,-12.26621 132.41106,133.56859 0 0 1 9.82903,-14.06507 c 5.43405,-6.75634 13.56406,-12.1954 22.10128,-13.42768 z"
         opacity="0.1"
         id="path51"
         style="stroke-width:1.41027" />
      <path
         d="m 367.33466,233.81089 a 56.165878,56.656878 0 0 1 24.64278,1.99715 12.974318,13.087739 0 0 1 6.86628,4.10762 12.524991,12.634484 0 0 1 1.96581,5.18411 41.646999,42.011075 0 0 1 -2.99084,25.26897 3.3137868,3.3427558 0 0 0 -0.4072,2.6912 4.7179338,4.7591778 0 0 0 1.40415,1.41642 4.8864314,4.9291484 0 0 1 -0.29487,7.35123 c -0.65995,0.48158 -1.53052,0.90651 -1.6569,1.71387 -0.12637,0.80736 0.68804,1.58639 1.40415,2.20962 a 7.8491815,7.9177987 0 0 1 2.19047,7.28041 15.824736,15.963075 0 0 0 -0.71611,3.21527 10.376646,10.467358 0 0 0 1.1514,3.83851 16.52681,16.671286 0 0 1 1.06715,8.49853 6.0659149,6.1189429 0 0 0 1.47435,6.64302 c 2.54151,3.45607 3.08913,9.23507 -0.58974,11.41636 a 8.4950891,8.5693528 0 0 1 4.5354,8.85264 c 2.20451,-1.17563 4.87239,0.33994 6.71182,2.03964 1.83943,1.69971 3.70695,3.79602 6.19229,3.92349 1.74114,0.085 3.56653,-0.82152 5.15322,-0.0992 2.41513,1.10481 2.33088,5.04247 4.70389,6.23226 2.07814,1.03399 4.98472,-0.66572 6.75394,0.84985 0.61783,0.52408 0.92674,1.33144 1.53052,1.88385 1.33394,1.24645 3.44016,0.72237 5.26556,0.63739 4.31073,-0.16998 8.28446,2.83284 10.51706,6.48721 a 31.593307,31.869494 0 0 1 3.60865,12.42202 16.751473,16.897914 0 0 1 -0.14041,7.08211 6.0799563,6.1331071 0 0 1 -4.98472,4.53255 c -21.69407,1.41642 -43.10731,-3.83851 -64.23973,-9.02261 -6.20633,-1.52974 -12.52499,-3.31443 -17.69225,-7.08211 -4.70389,-3.42774 -8.15809,-8.28607 -11.52804,-13.04525 -6.22037,-8.78181 -12.48287,-17.63445 -16.93402,-27.45025 -5.72892,-12.63449 -8.28446,-26.45877 -10.78384,-40.11307 a 37.06948,37.39354 0 0 1 -0.9127,-11.2039 31.43885,31.713688 0 0 1 4.76006,-12.28038 128.81644,129.94255 0 0 1 9.82903,-14.0509 c 5.49021,-6.78467 13.62022,-12.20956 22.14339,-13.42768 z"
         fill="#3f3d56"
         id="path53"
         style="stroke-width:1.41027" />
      <path
         d="m 232.73004,-46.546825 c -6.86948,1.876745 -8.94464,2.742944 -8.94464,3.825685 0,0.50528 0.64401,4.475327 1.43114,8.806278 1.57426,8.806292 1.86049,18.19003 0.57247,21.005136 -0.42935,1.01057 -2.43295,2.81513 -4.43655,4.0422502 -2.93383,1.87674 -4.07875,2.16546 -6.65481,1.87674 -4.0072,-0.4331 -9.30242,-3.7535002 -17.88927,-11.1161352 l -6.86948,-5.918972 -3.43474,3.031681 c -1.86048,1.660188 -4.72276,4.547494 -6.36858,6.496433 l -3.00539,3.392573 3.64941,4.0422402 c 8.37218,9.1671798 13.6674,17.6125598 13.6674,21.5825998 0,2.81513 -3.50629,8.95064 -5.86768,10.17775 -2.86228,1.51584 -12.73715,1.29928 -21.75335,-0.50529 -4.15031,-0.794 -8.01439,-1.29928 -8.44374,-1.1549 -0.85868,0.3609 -3.22006,7.65135 -4.57965,14.00342 l -0.71557,2.95949 7.51349,2.67075 c 10.01799,3.46477 16.6728,6.92953 19.39197,10.10557 2.00359,2.23767 2.28983,3.10385 2.28983,6.85736 0,3.68131 -0.28624,4.61969 -2.14672,6.71299 -2.71917,3.17603 -8.51529,6.20769 -17.88926,9.45592 -4.15031,1.44364 -7.87129,2.74294 -8.30063,2.8873 -0.64401,0.21654 -0.57246,1.58802 0.21468,4.90841 1.14491,5.341525 3.07695,11.549235 3.72096,12.271055 0.21468,0.28874 4.0072,-0.14436 8.30063,-0.93837 9.87487,-1.87674 19.24884,-2.16548 22.11113,-0.64965 2.64762,1.29929 6.0108,6.785171 6.08236,9.744651 0.14311,4.40315 -4.07876,11.2605 -13.0234,21.51044 l -4.29342,4.90841 6.01079,6.13553 c 3.29163,3.32039 6.29703,6.06333 6.72637,6.06333 0.42935,0 2.79073,-1.80456 5.36678,-4.04222 9.30243,-8.22882 14.66921,-11.69359 19.46352,-12.55978 2.21828,-0.43309 3.29163,-0.14437 6.44014,1.80456 2.07516,1.22712 4.22188,3.03168 4.65122,4.04224 1.35958,2.59857 1.07335,12.70414 -0.50091,21.00514 -0.78713,4.11441 -1.43114,8.01228 -1.43114,8.66192 0,0.93836 1.50271,1.73238 5.58146,2.95948 3.00539,1.01056 6.79792,2.02111 8.44374,2.23767 l 2.93384,0.50528 2.36138,-6.71299 c 3.6494,-10.3943 6.72635,-16.67419 9.58864,-19.5615 2.5045,-2.52638 2.86228,-2.67075 7.44193,-2.67075 4.65121,0 4.93745,0.0722 7.51351,2.67075 2.93382,3.10386 6.58324,10.61086 9.51708,19.92242 l 2.07515,6.35207 2.50451,-0.4331 c 3.79251,-0.64964 13.1665,-3.24823 14.16829,-3.89787 0.71558,-0.4331 0.57246,-2.30984 -0.64401,-9.16719 -1.78893,-9.9612 -2.14672,-18.47874 -0.78713,-21.58261 1.07336,-2.67076 6.94104,-6.13552 10.23267,-6.13552 4.57965,0.0722 9.58864,3.24822 20.75155,13.13724 l 4.79432,4.18659 5.29522,-4.9806 c 2.86228,-2.74294 5.72457,-5.77461 6.22547,-6.78517 0.93025,-1.80456 0.78712,-2.0933 -3.43474,-6.78517 -6.15392,-6.85734 -10.87668,-13.93124 -11.87848,-18.04565 -0.85868,-3.32039 -0.85868,-3.60913 1.28804,-7.579181 1.50269,-2.81512 2.93383,-4.40313 4.43652,-5.05279 3.14852,-1.37146 12.45094,-1.01054 21.75336,0.79402 6.58326,1.29929 8.30063,1.44365 8.72997,0.64964 0.85868,-1.37147 3.43474,-11.404865 3.64941,-14.147805 l 0.21467,-2.4542 -8.22906,-3.03167 c -10.44733,-3.89787 -14.0252,-5.70243 -17.31681,-8.95064 -2.57607,-2.45422 -2.71918,-2.81513 -2.71918,-7.14609 0,-2.95949 0.42935,-5.19715 1.14492,-6.35207 2.21827,-3.46477 8.22906,-6.56862 21.96802,-11.54922 l 5.58145,-2.02111 -0.42934,-2.95949 c -0.85868,-5.12497 -3.93563,-14.1478 -4.86588,-14.1478 -0.5009,0 -4.36499,0.64964 -8.6584,1.44365 -8.80153,1.6602 -18.53328,1.87675 -21.10935,0.50529 -2.79072,-1.37148 -6.5117,-8.22883 -6.01078,-10.89958 0.71556,-3.97005 4.43652,-10.03339 10.59044,-17.3960098 3.36318,-3.97005 6.08234,-7.5791902 6.08234,-8.0122802 0,-0.4331 -2.71916,-3.464763 -6.08234,-6.712987 l -6.08236,-5.991153 -4.79432,4.25877 c -9.94643,8.87846 -16.88746,13.2094202 -20.96622,13.2094202 -3.14852,0 -9.08775,-3.5369402 -10.16111,-6.1355302 -1.35959,-3.176024 -1.0018,-13.209405 0.71557,-22.376601 0.85869,-4.330965 1.28803,-8.156636 1.0018,-8.445373 -0.64401,-0.649642 -13.6674,-4.18659 -15.52788,-4.18659 -1.21647,0 -1.86048,1.082742 -3.5063,6.279891 -2.93384,9.239377 -7.08414,17.684737 -10.08955,20.355499 -2.28983,2.021121 -3.0054,2.237664 -7.08415,2.237664 -4.22186,0 -4.65121,-0.144362 -7.1557,-2.670763 -3.14852,-3.176029 -6.15391,-9.311558 -9.37399,-18.911839 -2.6476,-8.012274 -2.6476,-8.084455 -10.73355,-5.918987 z m 39.64262,55.652819 c 30.12553,7.29044 47.01299,39.91699 35.77854,69.29531 -8.01439,21.005155 -29.19529,34.575496 -51.5211,32.987476 -22.54048,-1.66021 -41.0022,-17.323841 -46.5121,-39.556086 -1.28803,-4.90843 -1.43114,-7.43481 -1.21647,-14.29216 0.64401,-14.21997 5.009,-24.61429 14.52608,-34.35893 12.88028,-13.20943 30.98422,-18.40657 48.94505,-14.07561 z"
         id="path1340"
         style="fill:#5f5fd3;stroke-width:0.071869" />
      <path
         d="m 248.90194,24.697434 c -15.52789,5.34152 -25.11654,18.62313 -25.11654,35.00858 0,21.00514 18.39017,38.256795 38.99861,36.524415 14.66919,-1.29929 26.33301,-10.249945 31.84289,-24.686455 2.21828,-5.77463 2.43294,-16.81857 0.42935,-22.73754 -6.65481,-19.9224 -27.19168,-30.67762 -46.15431,-24.109 z m 19.8213,18.04566 c 6.79793,3.39258 10.59045,10.32211 10.01799,18.19002 -0.35778,4.98061 -2.00359,8.51755 -5.36678,11.91014 -3.36317,3.39257 -6.86948,5.05277 -11.6638,5.41369 -8.01439,0.57746 -14.52608,-3.03166 -18.10393,-10.10556 -3.57787,-7.00171 -2.36138,-16.09673 2.93384,-21.79916 5.15211,-5.55807 15.09854,-7.14609 22.18268,-3.60913 z"
         id="path1342"
         style="fill:#5f5fd3;stroke-width:0.071869" />
      <path
         d="m 410.71642,-107.77939 c -7.62666,1.99457 -8.96837,2.63568 -8.54467,4.13161 1.12987,3.775412 2.75406,14.745515 2.82468,19.019582 0.0706,6.767268 -0.91803,8.833063 -5.50813,11.326263 -3.74272,1.994563 -3.81333,2.065794 -6.9911,0.926056 -3.95455,-1.353462 -8.40342,-4.345299 -15.11204,-10.257756 -2.82469,-2.493214 -5.36691,-4.487777 -5.64937,-4.487777 -0.35308,0 -3.10715,2.564446 -6.14369,5.62753 l -5.57874,5.627515 4.23703,4.915168 c 8.12095,9.402946 11.51057,14.816751 11.51057,18.449703 0,3.063084 -3.31901,8.12073 -6.07307,9.260482 -3.24838,1.353448 -6.84985,1.282216 -17.51303,-0.498651 -7.55602,-1.282216 -9.1096,-1.42468 -9.67454,-0.569869 -0.98863,1.709635 -3.53086,12.038609 -3.319,13.605767 0.14123,1.139752 1.76542,1.994577 7.62664,4.060357 8.89776,3.205562 12.42861,4.986415 15.39452,7.764556 2.11852,1.994563 2.25975,2.4932 2.25975,6.909732 0,4.4165452 -0.14123,4.9151822 -2.25975,6.9097452 -2.96591,2.778142 -6.49676,4.55901199 -15.39452,7.764552 -5.86122,2.06578 -7.48541,2.92061 -7.62664,4.06035 -0.21186,1.56717 2.33037,11.8961598 3.319,13.5345498 0.49431,0.78356 2.18913,0.71233 9.25084,-0.49865 14.97082,-2.56444 18.92537,-1.92334 22.24437,3.84666 1.55358,2.63568 1.83605,3.84666 1.55358,6.1974 -0.4237,3.34801 -4.5195,9.61664 -11.08688,17.30995 l -4.23703,4.91518 5.43752,5.55627 c 3.03654,3.06308 5.71999,5.55628 6.07307,5.55628 0.28246,0 2.8953,-2.06578 5.79059,-4.55899 6.63801,-5.91246 11.93428,-9.40295 15.60638,-10.32899 2.61282,-0.71235 3.24838,-0.56987 6.21431,1.06852 4.87257,2.77814 5.71997,4.48776 5.57874,11.32626 0,3.13432 -0.70617,8.90431 -1.48296,12.8222 -0.77679,3.91788 -1.20049,7.33714 -0.98863,7.62208 0.70616,0.6411 9.1096,3.13432 12.49921,3.70419 l 2.82468,0.49863 2.40098,-6.98096 c 2.96592,-8.76183 5.71999,-14.24688 8.33283,-16.74008 1.62419,-1.56716 2.68343,-1.92333 6.21429,-2.06581 2.33036,-0.0712 4.9432,0.21371 5.71999,0.64111 2.47159,1.28222 5.7906,7.26591 9.1096,16.24145 l 3.10715,8.47689 2.33036,-0.2137 c 2.75407,-0.21371 12.49921,-2.99185 12.92291,-3.7042 0.14125,-0.28492 -0.35307,-3.91789 -1.05924,-8.19194 -1.69482,-9.18924 -1.83605,-16.74008 -0.4237,-19.44699 0.56493,-1.13976 2.5422,-2.84938 4.44887,-3.84667 2.89529,-1.56715 3.88394,-1.78085 6.07307,-1.35344 3.88393,0.92604 8.05034,3.70418 15.11205,9.97281 l 6.35554,5.62752 4.30764,-3.9179 c 2.40098,-2.13703 5.01381,-4.7727 5.7906,-5.91246 l 1.48295,-2.13702 -5.15503,-6.05492 c -6.07308,-7.05221 -9.67455,-12.75096 -10.16886,-16.17022 -0.35309,-1.85209 0.0706,-3.20554 1.62419,-5.91245 3.31899,-5.69875 7.34416,-6.4111 21.82067,-3.9179 4.59011,0.78358 8.75651,1.28222 9.18021,1.13976 0.4237,-0.14247 1.48296,-2.84938 2.25975,-5.91246 2.68345,-10.3289898 3.10715,-8.9755298 -4.16641,-11.5399698 -9.67453,-3.41925001 -13.55847,-5.342577 -16.80685,-8.263196 -2.82468,-2.564432 -2.8953,-2.778142 -2.8953,-7.1234412 0,-4.345285 0.0706,-4.558995 2.8953,-7.123427 3.24838,-2.92062 7.13232,-4.843951 16.80685,-8.263193 7.27356,-2.564447 6.84986,-1.210985 4.16641,-11.539973 -0.77679,-3.063083 -1.83605,-5.769993 -2.33036,-5.912456 -0.4237,-0.21371 -4.44887,0.284941 -8.82713,1.139752 -14.54712,2.635664 -18.92537,1.780853 -22.17377,-3.989126 -1.48295,-2.635678 -1.83603,-4.131604 -1.55356,-5.912457 0.49431,-3.348025 4.1664,-9.118004 10.16886,-16.170213 l 5.15503,-6.05492 -2.54221,-3.134316 c -1.41235,-1.709621 -3.95455,-4.274067 -5.71999,-5.698747 l -3.17777,-2.635678 -1.97726,1.709622 c -13.34663,11.041335 -15.81823,12.750956 -20.26711,13.677013 -1.83604,0.427405 -2.96592,0.07125 -5.93183,-1.780868 -1.97728,-1.210984 -3.95455,-3.063083 -4.30764,-3.989126 -0.98865,-2.635663 -0.77679,-10.685161 0.49432,-17.737356 1.83604,-10.400229 2.04789,-9.545409 -3.67209,-11.397509 -2.82468,-0.92604 -6.2143,-1.70962 -7.69726,-1.8521 l -2.54221,-0.21369 -3.10715,8.47688 c -3.38963,9.046777 -6.42617,14.60306 -9.18022,16.383913 -0.98865,0.641115 -3.24839,1.139753 -5.22567,1.139753 -6.28492,0 -9.95701,-4.772705 -14.97082,-19.375756 -1.62419,-4.70146 -2.75407,-6.98097 -3.46023,-6.90974 -0.56494,0 -3.24838,0.56987 -6.00244,1.35345 z m 35.66161,50.291494 c 20.26709,4.772705 35.30852,24.148465 35.30852,45.518774 0,21.3703272 -15.04143,40.746087 -35.30852,45.518787 -5.86122,1.42468 -16.87748,1.42468 -22.24439,0.0712 -15.95945,-4.06036 -28.74114,-16.45514 -33.61372,-32.4116498 -1.34171,-4.202833 -1.62419,-7.052207 -1.62419,-13.1783592 0,-13.463303 4.1664,-23.578596 13.6291,-33.195237 5.79059,-5.841225 13.48786,-10.257756 21.25573,-12.323551 5.15506,-1.353447 16.87748,-1.424693 22.59747,0 z"
         id="path1346"
         style="fill:#5f5fd3;stroke-width:0.0709249" />
      <path
         d="m 426.60525,-44.095824 c -14.4765,4.060357 -24.29227,17.096255 -24.29227,32.126702 0,28.992397 34.10805,43.951627 55.29317,24.148467 8.75651,-8.1207198 12.49921,-20.6579788 9.60391,-31.984241 -3.17776,-12.038624 -12.85231,-21.86896 -24.4335,-24.504638 -4.16641,-0.997275 -12.28737,-0.854811 -16.17131,0.21371 z m 15.74761,16.597604 c 3.24838,1.353462 7.97972,6.624803 8.96836,10.115292 0.98864,3.632952 0.84741,8.9755402 -0.28246,11.7536822 -2.61284,6.33985099 -9.1096,10.613911 -15.95947,10.613911 -16.59501,-0.0712 -23.09177,-21.3703192 -9.5333,-30.9869602 4.73135,-3.34801 10.66318,-3.846662 16.80687,-1.495925 z"
         id="path1348"
         style="fill:#5f5fd3;stroke-width:0.0709249" />
      <path
         d="m 515.01781,44.804695 -5.22565,1.49593 0.4237,2.20827 c 2.5422,12.60849 2.25973,16.74008 -1.41235,18.87711 -1.34172,0.85481 -2.96591,1.49592 -3.53084,1.49592 -1.83605,0 -5.43752,-2.20826 -10.80442,-6.6248 l -5.29627,-4.27405 -3.74272,4.06035 -3.74271,4.06036 3.88396,4.559 c 3.88392,4.63024 6.7086,9.40294 6.7086,11.32627 0,0.56987 -0.63554,2.20826 -1.48294,3.56172 -1.12988,1.92333 -2.11852,2.63567 -4.02519,2.99184 -2.33036,0.42742 -11.43996,-0.49864 -15.39452,-1.56716 -1.34171,-0.35616 -1.62419,0.0712 -2.75406,4.48778 -0.70618,2.63566 -1.27111,5.12886 -1.34172,5.48504 -0.0706,0.28494 1.97728,1.28223 4.5195,2.20827 5.64936,1.923335 9.03897,3.632955 11.15749,5.556285 2.11851,1.99457 2.18912,6.98098 0.0706,9.11801 -1.55358,1.56716 -8.05034,4.7727 -12.7817,6.26863 -3.10714,0.99727 -3.31899,1.99456 -1.55356,7.83579 l 1.05925,3.77541 2.61283,-0.4274 c 5.50814,-0.85481 13.48786,-1.28222 15.18267,-0.85481 0.98864,0.21369 2.4716,1.56715 3.38962,2.99183 1.34172,2.20828 1.41235,2.84939 0.77679,5.12888 -0.4237,1.49593 -2.82468,5.20011 -5.3669,8.33443 l -4.5901,5.69874 3.81332,3.84667 3.81331,3.84666 4.80196,-3.9179 c 7.97974,-6.55357 10.66319,-7.40838 14.82959,-4.84393 3.10715,1.8521 3.60147,4.9864 2.11851,13.53453 -0.63555,3.70419 -0.91802,6.98097 -0.63555,7.26591 0.84741,0.78358 9.32145,2.77814 10.02762,2.35073 0.4237,-0.21371 0.70617,-0.78358 0.70617,-1.13975 0,-1.78085 4.51949,-12.03861 6.07307,-13.677 1.41234,-1.56716 2.40099,-1.92333 5.22567,-1.92333 3.24838,0 3.67208,0.2137 5.50813,2.70691 1.05925,1.49593 2.82468,5.34257 3.95456,8.61935 l 1.97727,5.77 2.61283,-0.42741 c 1.41234,-0.28494 3.67209,-0.85481 5.01381,-1.35345 2.75407,-0.99728 2.68345,-0.35617 1.76542,-11.11256 -0.70616,-7.55086 -0.28246,-9.18925 2.54222,-10.82764 4.23703,-2.35074 7.06171,-1.42468 14.47651,4.91518 3.67208,3.13432 4.80195,3.77542 5.79059,3.20555 1.41234,-0.78358 6.49677,-6.1974 6.49677,-6.90975 0,-0.21369 -1.2711,-1.85208 -2.82468,-3.63295 -4.30764,-4.9864 -7.0617,-9.47416 -7.0617,-11.68244 0,-2.77814 2.18912,-6.26863 4.16641,-6.83851 0.91802,-0.2137 4.37824,-0.14246 7.76787,0.14248 11.08687,0.92604 10.09824,1.21098 11.43996,-3.20555 1.97728,-6.12617 1.97728,-5.98369 -4.44887,-8.26319 -3.17777,-1.13975 -6.99109,-2.92061 -8.47406,-3.98913 -2.47159,-1.8521 -2.68343,-2.2795 -2.68343,-5.41382 0,-1.85208 0.28245,-3.70418 0.56493,-4.06036 1.05926,-1.56715 4.94318,-3.77541 10.02761,-5.698745 2.89531,-1.13975 5.57876,-2.27951 5.86122,-2.4932 0.56495,-0.49865 -1.34172,-9.18925 -2.18912,-10.1153 -0.28247,-0.28494 -3.53085,0 -7.20295,0.64112 -8.47404,1.49593 -11.58119,0.99727 -13.41723,-2.13704 -2.54222,-4.20282 -1.69482,-6.90973 4.80195,-14.95922 l 3.88394,-4.84395 -3.7427,-3.84664 -3.74271,-3.84667 -4.66073,3.9179 c -8.40343,7.05221 -12.28737,7.97825 -16.10068,4.13159 -1.76543,-1.78086 -1.76543,-2.0658 -1.34173,-8.33441 0.21185,-3.63297 0.63556,-7.76456 0.8474,-9.18925 l 0.42372,-2.63567 -3.74272,-1.06852 c -6.14369,-1.8521 -6.70862,-1.70962 -8.12096,2.56445 -1.76542,5.62751 -5.01381,11.8249 -6.56738,12.67971 -0.77679,0.35617 -2.61284,0.71235 -4.16642,0.71235 -4.02517,0 -6.2143,-2.84938 -10.02761,-13.39206 -0.84741,-2.42198 -1.62421,-4.41655 -1.69482,-4.34532 0,0 -2.40098,0.71235 -5.22566,1.49593 z m 27.89375,34.83363 c 6.70862,2.2795 13.98217,8.54812 17.01871,14.67428 5.57875,10.970095 4.59011,24.647115 -2.54221,34.050055 -11.01626,14.60304 -32.62509,16.74008 -45.83048,4.41653 -8.54466,-7.90702 -12.07551,-18.66341 -9.81578,-29.56228 1.34173,-6.482335 4.02519,-11.611215 8.54467,-16.241455 8.2622,-8.47689 21.11451,-11.32626 32.62509,-7.33713 z"
         id="path1350"
         style="fill:#5f5fd3;stroke-width:0.0709249" />
      <path
         d="m 527.16395,87.331635 c -3.38962,0.85481 -9.39207,4.41654 -11.29873,6.69603 -0.98863,1.21099 -2.61283,3.77543 -3.67209,5.77 -2.47159,4.915165 -2.68345,13.320825 -0.35308,18.378475 2.25975,4.98641 6.638,9.3317 11.58119,11.6112 3.88394,1.70964 4.9432,1.92333 10.09825,1.63839 12.21675,-0.71233 20.05525,-8.61935 20.76142,-20.94292 0.28247,-5.20011 0.0706,-6.26861 -1.62419,-10.18651 -2.25975,-4.986415 -6.63801,-9.474175 -11.51058,-11.611205 -3.53087,-1.56716 -10.52195,-2.27951 -13.98219,-1.35346 z m 11.01627,12.32355 c 3.38962,2.350735 5.08443,4.986415 5.43751,8.476905 0.70618,6.98096 -5.50813,13.24959 -12.42861,12.53725 -3.53085,-0.35618 -6.07306,-2.0658 -8.40342,-5.55629 -2.11852,-3.13431 -1.97728,-9.18923 0.4237,-12.53724 3.17776,-4.487785 10.52194,-5.912465 14.97082,-2.920625 z"
         id="path1352"
         style="fill:#5f5fd3;stroke-width:0.0709249" />
    </g>
    <rect
       style="fill:#5f5fd3;fill-opacity:1;stroke:#6c63ff;stroke-width:0.470905;stroke-miterlimit:1.3;stroke-dasharray:5.65086, 5.65086;stroke-dashoffset:0.470905"
       id="rect1055"
       width="10.820411"
       height="50.083992"
       x="123.61861"
       y="111.16864"
       ry="5.5648885"
       transform="rotate(-20)" />
    <ellipse
       style="fill:#5f5fd3;fill-opacity:1;stroke:#6c63ff;stroke-width:0.582083;stroke-miterlimit:1.3;stroke-dasharray:6.985, 6.985;stroke-dashoffset:0.582083"
       id="path3053"
       cx="181.25211"
       cy="117.08654"
       rx="5.7115388"
       ry="6.2469954" />
  </g>
</svg>
