<?xml version="1.0" encoding="UTF-8" standalone="no"?>
<svg
   id="2cf41747-0c0c-4d70-aad4-093c093adad4"
   data-name="Layer 1"
   width="1022.84"
   height="813.16"
   viewBox="0 0 1022.84 813.16"
   version="1.1"
   sodipodi:docname="4 - feelings-edit.svg"
   inkscape:version="1.1 (c68e22c387, 2021-05-23)"
   xmlns:inkscape="http://www.inkscape.org/namespaces/inkscape"
   xmlns:sodipodi="http://sodipodi.sourceforge.net/DTD/sodipodi-0.dtd"
   xmlns="http://www.w3.org/2000/svg"
   xmlns:svg="http://www.w3.org/2000/svg"
   xmlns:rdf="http://www.w3.org/1999/02/22-rdf-syntax-ns#"
   xmlns:cc="http://creativecommons.org/ns#"
   xmlns:dc="http://purl.org/dc/elements/1.1/">
  <sodipodi:namedview
     id="namedview92180"
     pagecolor="#505050"
     bordercolor="#eeeeee"
     borderopacity="1"
     inkscape:pageshadow="0"
     inkscape:pageopacity="0"
     inkscape:pagecheckerboard="0"
     showgrid="false"
     inkscape:zoom="1.4069787"
     inkscape:cx="565.04053"
     inkscape:cy="507.11499"
     inkscape:window-width="1920"
     inkscape:window-height="1017"
     inkscape:window-x="1912"
     inkscape:window-y="-8"
     inkscape:window-maximized="1"
     inkscape:current-layer="layer5" />
  <defs
     id="defs91819">
    <linearGradient
       id="3cf802be-0480-4c68-848a-073112220499"
       x1="635.22"
       y1="545.34"
       x2="635.22"
       y2="43.42"
       gradientUnits="userSpaceOnUse"
       gradientTransform="translate(-109.68798,122.42845)">
      <stop
         offset="0"
         stop-color="gray"
         stop-opacity="0.25"
         id="stop91812" />
      <stop
         offset="0.54"
         stop-color="gray"
         stop-opacity="0.12"
         id="stop91814" />
      <stop
         offset="1"
         stop-color="gray"
         stop-opacity="0.1"
         id="stop91816" />
    </linearGradient>
  </defs>
  <title
     id="title91821">book lover</title>
  <path
     d="m 823.91202,381.92845 c 0,0 -38,-2.29 -33.56,24.37 0,0 -0.89,4.71 3.38,6.85 0,0 0.07,-2 3.9,-1.31 a 17.62,17.62 0 0 0 4.14,0.2 8.59,8.59 0 0 0 5,-2.08 v 0 c 0,0 10.7,-4.42 14.85,-21.9 0,0 3.08,-3.81 3,-4.79 l -6.42,2.74 c 0,0 2.19,4.63 0.47,8.48 0,0 -0.21,-8.31 -1.44,-8.12 -0.25,0 -3.34,1.61 -3.34,1.61 0,0 3.77,8.07 0.93,13.93 0,0 1.08,-9.94 -2.11,-13.35 l -4.52,2.64 c 0,0 4.41,8.33 1.42,15.13 0,0 0.77,-10.43 -2.37,-14.49 l -4.09,3.2 c 0,0 4.14,8.21 1.61,13.85 0,0 -0.33,-12.14 -2.5,-13.06 0,0 -3.58,3.16 -4.13,4.46 0,0 2.84,6 1.08,9.11 0,0 -1.08,-8.09 -2,-8.13 0,0 -3.57,5.36 -3.94,9 a 19.4,19.4 0 0 1 3.08,-9.54 10.76,10.76 0 0 0 -5.47,2.83 c 0,0 0.56,-3.79 6.35,-4.12 0,0 2.95,-4.07 3.74,-4.32 0,0 -5.76,-0.48 -9.26,1.07 0,0 3.08,-3.57 10.31,-2 l 4,-3.3 c 0,0 -7.59,-1 -10.8,0.11 0,0 3.7,-3.16 11.89,-0.86 l 4.4,-2.63 c 0,0 -6.47,-1.39 -10.32,-0.89 0,0 4.06,-2.19 11.61,0.18 l 3.15,-1.41 c 0,0 -4.74,-0.93 -6.13,-1.08 -1.39,-0.15 -1.46,-0.53 -1.46,-0.53 a 16.39,16.39 0 0 1 8.9,1 c 0,0 6.77,-2.43 6.65,-2.85 z"
     fill="#6c63ff"
     opacity="0.1"
     id="path91999" />
  <path
     d="m 311.1113,271.88525 c 0,0 -38,-2.29 -33.56,24.37 0,0 -0.89,4.71 3.38,6.85 0,0 0.07,-2 3.9,-1.31 a 17.62,17.62 0 0 0 4.14,0.2 8.59,8.59 0 0 0 5,-2.08 v 0 c 0,0 10.7,-4.42 14.85,-21.9 0,0 3.08,-3.81 3,-4.79 l -6.42,2.74 c 0,0 2.19,4.63 0.47,8.48 0,0 -0.21,-8.31 -1.44,-8.12 -0.25,0 -3.34,1.61 -3.34,1.61 0,0 3.77,8.07 0.93,13.93 0,0 1.08,-9.94 -2.11,-13.35 l -4.52,2.64 c 0,0 4.41,8.33 1.42,15.13 0,0 0.77,-10.43 -2.37,-14.49 l -4.09,3.2 c 0,0 4.14,8.21 1.61,13.85 0,0 -0.33,-12.14 -2.5,-13.06 0,0 -3.58,3.16 -4.13,4.46 0,0 2.84,6 1.08,9.11 0,0 -1.08,-8.09 -2,-8.13 0,0 -3.57,5.36 -3.94,9 a 19.4,19.4 0 0 1 3.08,-9.54 10.76,10.76 0 0 0 -5.47,2.83 c 0,0 0.56,-3.79 6.35,-4.12 0,0 2.95,-4.07 3.74,-4.32 0,0 -5.76,-0.48 -9.26,1.07 0,0 3.08,-3.57 10.31,-2 l 4,-3.3 c 0,0 -7.59,-1 -10.8,0.11 0,0 3.7,-3.16 11.89,-0.86 l 4.4,-2.63 c 0,0 -6.47,-1.39 -10.32,-0.89 0,0 4.06,-2.19 11.61,0.18 l 3.15,-1.41 c 0,0 -4.74,-0.93 -6.13,-1.08 -1.39,-0.15 -1.46,-0.53 -1.46,-0.53 a 16.39,16.39 0 0 1 8.9,1 c 0,0 6.77,-2.43 6.65,-2.85 z"
     fill="#6c63ff"
     opacity="0.1"
     id="path91999-9" />
  <path
     d="m 353.31202,437.04845 c 0,0 -16.56,-34.33 -37.64,-17.41 0,0 -4.55,1.52 -4.33,6.29 0,0 1.75,-0.91 3,2.77 a 17.72,17.72 0 0 0 1.84,3.7 8.63,8.63 0 0 0 4.29,3.4 v 0 c 0,0 9.07,7.18 26.36,2.28 0,0 4.83,0.83 5.62,0.25 l -5.52,-4.27 c 0,0 -3,4.17 -7.18,4.54 0,0 7.16,-4.23 6.39,-5.21 -0.16,-0.2 -3,-2.13 -3,-2.13 0,0 -5.21,7.23 -11.71,7.6 0,0 9.2,-3.9 10.62,-8.35 l -4.5,-2.66 c 0,0 -5.13,7.92 -12.52,8.62 0,0 9.48,-4.41 11.49,-9.13 l -4.78,-2 c 0,0 -5.15,7.62 -11.31,8.17 0,0 10.44,-6.21 10.18,-8.56 0,0 -4.51,-1.58 -5.91,-1.43 0,0 -3.82,5.39 -7.42,5.39 0,0 6.53,-4.89 6.13,-5.68 0,0 -6.42,-0.5 -9.8,1 a 19.47,19.47 0 0 1 9.83,-2 10.77,10.77 0 0 0 -5.14,-3.39 c 0,0 3.58,-1.36 6.69,3.53 0,0 5,0.59 5.59,1.16 0,0 -2.39,-5.26 -5.44,-7.55 0,0 4.62,0.93 6.73,8 l 4.85,1.92 c 0,0 -2.79,-7.12 -5.36,-9.37 0,0 4.56,1.69 6.55,10 l 4.44,2.56 c 0,0 -1.93,-6.33 -4.25,-9.44 0,0 3.89,2.48 5.5,10.22 l 2.77,2.06 c 0,0 -1.5,-4.59 -2,-5.87 -0.5,-1.28 -0.25,-1.54 -0.25,-1.54 a 16.41,16.41 0 0 1 3.48,8.25 c 0,0 5.35,4.58 5.71,4.28 z"
     fill="#6c63ff"
     opacity="0.1"
     id="path92001" />
  <path
     d="m 737.09202,333.42845 c 0,0 -16.55,-34.33 -37.64,-17.41 0,0 -4.54,1.52 -4.33,6.29 0,0 1.76,-0.9 3,2.77 a 17.34,17.34 0 0 0 1.85,3.71 8.58,8.58 0 0 0 4.28,3.39 v 0 c 0,0 9.08,7.18 26.36,2.29 0,0 4.83,0.82 5.63,0.24 l -5.49,-4.28 c 0,0 -3,4.18 -7.17,4.55 0,0 7.15,-4.24 6.38,-5.22 -0.16,-0.2 -3,-2.13 -3,-2.13 0,0 -5.2,7.23 -11.71,7.6 0,0 9.21,-3.9 10.63,-8.34 l -4.57,-2.64 c 0,0 -5.12,7.91 -12.52,8.62 0,0 9.48,-4.42 11.5,-9.14 l -4.79,-2 c 0,0 -5.15,7.63 -11.3,8.17 0,0 10.43,-6.21 10.17,-8.55 0,0 -4.5,-1.59 -5.9,-1.43 0,0 -3.82,5.38 -7.43,5.38 0,0 6.54,-4.89 6.14,-5.68 0,0 -6.42,-0.5 -9.81,1 a 19.46,19.46 0 0 1 9.83,-2 10.71,10.71 0 0 0 -5.13,-3.39 c 0,0 3.58,-1.36 6.69,3.53 0,0 5,0.6 5.59,1.17 0,0 -2.39,-5.27 -5.45,-7.56 0,0 4.62,0.94 6.73,8.05 l 4.86,1.92 c 0,0 -2.79,-7.13 -5.36,-9.38 0,0 4.56,1.69 6.54,10 l 4.45,2.56 c 0,0 -1.94,-6.32 -4.26,-9.44 0,0 3.9,2.48 5.5,10.22 l 2.77,2.06 c 0,0 -1.49,-4.59 -2,-5.87 -0.51,-1.28 -0.25,-1.53 -0.25,-1.53 a 16.45,16.45 0 0 1 3.47,8.25 c 0,0 5.43,4.54 5.74,4.22 z"
     fill="#6c63ff"
     opacity="0.1"
     id="path92003" />
  <path
     d="m 789.98202,503.23845 c 0,0 -16.55,-34.34 -37.67,-17.42 0,0 -4.54,1.52 -4.33,6.29 0,0 1.76,-0.9 3,2.77 a 17.33,17.33 0 0 0 1.84,3.71 8.58,8.58 0 0 0 4.28,3.39 v 0 c 0,0 9.08,7.19 26.37,2.29 0,0 4.82,0.83 5.62,0.24 l -5.52,-4.27 c 0,0 -3,4.18 -7.18,4.55 0,0 7.15,-4.24 6.38,-5.22 -0.16,-0.2 -3,-2.13 -3,-2.13 0,0 -5.2,7.23 -11.71,7.61 0,0 9.21,-3.91 10.63,-8.35 l -4.51,-2.66 c 0,0 -5.12,7.92 -12.52,8.62 0,0 9.48,-4.42 11.5,-9.14 l -4.79,-2 c 0,0 -5.15,7.62 -11.3,8.17 0,0 10.44,-6.21 10.18,-8.56 0,0 -4.51,-1.59 -5.91,-1.43 0,0 -3.82,5.38 -7.43,5.38 0,0 6.54,-4.89 6.14,-5.68 0,0 -6.42,-0.5 -9.81,1 a 19.52,19.52 0 0 1 9.84,-2 10.69,10.69 0 0 0 -5.14,-3.39 c 0,0 3.58,-1.37 6.69,3.53 0,0 5,0.59 5.59,1.16 0,0 -2.39,-5.26 -5.44,-7.56 0,0 4.62,0.94 6.73,8.05 l 4.85,1.92 c 0,0 -2.79,-7.13 -5.36,-9.37 0,0 4.56,1.68 6.54,10 l 4.45,2.55 c 0,0 -1.94,-6.32 -4.26,-9.44 0,0 3.9,2.48 5.51,10.23 l 2.77,2 c 0,0 -1.5,-4.59 -2,-5.87 -0.5,-1.28 -0.25,-1.53 -0.25,-1.53 a 16.35,16.35 0 0 1 3.47,8.25 c 0,0 5.44,4.61 5.75,4.31 z"
     fill="#6c63ff"
     opacity="0.1"
     id="path92005" />
  <path
     d="m 693.85202,543.13845 c -6.54,-17.77 -42.54,-19.44 -58.16,-14.91 -11.1,3.23 -34.5,6.87 -47,8.7 l -0.81,-0.77 c 1.62,-0.48 1.66,-1.66 1.46,-3.41 a 53.37,53.37 0 0 1 0.1,-6.92 c 7.66,2.38 14.48,-3.25 14.48,-3.25 v 0 c 9,-4 6.58,-21.12 8.3,-25.8 1.29,-3.5 2.68,-24.12 3.3,-34.4 h 0.13 l 0.07,-3.45 c 0.09,-1.49 0.13,-2.36 0.13,-2.36 0,0 0.88,-25.14 2.6,-30.23 1.6,-4.68 2.9,-28.26 3.1,-32 0,-0.32 0,-0.49 0,-0.49 l -0.13,-2.18 c 0.09,-1.59 0.13,-3.36 0.12,-5.22 0,-8.55 -0.89,-19.32 -1,-21.06 0,-0.25 0,-0.55 0,-0.91 0.07,-3.65 -0.39,-21.93 -15.94,-28.84 -5.73,-2.56 -12.62,-5.61 -19.29,-8.58 -1.72,-14.85 -5.65,-29.62 -5.31,-44.58 0,-2.25 0.2,-4.5 0.42,-6.74 0,0.65 -0.07,1.31 -0.08,2 0,1.45 0,2.91 0,4.36 0.59,-18.71 7.66,-37.52 7,-55.83 -0.06,1.79 -0.19,3.59 -0.36,5.39 a 58.13,58.13 0 0 0 -1.92,-18.39 c -0.6,-2.11 -1.41,-4.29 -3.14,-5.7 a 12.93,12.93 0 0 0 -5.48,-2.17 110.21,110.21 0 0 0 -14.39,-2.68 22.22,22.22 0 0 0 -3.24,-6.29 c -10.14,-13.92 -25.16,-27 -42.92,-30 -8.91,-1.5 -19.16,-0.25 -25.22,6.12 a 18.92,18.92 0 0 0 -1.78,1.8 c -3.26,3.89 -4.66,9 -8,12.88 -0.22,0.26 -0.47,0.5 -0.71,0.75 -6.54,5.85 -16.73,7.07 -24,12.32 a 28.81,28.81 0 0 0 -3.59,3.13 60.88,60.88 0 0 0 -7.84,9.53 c -3.27,4.6 -6.63,9.39 -7.67,14.88 -2.09,11 5.4,21.43 6.79,32.5 3.1,24.77 -24.31,46.75 -19.12,71.19 a 32.6,32.6 0 0 0 8.82,15.83 c -10.69,9.68 -19.79,19.07 -19.79,19.07 v 0.56 h -1.69 l 0.17,2 h -0.17 l 0.93,10.85 -0.93,15.8 c 0,0 0,0.17 0,0.49 v 0.08 0.43 c 0,0 0,0.17 0,0.49 h 0.06 c 0.31,5.79 1.54,26.61 3,31 1.72,5.09 2.59,30.23 2.59,30.23 0,0 1.9,35.53 3.64,40.23 1.74,4.7 -0.73,21.77 8.3,25.8 v 0 a 19,19 0 0 0 9.07,3.76 c -0.46,3.74 -0.17,6.45 1.32,7.3 a 4.36,4.36 0 0 0 2.1,0.6 22.29,22.29 0 0 0 -1.63,2.85 42.36,42.36 0 0 1 -10.48,-2.47 c -9.7,-4 -41.89,-13 -51.24,-6.67 -9.35,6.33 -31.85,12.07 -21.46,37.55 10.39,25.48 15.23,26.12 15.23,26.12 a 37,37 0 0 1 8.31,8.35 c 3.12,4.69 32.19,15.42 39.46,15.42 a 71.19,71.19 0 0 1 9.25,0.46 c 0,0 -7.89,6.92 -6.84,10.94 1.05,4.02 -2.4,36.2 -2.4,36.2 0,0 8,8.06 11.42,-2.51 l 0.12,0.16 c 0.64,0.87 4.1,4.8 10.61,-0.16 a 59.48,59.48 0 0 1 8.46,-5.36 l 31.52,-4.46 a 89.24,89.24 0 0 1 9.87,-0.07 c 5,0.41 9.91,-2.55 13,-4.84 6.53,2.48 13.87,5.19 17.36,6.18 7.08,2 39.62,10.73 47.23,8 a 10.57,10.57 0 0 0 4.1,-2.92 l 7.26,0.23 -3.4,0.68 c 0,0 6.62,0.11 15.62,0.23 l -0.38,0.22 11.29,-0.1 c 16.52,0.15 35.08,0.2 37.52,-0.35 3.82,-0.85 23.67,-0.25 29.52,0 h 1.63 c 0,0 21.81,-4.35 12.81,-26.48 -6.92,-17 -28.19,-21.94 -37.63,-23.3 2.66,-0.53 4.95,-0.94 6.47,-1.18 6.59,-1 19.39,-7 20.43,-9.05 1.04,-2.05 11.77,-8 14.54,-11.39 2.77,-3.39 10.68,-27.42 4.11,-45.19 z m -180.65,49.73 -1.07,0.35 -0.72,0.24 -1.38,1.36 c -1.1,-0.74 -2.28,-1.52 -3.51,-2.32 2.17,0.13 4.4,0.26 6.68,0.37 z m 95.31,28.18 z"
     fill="url(#3cf802be-0480-4c68-848a-073112220499)"
     id="path92021"
     style="fill:url(#3cf802be-0480-4c68-848a-073112220499)" />
  <path
     d="m 576.96202,487.42845 c 0,0 15.3,40 24,36 8.7,-4 6.34,-21 8,-25.66 1.66,-4.66 3.5,-40 3.5,-40 0,0 0.84,-25 2.5,-30.06 1.54,-4.65 2.79,-28.1 3,-31.79 0,-0.32 0,-0.49 0,-0.49 l -1.65,-29 -9.34,-2.33 -21.66,8 -3,17.13 -1.17,6.69 -0.5,2.85 z"
     fill="#be6f72"
     id="path92023" />
  <path
     d="m 582.00202,480.72845 c 0,0 14.6,11.95 19,13 4.4,1.05 7.1,10.37 7.1,10.37"
     opacity="0.1"
     id="path92025" />
  <path
     d="m 457.31202,489.17845 c 0,0 -15.3,40 -24,36 -8.7,-4 -6.34,-21 -8,-25.66 -1.66,-4.66 -3.5,-40 -3.5,-40 0,0 -0.84,-25 -2.5,-30.06 -1.54,-4.65 -2.79,-28.1 -3,-31.79 0,-0.32 0,-0.49 0,-0.49 l 1.66,-29 9.34,-2.33 21.66,8 3,17.13 1.17,6.69 0.5,2.85 z"
     fill="#be6f72"
     id="path92027" />
  <rect
     x="522.79205"
     y="275.11844"
     width="34.150002"
     height="53.23"
     fill="#3e373a"
     id="rect92029" />
  <rect
     x="522.79205"
     y="275.11844"
     width="34.150002"
     height="53.23"
     opacity="0.1"
     id="rect92031" />
  <path
     d="m 451.31202,529.01845 c 0,0 -11.67,12.83 -7.34,15.16 4.33,2.33 32.34,46 32.34,46 0,0 92,11.33 109.35,-5.67 17.35,-17 17,-47.37 17,-47.37 0,0 -13.94,3 -15.46,1.37 -1.52,-1.63 -9.87,-9.49 -9.87,-9.49 0,0 -118.02,-7.16 -126.02,0 z"
     fill="#4b4b5b"
     id="path92033" />
  <path
     d="m 451.31202,529.01845 c 0,0 -11.67,12.83 -7.34,15.16 4.33,2.33 32.34,46 32.34,46 0,0 92,11.33 109.35,-5.67 17.35,-17 17,-47.37 17,-47.37 0,0 -13.94,3 -15.46,1.37 -1.52,-1.63 -9.87,-9.49 -9.87,-9.49 0,0 -118.02,-7.16 -126.02,0 z"
     opacity="0.02"
     id="path92035" />
  <path
     d="m 616.93202,366.84845 -30,24 -9.07,0.66 -3.33,0.24 -55.93,4.1 -58,-4.24 -8.63,-0.63 -11,-0.8 -23,-22 c 0,0 16.28,-17.44 30.54,-29.21 5.62,-4.65 10.93,-8.41 14.8,-9.89 l 0.66,-0.23 a 16.46,16.46 0 0 0 6.34,-4.42 c 11.26,-11.61 21.67,-40.26 21.67,-40.26 0,0 49.67,-25.66 43.67,8 -6,33.66 22.33,25.34 22.33,25.34 l 9.34,4.26 3.69,1.69 9.41,4.31 21.23,9.74 c 16.66,7.67 15.28,29.34 15.28,29.34 z"
     fill="#be6f72"
     id="path92037" />
  <circle
     cx="516.27203"
     cy="266.90845"
     r="44.669998"
     opacity="0.1"
     id="circle92039" />
  <path
     d="m 617.00202,398.66845 h -200.69 c 0,-0.32 0,-0.49 0,-0.49 l 1.66,-29 c 0,0 16.28,-17.44 30.54,-29.21 l 126,-5 5.86,-6.18 21.23,9.74 c 16.67,7.66 15.33,29.33 15.33,29.33 0,0 2.28,25.11 0.07,30.81 z"
     opacity="0.1"
     id="path92041" />
  <path
     d="m 617.00202,397.66845 h -200.69 c 0,-0.32 0,-0.49 0,-0.49 l 1.66,-29 c 0,0 16.28,-17.44 30.54,-29.21 l 126,-5 5.86,-6.18 21.23,9.74 c 16.67,7.66 15.33,29.33 15.33,29.33 0,0 2.28,25.11 0.07,30.81 z"
     fill="#e7c7ca"
     id="path92043" />
  <path
     d="m 484.10202,316.34845 c 0,0 31.66,40.34 73.83,-0.83 42.17,-41.17 4.67,91.83 4.67,91.83 l -91,10.8 z"
     opacity="0.1"
     id="path92045" />
  <path
     d="m 484.10202,318.34845 c 0,0 31.66,40.34 73.83,-0.83 42.17,-41.17 4.67,91.83 4.67,91.83 l -91,10.8 z"
     fill="#e7c7ca"
     id="path92047" />
  <path
     d="m 570.96202,325.42845 3.35,51.09 3.59,17 2.74,13 c 0,0 7,100 5,105 -2,5 1,9 1.42,11.66 0.42,2.66 -0.42,9.34 -0.09,12.34 0.33,3 0,4.33 -7.66,3.26 -7.66,-1.07 -18.34,-2.93 -18.34,-2.93 0,0 -27,2 -36.33,-1.33 -9.33,-3.33 -27,-3.34 -27,-3.34 0,0 -26.67,0.67 -35.33,-0.33 -8.66,-1 -13.34,10.67 -19,7.33 -5.66,-3.34 6.66,-35.66 10.66,-45 4,-9.34 -5.33,-33 -5.33,-33 l 12,-66.57 2.67,-15.09 v -47.44 l 0.66,-0.23 a 16.46,16.46 0 0 0 6.34,-4.42 l 3,47.74 94,3.34 v -53.73"
     opacity="0.1"
     id="path92049" />
  <path
     d="m 570.96202,323.42845 3.35,51.09 3.59,17 2.74,13 c 0,0 7,100 5,105 -2,5 1,9 1.42,11.66 0.42,2.66 -0.42,9.34 -0.09,12.34 0.33,3 0,4.33 -7.66,3.26 -7.66,-1.07 -18.34,-2.93 -18.34,-2.93 0,0 -27,2 -36.33,-1.33 -9.33,-3.33 -27,-3.34 -27,-3.34 0,0 -26.67,0.67 -35.33,-0.33 -8.66,-1 -13.34,10.67 -19,7.33 -5.66,-3.34 6.66,-35.66 10.66,-45 4,-9.34 -5.33,-33 -5.33,-33 l 12,-66.57 2.67,-15.09 v -47.44 l 0.66,-0.23 a 16.46,16.46 0 0 0 6.34,-4.42 l 3,47.74 94,3.34 v -53.73"
     fill="#e7c7ca"
     id="path92051" />
  <path
     d="m 581.77202,216.80845 c -0.57,-2.09 -1.36,-4.26 -3,-5.66 a 12.28,12.28 0 0 0 -5.28,-2.16 104.32,104.32 0 0 0 -13.88,-2.66 22.22,22.22 0 0 0 -3,-6.23 c -9.8,-13.84 -24.3,-26.89 -41.36,-29.84 -8.93,-1.55 -19.28,-0.16 -25,6.88 -3.14,3.87 -4.49,9 -7.66,12.8 -6.11,7.38 -17.14,8.29 -24.84,14 -4.11,3 -7.09,7.35 -10,11.57 -3.15,4.57 -6.39,9.33 -7.39,14.79 -2,10.91 5.21,21.31 6.54,32.32 3,24.63 -23.4,46.48 -18.41,70.78 2.91,14.17 16,24.15 29.54,29.21 4.77,1.79 10.22,3.57 12.45,8.15 1,2 1.17,4.31 2.11,6.33 3.16,6.74 13.55,7 19.13,2.09 5.58,-4.91 7.34,-12.85 8,-20.26 2.68,-32.36 -10.28,-64.33 -8.77,-96.77 0.45,-9.81 3.21,-20.94 12,-25.38 11.83,-6 26.06,4 39.08,2.09 a 77.53,77.53 0 0 1 3.74,47.31 c -2.07,8.63 -5.65,17 -5.91,25.9 -0.39,13.55 6.92,25.93 13.24,37.91 a 20.17,20.17 0 0 1 2.67,7.31 17.62,17.62 0 0 1 -1.43,7.65 c -3.57,9.61 -9.73,18.53 -10.43,28.76 a 4.65,4.65 0 0 0 0.75,3.42 4.3,4.3 0 0 0 2.58,1.16 c 10.8,1.85 20.14,-7.72 25.41,-17.33 a 81.24,81.24 0 0 0 10.02,-34.52 c 1.09,-20.36 -6.21,-40.39 -5.76,-60.77 0.52,-23.17 10.99,-46.5 4.86,-68.85 z"
     opacity="0.1"
     id="path92053" />
  <path
     d="m 582.77202,215.80845 c -0.57,-2.09 -1.36,-4.26 -3,-5.66 a 12.28,12.28 0 0 0 -5.28,-2.16 104.32,104.32 0 0 0 -13.88,-2.66 22.22,22.22 0 0 0 -3,-6.23 c -9.8,-13.84 -24.3,-26.89 -41.36,-29.84 -8.93,-1.55 -19.28,-0.16 -25,6.88 -3.14,3.87 -4.49,9 -7.66,12.8 -6.11,7.38 -17.14,8.29 -24.84,14 -4.11,3 -7.09,7.35 -10,11.57 -3.15,4.57 -6.39,9.33 -7.39,14.79 -2,10.91 5.21,21.31 6.54,32.32 3,24.63 -23.4,46.48 -18.41,70.78 2.91,14.17 16,24.15 29.54,29.21 4.77,1.79 10.22,3.57 12.45,8.15 1,2 1.17,4.31 2.11,6.33 3.16,6.74 13.55,7 19.13,2.09 5.58,-4.91 7.34,-12.85 8,-20.26 2.68,-32.36 -10.28,-64.33 -8.77,-96.77 0.45,-9.81 3.21,-20.94 12,-25.38 11.83,-6 26.06,4 39.08,2.09 a 77.53,77.53 0 0 1 3.74,47.31 c -2.07,8.63 -5.65,17 -5.91,25.9 -0.39,13.55 6.92,25.93 13.24,37.91 a 20.17,20.17 0 0 1 2.67,7.31 17.62,17.62 0 0 1 -1.43,7.65 c -3.57,9.61 -9.73,18.53 -10.43,28.76 a 4.65,4.65 0 0 0 0.75,3.42 4.3,4.3 0 0 0 2.58,1.16 c 10.8,1.85 20.14,-7.72 25.41,-17.33 a 81.24,81.24 0 0 0 10.02,-34.52 c 1.09,-20.36 -6.21,-40.39 -5.76,-60.77 0.52,-23.17 10.99,-46.5 4.86,-68.85 z"
     fill="#3e373a"
     id="path92055" />
  <polygon
     points="615.77,464.58 585.38,467.47 581.79,492.73 621.46,494 "
     fill="#c3c7d9"
     id="polygon92057"
     transform="translate(-21.107984,165.84845)" />
  <path
     d="m 683.60202,588.84845 c -2.67,3.33 -13,9.33 -14,11.33 -1,2 -13.33,8 -19.67,9 -6.34,1 -26.33,5.34 -30,7.67 -2.63,1.68 -23.74,7 -37.61,9.95 a 106.75,106.75 0 0 1 -11.39,2.05 c -6,0.33 -71.66,-22 -71.66,-22 l 12.66,-13 0.7,-0.24 c 3.58,-1.21 20.12,-6.8 29.3,-9.46 10.34,-3 22.34,-15.33 22.34,-15.33 0,0 17.66,-6 20,-6.67 2.34,-0.67 -6,-23.33 -6,-23.33 0,0 38.33,-5.32 53.33,-9.83 15,-4.51 49.67,-2.84 56,14.83 6.33,17.67 -1.29,41.7 -4,45.03 z"
     fill="#4b4b5b"
     id="path92059" />
  <path
     d="m 508.93202,645.17845 c 0,0 -7.66,8 -15.33,7.34 -7.67,-0.66 -34.49,2 -34.49,2 a 53.77,53.77 0 0 0 -13.51,7.83 c -6.27,4.94 -9.6,1 -10.22,0.16 l -0.11,-0.16 c -3.34,10.51 -11,2.5 -11,2.5 0,0 3.33,-32 2.31,-36 -1.02,-4 6.59,-10.87 6.59,-10.87 l 9,-2.29 22.8,-5.84 32.67,11.33 z"
     fill="#e7c7ca"
     id="path92061" />
  <path
     d="m 442.13202,615.68845 -6.75,46.82 -0.11,-0.16 c -3.34,10.51 -11,2.5 -11,2.5 0,0 3.33,-32 2.31,-36 -1.02,-4 6.59,-10.87 6.59,-10.87 z"
     opacity="0.1"
     id="path92063" />
  <path
     d="m 489.31202,482.50845 c 0,0 17.66,6 33,0"
     opacity="0.1"
     id="path92065" />
  <path
     d="m 549.60202,493.84845 c 0,0 7.33,3.66 13,0"
     opacity="0.1"
     id="path92067" />
  <path
     d="m 549.60202,502.52845 c 0,0 12.33,1.65 14.67,-1.68"
     opacity="0.1"
     id="path92069" />
  <path
     d="m 545.60202,521.17845 c 0,0 23.16,-3 28.91,-7"
     opacity="0.1"
     id="path92071" />
  <path
     d="m 474.93202,514.17845 c 0,0 13,7.33 22.67,7"
     opacity="0.1"
     id="path92073" />
  <path
     d="m 582.31202,626.79845 a 106.75,106.75 0 0 1 -11.39,2.05 c -6,0.33 -71.66,-22 -71.66,-22 l 12.66,-13 0.7,-0.24 c 2,1.41 3.64,2.62 4.81,3.54 5.51,4.34 10.83,-1.33 12.83,-1.33 2,0 19.33,14.33 19.33,14.33 0,0 16,3.67 18.67,7 2.67,3.33 12,2.67 13.66,5 0.5,0.72 0.56,2.49 0.39,4.65 z"
     opacity="0.1"
     id="path92075" />
  <path
     d="m 459.11202,540.17845 c 0,0 -16.18,0.93 -25.51,-3 -9.33,-3.93 -40.33,-13 -49.33,-6.63 -9,6.37 -30.67,12 -20.67,37.34 10,25.34 14.67,26 14.67,26 a 36.1,36.1 0 0 1 8,8.3 c 3,4.67 31,15.33 38,15.33 7,0 19.33,0 36.66,12 17.33,12 33,13.34 33,13.34 0,0 22,9 28.85,11 6.85,2 38.15,10.66 45.49,8 7.34,-2.66 12,-19.34 12,-19.34 0,0 3.33,-15 1.66,-17.33 -1.67,-2.33 -11,-1.67 -13.66,-5 -2.66,-3.33 -18.67,-7 -18.67,-7 0,0 -17.29,-14.34 -19.29,-14.34 -2,0 -7.32,5.66 -12.83,1.33 a 292.69,292.69 0 0 0 -34.51,-22 c -12.66,-6.67 -23.86,-38 -23.86,-38 z"
     fill="#4b4b5b"
     id="path92077" />
  <path
     d="m 426.58202,549.84845 a 19.1,19.1 0 0 1 16.39,4.33 c 8,6.67 34.92,20.06 34.92,20.06"
     opacity="0.1"
     id="path92079" />
  <path
     d="m 626.60202,549.42845 c 0,0 -35.67,5.4 -42.33,12.73"
     opacity="0.1"
     id="path92081" />
  <path
     d="m 667.60202,659.84845 h -1.57 c -5.64,-0.2 -24.75,-0.8 -28.43,0 -4.33,1 -61.67,0 -61.67,0 l 11.21,-2.33 c 0,0 -4.16,-14.58 -1.52,-15.79 0,0 -15,-9.88 -3.69,-16.55 11.31,-6.67 23.5,-3.86 23.5,-3.86 l 28.39,-9.62 5.45,-1.85 c 0,0 32,1.67 40.66,23.67 8.66,22 -12.33,26.33 -12.33,26.33 z"
     fill="#e7c7ca"
     id="path92083" />
  <path
     d="m 667.60202,659.84845 h -1.57 c 9.31,-7.68 30.37,-31.06 -32.21,-48.1 l 5.45,-1.85 c 0,0 32,1.67 40.66,23.67 8.66,22 -12.33,26.28 -12.33,26.28 z"
     opacity="0.1"
     id="path92085" />
  <circle
     cx="608.77203"
     cy="632.17847"
     r="1.75"
     fill="#4b4b5b"
     id="circle92087" />
  <circle
     cx="598.60205"
     cy="635.06848"
     r="1.75"
     fill="#4b4b5b"
     id="circle92089" />
  <g
     opacity="0.1"
     id="g92103"
     transform="translate(-21.107984,165.84845)">
    <path
       d="M 658.74,142.83 A 77.59,77.59 0 0 0 653,110.69 c -13,1.94 -27.24,-8.09 -39.08,-2.09 -8.76,4.44 -11.51,15.57 -12,25.38 -0.12,2.59 -0.14,5.18 -0.09,7.77 0,-0.92 0,-1.85 0.09,-2.77 0.46,-9.81 3.21,-20.94 12,-25.38 11.84,-6 26.06,4 39.08,2.09 a 77.38,77.38 0 0 1 5.74,27.14 z"
       transform="translate(-88.58,-43.42)"
       id="path92091" />
    <path
       d="m 558,141 a 33.32,33.32 0 0 0 -0.13,-6.54 c -1.06,-8.8 -5.87,-17.21 -6.74,-25.79 -1.12,10.35 5.47,20.29 6.74,30.79 C 558,140 558,140.48 558,141 Z"
       transform="translate(-88.58,-43.42)"
       id="path92093" />
    <path
       d="m 610.69,230.74 c -0.62,7.42 -2.37,15.35 -8,20.27 -5.63,4.92 -16,4.65 -19.13,-2.09 -1,-2 -1.15,-4.33 -2.12,-6.33 -2.22,-4.58 -7.68,-6.36 -12.45,-8.15 -13.55,-5.07 -26.62,-15 -29.53,-29.21 a 30.68,30.68 0 0 1 -0.53,-3.9 31.52,31.52 0 0 0 0.53,8.9 c 2.91,14.17 16,24.14 29.53,29.21 4.77,1.79 10.23,3.57 12.45,8.15 1,2 1.17,4.31 2.12,6.33 3.15,6.74 13.54,7 19.13,2.09 5.59,-4.91 7.33,-12.85 8,-20.27 A 114.29,114.29 0 0 0 611,224 c 0,2.27 -0.13,4.51 -0.31,6.74 z"
       transform="translate(-88.58,-43.42)"
       id="path92095" />
    <path
       d="m 687.93,157.49 c 0,1.45 0,2.89 0,4.33 0.56,-18.6 7.38,-37.3 6.71,-55.51 -0.52,16.84 -6.33,34.06 -6.71,51.18 z"
       transform="translate(-88.58,-43.42)"
       id="path92097" />
    <path
       d="m 666.47,232.73 a 12.89,12.89 0 0 0 0.23,-3.61 20,20 0 0 0 -2.67,-7.31 c -5.78,-11 -12.37,-22.26 -13.15,-34.47 0,0.52 -0.07,1 -0.08,1.56 -0.4,13.54 6.91,25.93 13.23,37.91 a 24,24 0 0 1 2.44,5.92 z"
       transform="translate(-88.58,-43.42)"
       id="path92099" />
    <path
       d="m 693.68,218.26 a 81.37,81.37 0 0 1 -10.09,34.52 c -5.28,9.61 -14.61,19.18 -25.42,17.33 a 4.25,4.25 0 0 1 -2.58,-1.17 2.5,2.5 0 0 1 -0.47,-0.78 c -0.12,0.78 -0.22,1.57 -0.28,2.37 a 4.61,4.61 0 0 0 0.75,3.41 4.25,4.25 0 0 0 2.58,1.17 c 10.81,1.85 20.14,-7.72 25.42,-17.33 a 81.37,81.37 0 0 0 10.09,-34.52 c 0.12,-2.34 0.13,-4.67 0.06,-7 -0.02,0.67 -0.02,1.33 -0.06,2 z"
       transform="translate(-88.58,-43.42)"
       id="path92101" />
  </g>
  <path
     d="m 585.62202,641.72845 c 0,0 25.31,10.62 42,-12.88"
     fill="none"
     stroke="#000000"
     stroke-miterlimit="10"
     opacity="0.1"
     id="path92105" />
  <path
     d="m 590.60202,660.28845 c 0,0 20.67,-13.44 47,-0.44"
     fill="none"
     stroke="#000000"
     stroke-miterlimit="10"
     opacity="0.1"
     id="path92107" />
  <path
     d="m 452.24202,657.23845 c 0,0 8.68,-19.58 31.86,-4.65"
     fill="none"
     stroke="#000000"
     stroke-miterlimit="10"
     opacity="0.1"
     id="path92109" />
  <path
     d="m 424.10202,367.67845 17.7,-16 c 0,0 68.63,-4.5 71.47,18.83 0,0 24.33,-27.66 75.5,-21.5 l 21.65,17.24 -59.84,26.26 -58.15,20.17 -42.83,-19.17 z"
     opacity="0.1"
     id="path92111" />
  <path
     d="m 424.10202,368.67845 17.7,-16 c 0,0 68.63,-4.5 71.47,18.83 0,0 24.33,-27.66 75.5,-21.5 l 21.65,17.24 -59.84,26.26 -58.15,20.17 -42.83,-19.17 z"
     fill="#d5d6db"
     id="path92113" />
  <polygon
     points="528.21,302.67 524.61,209.4 524.54,207.83 437.38,204.83 445.21,298.5 "
     opacity="0.1"
     id="polygon92115"
     transform="translate(-21.107984,165.84845)" />
  <polygon
     points="528.21,300.67 524.61,207.4 524.54,205.83 437.38,202.83 445.21,296.5 "
     fill="#6c63ff"
     id="polygon92117"
     transform="translate(-21.107984,165.84845)" />
  <polygon
     points="549.71,309.76 633.38,297.67 635.33,202.83 549.71,215.67 "
     opacity="0.1"
     id="polygon92119"
     transform="translate(-21.107984,165.84845)" />
  <polygon
     points="549.71,307.76 633.38,295.67 635.33,200.83 549.71,213.67 "
     fill="#6c63ff"
     id="polygon92121"
     transform="translate(-21.107984,165.84845)" />
  <path
     d="m 528.60202,381.50845 a 28.8,28.8 0 0 1 -25.11,-6.26 l 3.61,93.26 c 0,0 8.5,9.2 21.5,7.1 z"
     opacity="0.1"
     id="path92127" />
  <path
     d="m 528.60202,379.50845 a 28.8,28.8 0 0 1 -25.11,-6.26 l 3.61,93.26 c 0,0 8.5,9.2 21.5,7.1 z"
     fill="#6c63ff"
     id="path92129" />
  <path
     d="m 528.60202,379.50845 a 28.8,28.8 0 0 1 -25.11,-6.26 l 3.61,93.26 c 0,0 8.5,9.2 21.5,7.1 z"
     opacity="0.1"
     id="path92131" />
  <path
     d="m 530.60202,368.99845 c 0,0 34.83,-10.65 43.91,-9.15"
     opacity="0.1"
     id="path92133" />
  <path
     d="m 491.64202,364.34845 c 0,0 -33.76,-8 -39.4,-5.73"
     opacity="0.1"
     id="path92135" />
  <path
     d="m 552.56202,370.32845 c 0,0 23.29,-8.54 31.71,-4.48"
     opacity="0.1"
     id="path92137" />
  <path
     d="m 540.83202,584.55845 a 76.56,76.56 0 0 1 11.48,-7.13 c 6,-2.89 17,-10.39 17,-10.39"
     opacity="0.1"
     id="path92139" />
  <path
     d="m 452.24202,482.50845 c 0,0 -14.61,11.95 -19,13 -4.39,1.05 -7.1,10.37 -7.1,10.37"
     opacity="0.1"
     id="path92141" />
  <path
     d="m 605.63202,510.72845 -4.66,12.7 c 0,0 -7,6 -14.67,3 -7.67,-3 -14.33,-4.49 -17.67,-7.41 -3.34,-2.92 -8,-17.59 -8,-17.59 0,0 -4.66,-16 -9.33,-20 -4.67,-4 -17,-59.11 0,-53.72 17,5.39 30,55.39 30,55.39 0,0 3,3.66 7.33,4 4.33,0.34 13,-0.67 14.67,3 1.67,3.67 7.33,13.33 2.33,20.63 z"
     fill="#be6f72"
     id="path92143" />
  <path
     d="m 597.46202,487.36845 c 0,0 9.55,6.14 9.51,13.48"
     opacity="0.1"
     id="path92145" />
  <circle
     cx="516.43201"
     cy="264.71844"
     r="44.669998"
     fill="#be6f72"
     id="circle92147" />
  <path
     d="m 494.31473,239.74194 c 4.28781,-0.37977 8.04558,-1.78716 12.14353,-2.59585 9.16897,-1.81843 19.311,-0.57189 28.59072,1.06783 3.55999,0.62998 7.17537,1.34037 10.90941,1.34037 3.73403,0 7.6975,-0.8623 9.60407,-2.68074 1.75627,-1.67099 1.41609,-3.84239 -0.0633,-5.59827 -1.47937,-1.75588 -3.95555,-3.16774 -6.45546,-4.49917 -8.22754,-4.38748 -18.43286,-8.48901 -29.722,-8.04222 -4.54097,0.18319 -8.88416,1.09911 -13.06122,2.11332 a 143.98202,81.31572 0 0 0 -15.33171,4.36066 c -3.80524,1.24655 -10.85403,2.91307 -13.04541,5.1917 -4.98399,5.13361 8.67848,10.03043 16.43136,9.34237 z"
     fill="#3e373a"
     id="path92149"
     style="stroke-width:0.594525" />
  <path
     d="m 555.56246,234.99704 c -1.90657,1.81843 -5.87004,2.68073 -9.60407,2.68073 -3.73404,0 -7.34942,-0.68358 -10.91732,-1.31356 -9.27972,-1.63972 -19.41384,-2.89073 -28.59072,-1.06782 -4.09004,0.80868 -7.85572,2.23394 -12.14354,2.59138 -6.24976,0.55401 -16.31268,-2.5199 -17.40441,-6.42931 -1.22623,4.51705 10.44265,8.38624 17.40441,7.76967 4.28782,-0.37977 8.0535,-1.78715 12.14354,-2.59138 9.17688,-1.8229 19.311,-0.57189 28.59072,1.06783 3.5679,0.62998 7.17537,1.34037 10.91732,1.31356 3.74195,-0.0268 7.6975,-0.85783 9.60407,-2.68073 a 9.2638979,5.231907 0 0 0 1.10755,-3.26604 8.5281657,4.8163926 0 0 1 -1.10755,1.92567 z"
     opacity="0.1"
     id="path92151"
     style="stroke-width:0.594525" />
  <g
     inkscape:groupmode="layer"
     id="layer4"
     inkscape:label="Layer 1" />
  <g
     inkscape:groupmode="layer"
     id="layer5"
     inkscape:label="Layer 2">
    <g
       transform="matrix(0.00408454,-7.9394535e-4,-9.0283091e-4,-0.00464467,441.18004,438.38734)"
       fill="#3f51b5"
       stroke="none"
       id="g95032"
       style="fill:#d7e3f4;fill-opacity:1">
      <path
         d="m 6335,10893 c -81,-7 -252,-35 -323,-53 -69,-17 -78,-17 -165,-2 -71,13 -155,17 -362,17 -235,-1 -286,-4 -395,-23 -156,-28 -297,-63 -425,-107 -95,-32 -104,-33 -180,-25 -131,15 -442,12 -572,-5 -488,-64 -911,-248 -1278,-556 l -81,-67 -80,5 c -103,7 -196,-9 -300,-52 C 1931,9924 1653,9704 1340,9365 1176,9188 909,8936 817,8873 684,8781 576,8666 472,8505 416,8419 312,8203 275,8095 259,8051 214,7954 173,7879 132,7804 83,7698 63,7644 31,7556 27,7532 22,7424 17,7287 28,7239 81,7155 l 31,-48 -41,-87 c -77,-162 -89,-326 -38,-510 62,-220 159,-387 386,-661 29,-36 41,-62 50,-110 27,-139 98,-306 182,-430 255,-375 763,-656 1423,-784 72,-14 134,-29 137,-33 3,-4 14,-27 23,-51 22,-58 65,-118 136,-194 54,-59 58,-66 69,-134 6,-39 15,-83 21,-98 5,-14 10,-70 10,-123 0,-90 3,-103 34,-169 60,-126 176,-233 401,-373 55,-34 159,-106 230,-160 305,-230 613,-381 940,-461 219,-53 296,-60 726,-62 387,-2 397,-1 574,26 99,15 248,41 330,57 83,17 159,30 171,30 15,0 26,-13 43,-54 34,-82 139,-262 203,-346 80,-106 218,-249 322,-333 79,-64 97,-85 159,-187 225,-369 592,-1044 681,-1255 94,-220 144,-303 250,-413 77,-81 167,-139 263,-171 75,-25 120,-26 235,-5 135,25 170,64 169,188 0,91 -23,173 -122,454 -118,331 -136,402 -106,402 6,0 50,-9 97,-21 237,-56 327,-69 496,-69 91,0 229,-7 307,-16 228,-26 425,-15 662,34 351,74 507,119 693,201 380,168 677,466 732,736 10,47 22,70 56,108 59,66 90,135 110,247 18,97 16,124 -23,288 -5,21 -3,22 73,22 399,2 698,89 945,274 418,315 656,917 676,1711 6,239 -16,729 -43,965 -54,470 -161,811 -322,1026 -49,65 -66,99 -97,194 -103,316 -287,601 -462,716 -45,30 -87,63 -93,74 -5,10 -10,45 -10,77 0,187 -97,466 -228,654 -120,172 -320,367 -485,474 -40,26 -94,61 -121,78 -42,28 -52,41 -71,94 -34,94 -80,164 -190,287 -56,61 -133,154 -171,206 -89,120 -136,174 -248,279 -322,303 -824,550 -1401,691 -102,24 -230,65 -320,100 -328,129 -587,180 -925,185 l -205,3 -95,45 c -179,86 -391,145 -601,167 -89,9 -285,11 -374,3 z m 529,-102 c 110,-23 296,-78 311,-92 5,-5 -3,-9 -21,-9 -39,0 -160,-34 -229,-65 -41,-18 -86,-53 -158,-123 -103,-100 -165,-146 -210,-157 -22,-6 -28,0 -57,49 -78,138 -212,259 -364,332 l -89,42 39,10 c 21,6 73,15 114,21 41,6 86,13 100,15 14,3 124,3 245,1 172,-3 242,-8 319,-24 z m -1244,-11 c 0,-5 -6,-10 -13,-10 -7,0 -54,-20 -104,-44 -93,-45 -128,-74 -225,-186 l -56,-65 -79,82 c -92,95 -137,120 -244,129 -51,5 -67,10 -54,15 35,14 256,57 355,68 171,20 420,26 420,11 z m 364,-96 c 122,-32 233,-99 338,-207 60,-62 77,-89 167,-272 84,-169 107,-208 138,-231 21,-15 42,-31 47,-35 5,-5 1,-20 -9,-36 -31,-49 -156,-203 -165,-203 -4,0 -10,23 -12,50 -6,63 -20,79 -188,211 -69,54 -159,126 -200,159 -67,54 -161,109 -243,139 -26,10 -29,9 -43,-24 -7,-19 -14,-37 -14,-40 0,-2 40,-25 89,-49 49,-25 131,-79 182,-121 52,-42 139,-111 195,-154 139,-109 137,-107 131,-158 -8,-71 -63,-146 -249,-339 -166,-172 -181,-191 -222,-277 -42,-87 -89,-219 -119,-332 l -13,-50 -48,75 c -63,96 -167,235 -250,333 -58,66 -69,76 -86,67 -10,-6 -21,-14 -24,-19 -3,-5 44,-74 106,-153 109,-140 232,-317 225,-324 -6,-6 -139,41 -193,69 -28,14 -88,51 -134,82 -78,54 -82,56 -101,39 -33,-30 -33,-31 89,-115 74,-51 205,-119 230,-119 39,0 84,-35 118,-93 20,-34 42,-66 49,-72 11,-9 25,-100 52,-335 l 5,-45 -37,54 c -21,30 -57,96 -81,148 -24,51 -48,93 -54,93 -6,0 -20,-5 -30,-10 -19,-10 -19,-12 6,-78 33,-88 74,-160 144,-252 32,-42 66,-91 76,-110 11,-20 29,-45 40,-56 12,-12 23,-27 26,-34 5,-17 67,-3 75,16 3,8 -13,78 -36,157 -52,182 -60,222 -72,392 -13,190 0,304 50,455 68,202 95,246 255,408 135,138 145,145 266,209 69,36 170,92 225,123 55,32 183,103 283,159 l 184,102 54,-11 c 78,-16 173,-68 296,-160 l 108,-81 -21,-42 c -12,-23 -60,-103 -107,-177 -200,-317 -377,-530 -440,-530 -24,0 -173,76 -322,164 l -95,56 -18,-22 c -10,-11 -16,-25 -14,-31 4,-13 114,-79 278,-167 l 136,-73 43,-101 c 55,-129 56,-179 10,-356 -27,-103 -33,-149 -37,-260 l -4,-135 31,-52 c 31,-55 44,-62 73,-40 16,11 15,16 -11,72 -28,59 -29,63 -21,170 5,69 21,164 45,259 35,142 37,154 26,216 -6,36 -25,100 -43,142 l -31,78 85,85 c 131,131 309,375 452,622 37,65 63,99 70,94 5,-5 72,6 150,25 328,78 406,88 680,88 241,0 254,-1 350,-27 121,-33 216,-78 423,-198 220,-129 278,-155 407,-179 150,-27 258,-57 330,-90 33,-16 91,-42 130,-60 223,-101 459,-305 750,-650 76,-91 182,-214 234,-275 52,-60 126,-153 164,-205 77,-105 164,-200 184,-200 7,0 22,15 33,32 l 20,33 -49,50 c -26,27 -80,93 -118,145 -65,89 -236,293 -496,594 -229,264 -467,459 -689,567 l -48,23 v 63 c 0,37 -9,90 -22,130 -19,59 -32,78 -97,144 -46,46 -121,106 -191,151 -232,150 -417,236 -665,309 -180,53 -336,112 -605,228 -103,45 -178,71 -200,71 -119,0 -389,-148 -445,-244 -13,-23 -37,-95 -54,-161 -17,-66 -41,-140 -54,-165 l -22,-45 -90,-5 c -81,-5 -93,-3 -121,17 -261,184 -297,197 -623,228 -84,8 -156,17 -159,19 -19,20 152,190 235,234 66,35 180,67 347,98 96,18 122,32 98,56 -12,12 -58,5 -252,-38 -195,-44 -308,-113 -438,-268 -59,-70 -65,-74 -87,-64 -14,6 -38,32 -54,57 -32,50 -81,150 -81,166 0,6 28,26 62,45 34,19 112,83 173,141 93,88 123,110 180,133 38,15 89,30 114,32 25,3 206,1 401,-5 275,-8 381,-15 473,-30 211,-37 420,-98 582,-171 39,-17 144,-50 235,-72 303,-73 518,-147 765,-261 406,-187 694,-416 915,-727 30,-41 88,-111 130,-155 122,-128 183,-223 205,-320 11,-50 12,-50 116,-113 404,-245 674,-587 748,-949 11,-54 25,-145 31,-202 6,-57 15,-110 21,-117 6,-7 36,-27 67,-45 31,-18 77,-48 101,-68 45,-37 145,-160 198,-246 72,-114 171,-344 203,-473 6,-23 31,-67 56,-97 140,-173 228,-398 294,-750 35,-191 70,-555 70,-735 v -85 l -22,35 c -11,19 -51,100 -87,180 l -66,145 17,130 c 19,148 23,428 7,525 -17,106 -39,169 -72,207 -50,57 -199,184 -211,180 -6,-2 -43,45 -83,105 -76,114 -176,246 -433,568 -318,399 -422,546 -466,662 -114,302 -234,480 -416,616 -219,165 -557,246 -826,198 -84,-14 -79,-18 -84,71 -4,53 -10,71 -44,120 -84,123 -344,356 -768,686 -141,110 -151,116 -168,100 -10,-9 -18,-22 -18,-29 0,-6 98,-90 218,-185 444,-355 625,-519 685,-621 62,-107 16,-251 -138,-431 l -58,-68 21,-22 22,-22 60,60 c 32,33 84,101 113,150 l 54,90 64,19 c 50,14 98,19 214,19 133,0 161,-3 250,-27 538,-147 757,-498 920,-1476 43,-262 63,-345 126,-523 55,-157 58,-187 30,-324 -28,-134 -83,-233 -196,-351 -111,-117 -189,-181 -372,-306 -190,-130 -213,-157 -414,-496 -161,-271 -395,-521 -644,-687 -96,-64 -238,-205 -233,-231 2,-8 11,-20 20,-26 14,-9 32,4 105,75 48,47 138,119 198,159 77,52 149,113 240,205 173,172 271,298 390,496 185,309 204,331 370,442 162,108 273,198 376,304 161,166 219,282 243,486 l 13,108 -43,122 c -71,197 -92,280 -129,502 -19,116 -47,268 -61,338 -14,70 -24,132 -22,137 2,6 91,-101 198,-237 474,-600 533,-679 587,-781 30,-57 33,-72 33,-145 0,-111 -23,-242 -64,-375 -67,-211 -92,-410 -57,-445 5,-5 20,-7 33,-4 23,6 24,10 26,99 1,93 22,195 86,403 24,81 46,223 46,305 0,80 10,80 98,-6 89,-87 95,-100 114,-244 15,-117 4,-405 -22,-570 -25,-165 -27,-281 -6,-379 20,-90 20,-91 57,-91 34,0 34,3 15,97 -22,107 -28,163 -18,163 12,0 135,-261 174,-369 l 31,-83 -6,-217 c -6,-245 -32,-451 -83,-656 -34,-136 -121,-385 -134,-385 -4,0 -11,15 -14,34 -5,24 -32,63 -90,128 -46,51 -93,101 -104,112 l -21,19 50,56 c 64,71 102,128 178,269 34,62 84,147 112,189 27,42 48,81 46,86 -2,6 -12,16 -23,24 -19,12 -24,8 -76,-65 -30,-43 -81,-128 -113,-188 -74,-139 -120,-207 -192,-285 l -58,-62 -12,169 c -7,116 -20,207 -38,285 -32,132 -104,348 -141,421 -14,27 -23,52 -21,55 3,2 94,20 203,39 109,18 202,38 207,43 5,5 6,18 2,30 -9,29 -38,28 -268,-12 -170,-28 -214,-32 -382,-32 -104,0 -207,4 -227,8 -36,8 -37,8 -73,118 -62,185 -207,452 -288,527 -23,22 -25,22 -46,5 l -23,-19 74,-105 c 84,-120 131,-206 182,-337 93,-234 114,-463 77,-842 -47,-485 -47,-503 -2,-498 30,3 25,-31 67,433 21,225 25,325 22,450 -3,88 -8,167 -12,175 -5,13 24,15 230,15 161,0 230,-3 219,-10 -48,-29 -48,-26 -14,-105 103,-243 159,-481 159,-681 0,-181 -14,-221 -128,-382 -87,-122 -98,-160 -86,-301 13,-147 9,-208 -19,-330 -14,-59 -23,-114 -21,-121 4,-8 -23,-23 -79,-43 -152,-55 -326,-82 -530,-82 h -129 l 16,23 c 67,92 68,159 7,282 -41,83 -45,87 -184,199 -78,63 -172,145 -208,183 -85,87 -239,272 -239,287 0,6 48,35 108,65 186,92 552,321 552,344 -1,22 -28,49 -42,41 -7,-4 -74,-47 -149,-95 -200,-128 -336,-204 -463,-259 -297,-127 -576,-178 -827,-150 -82,9 -114,9 -117,1 -5,-16 -28,-14 -70,8 -56,28 -114,38 -387,71 -810,95 -945,103 -1280,75 -340,-28 -431,-20 -605,56 -90,40 -123,50 -152,46 -46,-6 -124,-46 -269,-137 -235,-147 -308,-170 -546,-170 -160,0 -282,16 -487,64 -121,29 -195,33 -252,12 -22,-7 -82,-41 -134,-75 -148,-96 -178,-105 -350,-105 -80,-1 -172,1 -205,4 -59,5 -60,5 -63,-22 -5,-44 28,-51 233,-52 219,-1 246,6 400,101 61,38 123,74 138,81 43,19 102,14 232,-17 216,-52 318,-64 529,-59 256,6 268,11 590,207 66,41 139,80 162,88 42,14 43,14 156,-35 62,-27 143,-54 179,-61 88,-15 246,-14 464,4 276,22 377,19 791,-25 635,-68 759,-86 831,-120 78,-36 164,-116 198,-183 22,-46 25,-63 25,-170 v -118 l 33,3 32,3 3,125 c 3,121 2,126 -27,185 -17,33 -46,77 -66,97 -19,20 -35,38 -35,41 0,2 60,2 133,-1 194,-6 320,14 595,93 34,10 63,16 65,14 185,-237 285,-342 467,-489 133,-107 148,-123 178,-183 44,-90 45,-164 3,-200 -25,-21 -44,-26 -127,-32 -177,-13 -393,-3 -519,25 -22,5 -139,16 -260,25 -275,19 -380,30 -625,61 -183,24 -212,25 -470,19 -315,-7 -320,-7 -710,76 l -245,51 -250,2 c -137,0 -374,-3 -525,-8 -184,-6 -364,-5 -545,3 -406,17 -619,-3 -855,-82 -104,-35 -298,-76 -565,-119 -129,-21 -171,-23 -555,-23 -445,0 -482,3 -705,55 -171,41 -308,90 -480,175 -148,72 -351,193 -341,202 2,3 29,-4 59,-15 178,-67 356,-67 598,-1 l 76,21 149,-47 c 214,-68 279,-102 387,-204 56,-53 57,-54 77,-36 11,10 20,24 20,30 0,18 -105,113 -176,160 -41,27 -120,61 -259,108 -278,95 -353,133 -441,221 -98,99 -133,182 -134,313 0,132 40,272 152,530 l 70,163 42,10 c 22,6 51,15 64,20 14,6 79,8 160,4 l 137,-6 203,51 c 112,28 209,51 217,51 10,0 15,-11 15,-35 0,-48 31,-121 111,-261 l 69,-121 v -99 c 0,-55 3,-109 6,-121 4,-15 27,-33 68,-53 74,-36 233,-77 246,-64 5,5 11,24 12,42 l 3,34 -112,32 c -62,18 -115,35 -118,38 -3,2 -8,54 -12,113 l -6,109 -60,106 c -74,130 -117,219 -117,244 0,10 39,60 86,112 79,86 90,94 123,94 20,0 140,-14 266,-31 306,-40 459,-47 545,-25 39,10 190,79 380,174 185,93 339,164 373,172 54,13 65,12 175,-14 155,-37 273,-42 623,-26 159,7 292,10 294,8 3,-2 16,-44 30,-94 31,-105 68,-174 125,-229 33,-32 44,-38 58,-29 30,19 26,45 -16,88 -49,50 -76,103 -98,191 -20,81 -14,89 63,80 63,-6 119,-30 240,-101 192,-113 313,-136 590,-114 l 166,13 28,-34 c 39,-47 89,-132 103,-174 7,-20 17,-40 23,-46 12,-12 58,-2 71,14 17,22 -17,103 -88,212 l -71,107 58,66 c 32,37 110,119 173,182 106,106 127,122 261,197 80,45 226,136 325,201 166,110 190,130 329,273 227,234 251,269 355,529 51,127 94,225 105,238 1,1 31,-15 66,-36 35,-21 116,-66 179,-100 68,-36 156,-94 214,-142 55,-44 104,-80 110,-80 6,0 17,10 25,22 13,21 11,25 -30,61 -113,99 -183,149 -294,207 -158,83 -225,126 -225,145 0,8 31,66 69,127 151,248 194,370 171,483 -8,38 -47,113 -137,266 -69,117 -151,260 -183,318 -62,112 -68,117 -118,85 l -22,-14 31,-63 c 18,-34 92,-164 165,-289 185,-316 177,-298 172,-382 -7,-89 -27,-136 -154,-347 -111,-186 -155,-277 -247,-507 -82,-203 -116,-252 -321,-457 -142,-142 -180,-173 -321,-266 -88,-59 -214,-137 -280,-174 -172,-98 -221,-133 -300,-216 -205,-214 -292,-302 -307,-310 -33,-18 -264,-31 -352,-20 -110,13 -171,36 -308,113 -63,36 -137,73 -164,83 -27,10 -53,22 -57,26 -5,4 16,25 46,47 68,51 118,108 162,189 47,86 52,109 26,123 -29,15 -35,10 -77,-70 -68,-130 -144,-196 -294,-257 -94,-38 -113,-40 -447,-53 -300,-11 -383,-6 -555,35 -98,23 -108,23 -164,10 -77,-19 -74,-19 -74,15 0,45 99,229 209,390 214,311 290,426 300,453 10,25 8,29 -16,40 -30,13 -17,28 -136,-153 -46,-69 -121,-179 -169,-245 -89,-124 -193,-298 -229,-382 -11,-26 -24,-74 -27,-107 l -7,-59 -290,-147 c -328,-166 -360,-177 -508,-166 -128,9 -477,55 -504,66 -37,15 -76,80 -158,260 -66,142 -82,170 -100,170 -56,0 -49,-26 76,-289 32,-68 59,-128 59,-132 0,-5 -9,-9 -21,-9 -40,0 -88,-32 -133,-90 -53,-68 -46,-65 -341,-142 -190,-49 -206,-52 -325,-52 -362,1 -587,150 -729,484 -18,41 -33,76 -35,77 -9,10 -56,-19 -56,-34 0,-10 23,-65 50,-122 28,-57 49,-106 47,-108 -2,-2 -94,44 -203,102 -109,58 -205,105 -212,105 -7,0 -17,-10 -21,-22 -12,-29 -10,-30 174,-130 83,-45 191,-105 242,-135 51,-29 100,-53 111,-53 10,0 29,-12 43,-26 34,-36 156,-117 212,-140 26,-10 47,-22 47,-25 0,-3 -25,-16 -56,-28 -80,-30 -159,-86 -208,-147 -24,-29 -92,-147 -151,-263 -99,-193 -112,-213 -151,-239 -48,-29 -51,-38 -30,-68 14,-19 15,-19 51,0 61,33 97,84 198,283 53,105 114,213 135,240 39,48 118,111 128,101 3,-3 -26,-82 -65,-174 -86,-207 -110,-298 -118,-434 -9,-168 28,-276 133,-389 46,-50 147,-127 189,-145 23,-10 -23,-25 -126,-41 -192,-31 -308,-11 -534,92 -66,30 -128,52 -138,49 -22,-5 -236,124 -343,208 -99,78 -178,178 -201,255 -13,45 -14,68 -6,116 8,47 7,66 -3,87 -8,15 -21,71 -31,125 l -16,98 -76,81 c -91,97 -135,176 -128,231 3,21 17,126 31,233 49,365 53,379 154,468 197,173 807,595 1137,786 132,76 315,129 539,157 126,15 321,7 481,-22 102,-18 144,-20 280,-15 366,13 483,48 661,195 78,65 111,85 163,102 65,20 222,38 209,24 -4,-4 -40,-22 -81,-39 -139,-61 -271,-154 -432,-304 l -79,-74 -21,26 c -24,30 -33,32 -60,12 -17,-13 -16,-17 27,-93 55,-95 88,-189 88,-254 0,-26 -11,-95 -25,-153 -33,-138 -33,-138 7,-134 33,3 33,3 60,108 41,160 35,269 -24,384 l -20,40 68,63 c 208,191 354,289 512,342 107,36 255,71 304,71 83,0 328,40 533,86 300,68 397,84 545,91 147,6 263,-5 394,-38 93,-24 136,-44 363,-177 228,-134 250,-145 280,-137 47,11 183,159 183,199 0,13 -46,46 -64,46 -2,0 -27,-31 -55,-69 -28,-38 -59,-72 -67,-75 -24,-9 -389,198 -389,220 0,6 43,46 95,88 149,122 396,380 546,569 76,94 191,227 258,295 l 120,122 -20,21 -21,21 -59,-50 c -84,-70 -159,-153 -329,-363 -160,-198 -383,-429 -533,-552 -144,-120 -117,-113 -278,-71 -125,32 -157,36 -309,41 -207,7 -272,-1 -598,-73 -297,-66 -337,-73 -337,-65 0,3 29,26 63,51 88,64 202,175 253,246 82,115 115,211 134,392 6,57 20,123 31,148 10,25 19,47 19,50 0,6 -58,34 -70,34 -26,0 -59,-105 -74,-237 -24,-203 -63,-290 -190,-421 -89,-93 -192,-170 -303,-229 -123,-66 -164,-73 -373,-66 -117,4 -193,2 -229,-6 -30,-6 -56,-10 -58,-8 -2,3 8,48 22,102 49,188 33,260 -88,414 -53,66 -72,100 -93,165 -27,86 -103,256 -113,256 -3,0 -12,-4 -19,-9 -11,-6 -3,-34 37,-130 27,-66 47,-121 44,-121 -3,0 -32,25 -64,55 -32,30 -62,55 -67,55 -5,0 -17,-9 -26,-19 -18,-19 -14,-24 121,-164 76,-79 156,-170 178,-201 58,-85 60,-161 4,-344 -10,-34 -16,-68 -13,-75 3,-8 -5,-18 -18,-24 -13,-6 -70,-49 -128,-97 -144,-119 -218,-144 -500,-167 -155,-12 -224,-9 -420,22 -145,22 -377,25 -512,5 -49,-7 -88,-10 -88,-7 0,2 7,13 16,22 15,17 15,25 -5,111 -75,313 -117,588 -141,918 -20,283 -36,396 -70,495 -25,71 -179,405 -196,424 -11,12 -18,12 -43,1 -17,-7 -31,-17 -31,-23 0,-5 37,-89 81,-186 144,-311 149,-336 179,-801 16,-251 85,-676 138,-850 16,-52 31,-101 33,-109 3,-10 -26,-23 -108,-46 -129,-37 -269,-103 -429,-203 l -111,-70 -116,48 c -119,48 -137,60 -307,206 -98,84 -123,110 -225,233 -103,126 -223,219 -517,400 -142,87 -221,146 -309,229 l -67,63 -27,-24 c -35,-30 -29,-42 64,-130 67,-63 161,-128 473,-327 137,-87 249,-188 411,-373 38,-42 126,-125 195,-184 100,-83 148,-116 227,-153 l 99,-47 -64,-46 c -36,-25 -135,-94 -220,-153 -85,-59 -216,-152 -290,-208 -207,-156 -207,-156 -243,-150 -173,31 -560,159 -724,239 -107,53 -200,137 -248,225 -26,48 -30,64 -29,130 1,63 9,96 48,204 25,71 53,157 60,190 52,221 17,460 -111,761 -45,105 -48,108 -83,90 -16,-8 -31,-19 -35,-24 -3,-6 14,-57 39,-114 67,-157 99,-276 116,-433 14,-132 0,-218 -71,-434 -58,-174 -61,-189 -57,-260 3,-59 11,-90 38,-143 18,-37 31,-69 29,-71 -10,-9 -250,48 -297,70 -113,55 -346,314 -426,473 -62,121 -71,167 -71,356 1,240 2,244 200,440 92,92 160,168 175,196 l 23,46 -18,94 c -26,139 -28,143 -71,136 -20,-4 -38,-8 -41,-10 -2,-2 4,-47 13,-99 9,-52 14,-107 10,-121 -9,-38 -123,-157 -150,-157 -38,0 -197,102 -268,171 -48,47 -77,86 -99,133 -29,61 -31,75 -31,169 1,64 6,118 16,145 42,118 193,367 295,487 101,118 162,150 359,190 124,26 299,51 306,44 6,-6 -38,-192 -64,-269 -11,-34 -39,-91 -62,-127 l -42,-66 25,-19 24,-20 27,32 c 47,57 86,142 118,260 17,63 45,157 62,208 38,118 189,423 260,524 120,173 348,403 497,503 120,79 148,88 306,92 l 140,5 112,-51 c 123,-56 148,-60 208,-32 69,31 128,120 94,142 -27,17 -47,9 -68,-26 -12,-21 -36,-42 -56,-50 -31,-14 -39,-13 -87,5 -87,33 -87,32 -45,83 99,121 191,203 282,249 114,58 240,103 352,124 79,15 100,15 242,0 102,-10 321,-17 634,-21 616,-8 651,-13 845,-121 l 63,-35 -43,-42 c -24,-23 -68,-78 -97,-122 -112,-164 -192,-262 -273,-336 -46,-41 -89,-79 -96,-83 -7,-4 -63,21 -140,62 -70,38 -175,95 -234,126 -117,62 -247,146 -438,285 -116,84 -126,89 -142,74 -33,-30 -35,-28 152,-165 199,-146 282,-198 493,-309 108,-57 209,-113 224,-125 l 26,-21 -39,-124 -39,-124 2,-302 1,-302 -79,68 c -160,138 -314,229 -436,256 -37,9 -141,19 -231,22 l -163,6 -32,61 c -30,59 -31,66 -32,186 0,69 4,203 9,298 l 9,172 h -30 c -30,0 -31,-2 -36,-57 -16,-150 -29,-405 -25,-478 4,-61 12,-94 32,-133 28,-56 27,-72 -4,-72 -40,0 -188,-62 -252,-106 -115,-78 -214,-200 -324,-399 l -38,-69 -17,99 c -30,169 -62,220 -261,420 -212,212 -222,230 -274,493 -3,17 -11,22 -37,22 -18,0 -38,-5 -43,-10 -15,-15 0,-116 31,-213 39,-124 84,-187 248,-347 197,-193 229,-244 247,-401 11,-96 -5,-182 -55,-285 -28,-59 -46,-82 -88,-113 -75,-56 -109,-71 -211,-93 -107,-23 -460,-36 -568,-21 -45,6 -71,6 -78,-1 -17,-17 -12,-73 8,-82 9,-4 121,-10 248,-12 338,-6 492,22 637,117 63,41 86,65 145,148 38,54 113,175 167,268 124,216 144,245 230,331 80,80 172,131 290,161 105,26 381,23 489,-6 218,-58 520,-312 541,-455 4,-24 -1,-103 -10,-177 -10,-80 -15,-173 -13,-234 4,-89 8,-110 42,-190 21,-49 41,-105 43,-123 3,-18 -10,-109 -28,-202 -18,-93 -30,-172 -27,-175 3,-3 21,-8 41,-12 42,-6 38,-17 88,230 l 33,164 -49,114 -50,114 v 115 c 0,63 6,164 14,223 12,85 12,123 4,180 -7,45 -11,215 -10,452 l 2,380 35,96 35,97 108,97 c 104,95 166,170 307,373 l 65,93 120,65 c 132,71 273,167 282,191 3,8 -5,25 -20,40 l -25,26 -116,-77 c -64,-43 -124,-78 -133,-79 -26,-1 -73,32 -73,53 0,10 18,73 40,141 37,114 45,129 100,192 33,38 73,79 89,92 40,35 159,96 289,150 61,26 114,50 116,54 8,13 -14,51 -29,51 -24,0 -230,-86 -305,-127 -36,-19 -94,-58 -129,-85 -44,-35 -66,-47 -74,-39 -12,12 -2,29 82,133 68,85 124,125 226,163 123,47 256,53 389,19 z m -1222,-36 c 3,-21 10,-24 88,-31 138,-13 157,-21 232,-99 36,-38 90,-105 118,-148 l 52,-80 -26,-30 c -16,-19 -42,-81 -67,-161 -22,-71 -42,-129 -43,-129 -2,0 -37,16 -79,35 -42,19 -106,42 -142,50 -99,23 -328,34 -730,35 -198,1 -380,5 -405,8 l -45,7 -3,70 c -2,58 1,78 21,118 24,47 24,48 6,70 l -19,22 -29,-32 c -37,-40 -51,-88 -51,-176 v -68 l -107,7 c -155,9 -288,-20 -491,-110 -132,-57 -190,-100 -307,-223 l -111,-116 -174,-7 c -139,-6 -186,-12 -227,-28 -165,-63 -456,-323 -640,-569 -67,-91 -156,-249 -223,-401 -29,-64 -56,-121 -60,-125 -4,-5 -65,-17 -136,-27 -249,-37 -396,-77 -477,-131 -140,-93 -404,-504 -443,-691 -20,-94 -12,-201 22,-283 14,-33 27,-64 29,-70 2,-5 -14,-22 -35,-37 -22,-16 -52,-46 -68,-68 -15,-21 -32,-39 -38,-40 -6,0 -22,24 -35,53 -20,43 -23,68 -23,152 0,152 36,259 159,475 30,52 68,136 85,185 49,141 181,399 254,495 75,100 191,214 269,264 31,19 127,100 214,181 87,80 169,148 183,151 63,14 198,58 230,74 19,10 105,91 190,181 287,302 521,476 747,554 36,13 70,28 75,33 6,6 25,8 43,5 28,-4 40,2 96,52 271,243 619,427 984,519 196,50 359,69 600,68 121,0 250,-5 287,-10 60,-7 73,-6 140,19 91,34 106,35 110,7 z m 3778,-414 c 293,-124 455,-185 608,-230 182,-52 286,-94 442,-176 165,-86 304,-181 386,-263 59,-57 75,-81 88,-125 15,-49 22,-130 12,-130 -3,0 -44,13 -93,29 -48,16 -150,41 -226,56 -165,31 -194,43 -413,172 -211,125 -268,154 -370,186 -149,47 -244,60 -444,60 -194,0 -324,-14 -538,-58 -64,-13 -118,-22 -120,-20 -2,2 4,17 12,34 9,17 32,89 51,161 42,158 54,182 108,221 95,69 264,149 317,149 14,0 95,-30 180,-66 z M 2285,9981 c -3,-6 -39,-28 -80,-51 -173,-95 -346,-240 -576,-482 -84,-88 -164,-164 -178,-170 -57,-23 -111,-37 -111,-28 0,5 72,83 160,174 275,282 504,454 714,537 82,33 79,32 71,20 z m 4640,-77 c 139,-10 140,-12 28,-76 -180,-103 -514,-288 -519,-288 -3,0 37,48 88,108 52,59 122,144 157,190 l 63,84 47,-6 c 25,-3 87,-8 136,-12 z M 417,7200 c 32,-27 97,-73 146,-101 l 87,-51 -54,-59 c -98,-105 -126,-196 -126,-397 1,-232 31,-332 153,-516 58,-87 115,-155 202,-242 145,-146 206,-181 383,-218 63,-13 116,-27 119,-29 8,-8 -194,-103 -262,-123 -70,-20 -184,-22 -269,-4 -61,12 -69,9 -80,-27 -6,-20 -1,-24 51,-39 36,-10 96,-17 158,-18 119,-1 173,15 361,104 193,92 181,90 272,36 42,-26 119,-63 170,-82 60,-24 96,-44 104,-58 14,-28 78,-105 150,-184 57,-62 58,-63 41,-88 -38,-59 -163,-123 -240,-124 -48,0 -53,-2 -59,-25 -4,-14 -4,-29 0,-32 12,-13 115,-15 149,-4 51,17 147,82 195,131 l 41,43 64,-36 c 35,-20 69,-43 76,-50 9,-11 7,-54 -9,-188 -31,-266 -24,-243 -73,-235 -82,13 -314,67 -417,98 -344,102 -655,269 -857,461 -196,187 -305,380 -353,624 -14,71 -22,84 -113,189 -148,170 -277,401 -323,579 -22,87 -25,115 -21,215 5,129 26,201 90,301 19,30 42,71 50,90 8,20 29,52 47,72 45,52 74,50 147,-13 z M 2071,5312 c 46,-16 125,-39 176,-51 l 91,-23 -29,-61 c -16,-34 -32,-63 -37,-65 -18,-6 -181,101 -234,154 -50,49 -68,74 -55,74 2,0 41,-13 88,-28 z M 12321,3635 c 47,-49 91,-99 96,-110 6,-11 14,-56 18,-100 l 7,-80 -63,-95 c -75,-114 -253,-297 -354,-364 -85,-56 -97,-58 -84,-13 34,117 41,199 29,336 -15,170 -14,173 109,349 85,121 135,177 150,170 3,-2 45,-43 92,-93 z M 6600,2798 c 18,-46 83,-182 145,-303 62,-121 120,-245 129,-275 8,-30 25,-124 36,-208 40,-293 89,-365 397,-577 153,-106 294,-193 445,-275 l 117,-64 11,-62 c 6,-35 49,-172 96,-306 114,-323 144,-421 151,-495 12,-122 -20,-145 -202,-147 -94,-1 -104,1 -168,32 -163,80 -276,217 -377,460 -58,137 -322,648 -464,895 -305,530 -321,555 -416,627 -103,79 -224,201 -309,314 -65,86 -171,266 -206,349 l -15,37 27,11 c 101,39 285,66 459,68 l 111,1 z m 305,68 c 66,-8 169,-17 229,-21 98,-5 128,-12 285,-65 288,-96 447,-122 830,-136 162,-5 193,-4 189,7 -4,11 -58,16 -249,25 -274,12 -306,16 -471,50 -123,26 -363,98 -372,113 -13,20 445,37 609,22 140,-13 413,-56 448,-71 26,-11 -10,-9 -390,25 -299,27 -343,29 -343,16 0,-10 27,-14 389,-51 155,-15 285,-31 288,-34 4,-3 -84,-6 -195,-6 -173,0 -202,-2 -202,-15 0,-13 45,-15 343,-15 188,0 398,-5 466,-10 101,-8 128,-7 140,4 27,23 299,50 425,42 205,-13 244,-22 301,-67 89,-71 160,-116 311,-200 299,-165 372,-231 504,-464 87,-153 123,-205 135,-194 3,4 -38,85 -92,179 -148,261 -225,336 -488,480 -188,103 -356,213 -344,225 3,2 34,0 69,-6 76,-12 289,-107 389,-173 76,-51 252,-229 358,-362 79,-99 203,-308 203,-342 0,-22 25,-41 37,-28 4,4 1,23 -6,44 -18,48 -124,235 -168,292 -80,105 -273,315 -336,366 -64,51 -196,134 -213,134 -4,0 -28,12 -53,28 l -46,27 95,5 c 66,4 102,1 117,-7 276,-156 355,-216 450,-337 75,-96 84,-117 137,-311 45,-164 58,-196 69,-178 5,8 -36,181 -74,308 -52,173 -215,345 -461,484 -32,18 -58,37 -58,42 0,7 21,8 53,5 176,-18 156,-11 263,-92 54,-42 116,-92 137,-112 54,-52 122,-149 153,-218 24,-55 84,-334 84,-394 0,-48 -182,-344 -220,-358 -5,-2 -66,22 -136,52 -185,81 -379,136 -337,96 4,-5 53,-23 108,-41 90,-28 278,-105 314,-128 19,-12 4,-31 -55,-72 l -42,-29 -85,40 c -60,27 -113,63 -182,122 -107,92 -125,104 -125,88 0,-14 112,-120 184,-174 28,-21 77,-50 109,-64 31,-13 57,-28 57,-33 0,-5 -14,-16 -30,-24 -38,-19 -43,-18 -263,69 -92,36 -213,79 -270,96 -174,50 -340,90 -345,85 -14,-14 30,-30 214,-80 172,-47 482,-157 563,-200 l 26,-13 -65,-30 c -134,-60 -123,-59 -251,-17 -140,47 -451,201 -577,287 -151,102 -152,102 -152,85 0,-18 98,-91 223,-166 112,-67 324,-169 452,-216 55,-20 104,-40 108,-45 16,-15 -179,-69 -343,-94 -232,-36 -277,-39 -377,-31 -103,9 -89,17 62,34 104,12 322,64 339,81 23,23 -10,20 -126,-8 -184,-46 -266,-56 -453,-56 -182,-1 -312,14 -590,65 -375,70 -553,137 -721,270 -66,52 -85,75 -36,43 83,-54 124,-76 187,-98 223,-79 669,-166 1002,-197 68,-6 218,-9 335,-7 202,4 217,6 291,32 42,15 77,32 77,37 0,14 -29,11 -95,-10 -137,-43 -295,-48 -615,-20 -366,32 -900,144 -1053,221 -20,10 -83,50 -139,88 -56,39 -107,70 -114,70 -12,0 -84,80 -84,94 0,3 20,6 45,6 37,0 45,-3 45,-19 0,-14 24,-27 103,-58 156,-62 405,-141 577,-184 152,-38 157,-39 345,-39 243,-1 345,-11 530,-55 175,-42 355,-58 355,-33 0,12 -20,16 -98,21 -58,4 -173,24 -278,48 l -179,41 -250,2 c -232,2 -258,4 -360,28 -153,37 -415,117 -574,177 -143,53 -175,71 -125,71 73,0 281,-25 674,-82 322,-46 463,-62 582,-65 159,-5 228,0 228,17 0,6 -61,10 -149,10 -157,0 -226,8 -766,85 -335,49 -496,65 -646,65 h -96 l -86,110 c -79,100 -107,127 -107,101 0,-28 246,-326 361,-436 226,-218 408,-292 949,-384 96,-17 205,-33 242,-37 41,-4 65,-11 61,-17 -4,-6 -48,-7 -122,-3 -339,20 -691,112 -996,261 -178,88 -303,173 -411,280 -108,107 -144,171 -144,254 0,70 -10,131 -21,131 -4,0 -10,-39 -11,-87 l -3,-88 -34,85 c -39,97 -51,116 -51,78 0,-35 72,-231 125,-343 47,-97 94,-159 171,-226 152,-132 463,-288 677,-339 98,-24 117,-25 117,-6 0,9 -17,16 -47,21 -116,17 -332,100 -495,190 -129,72 -209,128 -271,192 -59,60 -77,87 -123,176 l -35,68 113,-114 c 125,-124 211,-186 390,-278 212,-108 447,-189 712,-245 108,-23 155,-27 431,-34 346,-9 514,-20 493,-30 -29,-17 -238,-42 -342,-41 -61,0 -172,7 -246,15 -74,9 -208,16 -297,16 -172,0 -319,21 -523,75 -217,57 -740,367 -926,550 -110,108 -129,155 -164,405 -11,74 -22,151 -26,170 l -7,35 61,-52 c 74,-61 145,-97 250,-124 96,-25 282,-37 427,-28 61,3 112,5 114,3 4,-4 -37,-23 -122,-58 -21,-9 -36,-20 -33,-25 4,-5 52,6 112,26 l 106,36 61,-17 c 33,-9 164,-57 291,-105 321,-123 438,-155 736,-200 317,-48 402,-55 650,-55 207,-1 268,3 395,22 181,28 231,40 218,53 -6,6 -72,0 -184,-16 -319,-49 -587,-44 -1009,16 -313,44 -502,93 -759,193 -102,40 -224,85 -271,101 -47,15 -89,31 -93,35 -5,4 29,13 75,20 46,6 175,27 288,45 113,18 210,30 215,25 6,-4 57,-15 116,-23 58,-9 202,-39 320,-67 441,-105 413,-101 655,-107 266,-7 505,3 531,22 15,11 -39,12 -317,8 -389,-6 -375,-8 -797,92 -150,36 -306,70 -348,76 -41,6 -75,15 -75,19 0,13 243,40 365,40 140,0 234,-14 504,-74 242,-55 361,-73 566,-86 206,-13 205,-13 205,5 0,10 -10,15 -30,15 -18,0 -33,6 -36,15 -3,8 -76,86 -162,173 -206,207 -312,277 -533,347 -92,29 -344,85 -384,85 -51,0 -22,-19 53,-35 287,-61 425,-105 555,-179 107,-61 184,-126 321,-271 l 117,-125 h -79 c -150,0 -161,4 -264,92 -247,212 -288,232 -723,352 -267,75 -267,75 -272,59 -5,-13 32,-26 280,-93 228,-62 375,-112 444,-152 66,-37 217,-154 263,-203 l 35,-37 -50,7 c -27,3 -162,31 -300,60 -300,64 -373,75 -513,75 -135,0 -196,-8 -632,-80 -442,-72 -562,-84 -783,-77 -273,8 -383,47 -518,182 -66,67 -89,95 -76,95 2,0 71,-14 153,-30 294,-60 473,-80 705,-80 230,0 535,29 857,80 116,19 274,69 288,91 14,23 -10,20 -88,-10 -191,-72 -786,-139 -1143,-128 -212,7 -358,25 -618,76 l -190,38 -18,34 c -10,19 -18,38 -19,43 0,18 173,-5 440,-58 483,-97 686,-100 1040,-15 217,52 335,88 324,99 -5,5 -104,-14 -234,-46 -317,-78 -388,-87 -600,-80 -186,5 -263,17 -595,86 -110,23 -240,44 -290,47 -49,3 -97,9 -105,13 -17,9 -75,118 -67,126 3,3 61,-12 129,-34 479,-156 909,-199 1393,-139 252,31 265,34 265,47 0,15 -50,12 -271,-16 -382,-50 -740,-30 -1118,62 -123,30 -338,98 -397,126 -37,17 -64,51 -64,80 0,14 19,10 405,-82 434,-104 567,-128 766,-142 204,-13 719,-2 719,16 0,8 -87,10 -337,8 -466,-6 -543,4 -1143,148 -157,38 -314,74 -350,81 -73,13 -90,23 -90,50 0,17 8,19 68,19 37,0 121,-6 187,-14 z m 1718,-123 c -7,-2 -21,-2 -30,0 -10,3 -4,5 12,5 17,0 24,-2 18,-5 z m 1973,-113 c 38,-15 222,-221 259,-292 30,-57 37,-83 47,-177 8,-87 8,-120 -2,-156 -7,-25 -16,-47 -20,-50 -3,-2 -19,58 -33,133 -45,230 -125,360 -307,505 l -75,59 55,-7 c 30,-4 64,-11 76,-15 z m 419,-34 c 8,-19 26,-74 41,-123 24,-83 25,-92 13,-160 -6,-40 -15,-73 -18,-73 -3,0 -25,39 -48,88 -24,48 -74,131 -113,184 -38,53 -70,99 -70,102 0,8 41,13 113,15 l 68,1 z m -231,8 c 47,-47 164,-227 202,-312 24,-53 44,-102 44,-107 0,-15 -78,-90 -86,-82 -4,3 -10,43 -15,88 -12,125 -47,186 -207,368 l -54,61 h 50 c 33,0 56,-6 66,-16 z"
         id="path95014"
         style="fill:#d7e3f4;fill-opacity:1" />
      <path
         d="m 8389,9090 c -49,-52 -100,-116 -119,-151 -32,-61 -33,-62 -25,-153 15,-168 11,-265 -14,-336 -60,-172 -192,-410 -240,-434 -14,-7 -83,-30 -153,-51 -137,-41 -141,-45 -116,-100 6,-14 17,-24 24,-21 7,3 32,10 56,16 271,71 340,110 563,322 169,159 215,182 412,199 175,16 320,1 405,-42 87,-43 236,-196 302,-307 124,-213 216,-549 216,-790 0,-88 20,-121 95,-157 41,-19 75,-27 119,-28 l 61,-2 3,41 3,41 -53,7 c -29,4 -72,16 -95,26 -39,17 -43,22 -43,54 0,26 6,38 22,47 12,6 59,40 105,75 99,76 118,86 206,109 63,17 68,20 65,44 -3,24 -6,26 -50,24 -77,-2 -143,-31 -244,-105 -52,-39 -97,-68 -99,-66 -3,2 -14,58 -25,124 -60,351 -172,602 -358,795 -86,91 -160,143 -252,178 -62,24 -74,25 -275,25 -199,-1 -214,-2 -290,-27 -109,-36 -158,-69 -297,-203 -66,-64 -121,-114 -123,-112 -2,2 16,44 40,93 88,180 120,301 111,413 -3,43 -8,111 -12,152 -7,95 7,123 128,254 83,89 86,94 72,115 -8,11 -20,21 -27,21 -6,0 -50,-41 -98,-90 z"
         id="path95016"
         style="fill:#d7e3f4;fill-opacity:1" />
      <path
         d="m 5241,5270 -32,-30 47,-56 c 63,-74 74,-79 107,-48 31,29 31,30 -39,107 l -50,57 z"
         id="path95018"
         style="fill:#d7e3f4;fill-opacity:1" />
      <path
         d="m 6645,4739 c -4,-6 -10,-62 -13,-124 -4,-90 -1,-122 13,-166 18,-56 97,-178 140,-219 24,-23 25,-23 45,-5 11,10 20,21 20,25 0,3 -27,42 -60,86 -89,117 -94,140 -86,369 1,36 -1,40 -26,43 -14,2 -29,-2 -33,-9 z"
         id="path95020"
         style="fill:#d7e3f4;fill-opacity:1" />
      <path
         d="m 3083,3685 c -3,-9 -4,-17 -2,-19 2,-1 65,-45 139,-96 74,-52 182,-129 239,-172 57,-44 109,-77 115,-75 29,10 8,38 -79,107 -106,83 -379,270 -395,270 -6,0 -13,-7 -17,-15 z"
         id="path95022"
         style="fill:#d7e3f4;fill-opacity:1" />
      <path
         d="m 7007,2113 c -3,-5 -2,-58 2,-118 6,-95 12,-119 40,-175 62,-126 91,-124 33,2 -34,73 -40,98 -46,184 -7,92 -16,128 -29,107 z"
         id="path95024"
         style="fill:#d7e3f4;fill-opacity:1" />
      <path
         d="m 8416,2113 c -13,-14 -1,-23 112,-81 254,-130 344,-151 722,-162 654,-21 778,-29 890,-54 58,-13 123,-31 144,-40 45,-19 66,-20 66,-5 0,15 -57,36 -184,70 -120,31 -116,31 -936,58 -244,9 -286,13 -370,35 -122,33 -175,53 -319,126 -65,32 -121,56 -125,53 z"
         id="path95026"
         style="fill:#d7e3f4;fill-opacity:1" />
      <path
         d="m 8230,2072 c 0,-4 125,-70 278,-145 253,-125 285,-138 372,-154 111,-19 438,-23 878,-9 231,8 272,11 272,24 0,13 -32,14 -262,6 -383,-13 -784,-9 -888,10 -73,13 -121,33 -350,146 -246,121 -300,143 -300,122 z"
         id="path95028"
         style="fill:#d7e3f4;fill-opacity:1" />
      <path
         d="m 7110,1968 c 1,-158 53,-264 211,-428 67,-70 78,-49 12,26 -141,162 -181,234 -189,341 -7,99 -14,133 -24,133 -6,0 -10,-33 -10,-72 z"
         id="path95030"
         style="fill:#d7e3f4;fill-opacity:1" />
    </g>
    <path
       style="fill:none;stroke:#dbdee3;stroke-width:1px;stroke-linecap:butt;stroke-linejoin:miter;stroke-opacity:1"
       d="m 474.14891,431.53483 c 21.71606,14.09131 14.23615,-2.18451 20.88345,-4.02303 2.81504,-10.01939 37.07769,1.98389 35.18178,-20.07848 -4.91055,-21.3528 -15.99207,-7.34412 -19.19007,-0.53306 -16.20169,40.49924 0.43693,42.8792 4.44215,36.24788 47.69877,-34.9887 39.14294,-9.71044 56.80588,-11.38525"
       id="path102428"
       sodipodi:nodetypes="cccccc" />
  </g>
  <g
     inkscape:groupmode="layer"
     id="layer6"
     inkscape:label="Layer 3">
    <path
       d="m 428.60202,512.50845 4.71,12.67 c 0,0 7,6 14.66,3 7.66,-3 14.34,-4.49 17.67,-7.41 3.33,-2.92 8,-17.59 8,-17.59 0,0 4.67,-16 9.33,-20 4.66,-4 17,-59.11 0,-53.72 -17,5.39 -30,55.39 -30,55.39 0,0 -3,3.66 -7.33,4 -4.33,0.34 -13,-0.67 -14.67,3 -1.67,3.67 -7.37,13.33 -2.37,20.66 z"
       fill="#be6f72"
       id="path92125" />
  </g>
  <g
     id="g101024"
     transform="matrix(0.09347844,0.02226974,-0.02226974,0.09347844,560.36262,386.0344)"
     style="fill:#dbdee3">
    <path
       d="m 433.601,67.001 c -24.7,-24.7 -57.4,-38.2 -92.3,-38.2 -34.9,0 -67.7,13.6 -92.4,38.3 l -12.9,12.9 -13.1,-13.1 c -24.7,-24.7 -57.6,-38.4 -92.5,-38.4 -34.8,0 -67.6,13.6 -92.2,38.2 -24.7,24.7 -38.3,57.5 -38.2,92.4 0,34.9 13.7,67.6 38.4,92.3 l 187.8,187.8 c 2.6,2.6 6.1,4 9.5,4 3.4,0 6.9,-1.3 9.5,-3.9 l 188.2,-187.5 c 24.7,-24.7 38.3,-57.5 38.3,-92.4 0.1,-34.9 -13.4,-67.7 -38.1,-92.4 z m -19.2,165.7 -178.7,178 -178.3,-178.3 c -19.6,-19.6 -30.4,-45.6 -30.4,-73.3 0,-27.7 10.7,-53.7 30.3,-73.2 19.5,-19.5 45.5,-30.3 73.1,-30.3 27.7,0 53.8,10.8 73.4,30.4 l 22.6,22.6 c 5.3,5.3 13.8,5.3 19.1,0 l 22.4,-22.4 c 19.6,-19.6 45.7,-30.4 73.3,-30.4 27.6,0 53.6,10.8 73.2,30.3 19.6,19.6 30.3,45.6 30.3,73.3 0.1,27.7 -10.7,53.7 -30.3,73.3 z"
       id="path101022"
       style="fill:#dbdee3" />
  </g>
  <metadata
     id="metadata113074">
    <rdf:RDF>
      <cc:Work
         rdf:about="">
        <dc:title>book lover</dc:title>
      </cc:Work>
    </rdf:RDF>
  </metadata>
</svg>
