<?xml version="1.0" encoding="UTF-8" standalone="no"?>
<svg
   id="f010fad9-d75e-40fc-a29f-2de004ea6566"
   data-name="Layer 1"
   width="956.73"
   height="713.19"
   viewBox="0 0 956.73 713.19"
   version="1.1"
   sodipodi:docname="4- creative_idea.edit.svg"
   inkscape:version="1.1 (c68e22c387, 2021-05-23)"
   xmlns:inkscape="http://www.inkscape.org/namespaces/inkscape"
   xmlns:sodipodi="http://sodipodi.sourceforge.net/DTD/sodipodi-0.dtd"
   xmlns="http://www.w3.org/2000/svg"
   xmlns:svg="http://www.w3.org/2000/svg"
   xmlns:rdf="http://www.w3.org/1999/02/22-rdf-syntax-ns#"
   xmlns:cc="http://creativecommons.org/ns#"
   xmlns:dc="http://purl.org/dc/elements/1.1/">
  <defs
     id="defs15762" />
  <sodipodi:namedview
     id="namedview15760"
     pagecolor="#505050"
     bordercolor="#eeeeee"
     borderopacity="1"
     inkscape:pageshadow="0"
     inkscape:pageopacity="0"
     inkscape:pagecheckerboard="0"
     showgrid="false"
     inkscape:zoom="1.1343401"
     inkscape:cx="478.69242"
     inkscape:cy="497.64618"
     inkscape:window-width="1920"
     inkscape:window-height="1017"
     inkscape:window-x="1912"
     inkscape:window-y="-8"
     inkscape:window-maximized="1"
     inkscape:current-layer="layer6" />
  <title
     id="title15693">creative thinking</title>
  <ellipse
     cx="471"
     cy="667.19"
     rx="471"
     ry="46"
     fill="#3f3d56"
     id="ellipse15695" />
  <ellipse
     cx="331"
     cy="660.69"
     rx="222"
     ry="33.5"
     opacity="0.1"
     id="ellipse15697" />
  <path
     d="M494.24,528.44a56.34,56.34,0,0,0-8.78,5.56,18.88,18.88,0,0,0-6.11,8.27c-1.71-3.55-2.64-7.41-3.78-11.18A186,186,0,0,0,467.85,511,26.77,26.77,0,0,0,480,501.67c6,5.95,12.11,12.15,15.08,20,.51,1.36,2,2.81,2.35,4C497.9,527.44,495.54,527.72,494.24,528.44Z"
     transform="translate(-121.63 -93.4)"
     fill="#ffbfc5"
     id="path15707" />
  <path
     d="M329,721.12c0,44.62,32.19,49.35,71.91,49.35s71.9-4.73,71.9-49.35-32.19-61.57-71.9-61.57S329,676.51,329,721.12Z"
     transform="translate(-121.63 -93.4)"
     fill="#3f3d56"
     id="path15709" />
  <path
     d="M550.43,673.37a55.07,55.07,0,0,1,17.94,9.6,1.85,1.85,0,0,1,.81,1.1c.14,1-1.24,1.45-2.24,1.74-3,.85-4.83,3.62-7,5.78s-5.65,3.87-8.18,2.14a8,8,0,0,1-1.72-1.81L539.36,678a64.67,64.67,0,0,1,11.37-5"
     transform="translate(-121.63 -93.4)"
     fill="#f1f1f1"
     id="path15711" />
  <path
     d="M569.64,676.27c1.42,1.44,2,3.52,3.42,5a12.23,12.23,0,0,0,3.16,2.19l8.18,4.5a22.62,22.62,0,0,0,4,1.87,35.5,35.5,0,0,0,4.69,1,33.78,33.78,0,0,1,6.62,2c1.6.66,3.39,1.79,3.38,3.52a3.82,3.82,0,0,1-1,2.28c-3.22,4.06-8.93,5-14.09,5.51-11.16,1.18-22.58,2.06-33.49-.57a14.29,14.29,0,0,1-5.89-2.55c-3.29-2.73-4-7.7-2.72-11.79a6.38,6.38,0,0,1,2.6-3.87c1.73-1,3.88-.53,5.87-.68a18.52,18.52,0,0,0,6-1.93c1.25-.56,2.68-1.29,3-2.77s-1.37-2.76-1-4C563.07,673.19,568.34,674.94,569.64,676.27Z"
     transform="translate(-121.63 -93.4)"
     fill="#575a89"
     id="path15713" />
  <path
     d="M569.64,676.27c1.42,1.44,2,3.52,3.42,5a12.23,12.23,0,0,0,3.16,2.19l8.18,4.5a22.62,22.62,0,0,0,4,1.87,35.5,35.5,0,0,0,4.69,1,33.78,33.78,0,0,1,6.62,2c1.6.66,3.39,1.79,3.38,3.52a3.82,3.82,0,0,1-1,2.28c-3.22,4.06-8.93,5-14.09,5.51-11.16,1.18-22.58,2.06-33.49-.57a14.29,14.29,0,0,1-5.89-2.55c-3.29-2.73-4-7.7-2.72-11.79a6.38,6.38,0,0,1,2.6-3.87c1.73-1,3.88-.53,5.87-.68a18.52,18.52,0,0,0,6-1.93c1.25-.56,2.68-1.29,3-2.77s-1.37-2.76-1-4C563.07,673.19,568.34,674.94,569.64,676.27Z"
     transform="translate(-121.63 -93.4)"
     opacity="0.1"
     id="path15715" />
  <path
     d="M588.61,720.93l3.44,2.27a6.15,6.15,0,0,1,2.49,2.46c.75,1.75-.26,3.73-1.38,5.27a30.28,30.28,0,0,1-13.24,10.26,19.73,19.73,0,0,1-5.75,1.43,2.4,2.4,0,0,1-1.33-.16c-1.05-.56-.9-2.05-.91-3.24,0-3.43-2.63-6.22-5-8.75s-4.71-5.63-4.17-9a11.2,11.2,0,0,1,3-5.28,21.59,21.59,0,0,1,4.5-4.25c2.43-1.59,3.28-.73,5.56.72Q582.25,716.75,588.61,720.93Z"
     transform="translate(-121.63 -93.4)"
     fill="#f1f1f1"
     id="path15717" />
  <path
     d="M577.45,737.67a6.13,6.13,0,0,0,5.41-1.22,13.55,13.55,0,0,0,3.51-4.52,36.74,36.74,0,0,0,2.18-4.78c.72-1.93,1.38-4.06,3.08-5.23,2-1.42,4.94-.86,7,.51s3.62,3.4,5.39,5.16c4.17,4.16,9.66,6.79,15.3,8.51s11.49,2.58,17.28,3.69a9.8,9.8,0,0,1,3.32,1.07c2.34,1.43,3.13,4.62,2.47,7.28S640,753,638.11,755a17.24,17.24,0,0,1-5.73,4.43,18.29,18.29,0,0,1-5.79,1.1,98.89,98.89,0,0,1-28.6-2.24,76.51,76.51,0,0,0-10.48-2.09c-2.15-.19-4.33-.13-6.48-.28a34.12,34.12,0,0,1-12.38-3.26,4.37,4.37,0,0,1-2.25-1.88,4.62,4.62,0,0,1-.17-2.48l1.43-12.54c.13-1.09.49-2.45,1.58-2.62s1.78.9,2.43,1.72a8.87,8.87,0,0,0,10.61,2.32"
     transform="translate(-121.63 -93.4)"
     fill="#575a89"
     id="path15719" />
  <path
     d="M494.41,579.53c6.29-.71,13.59-.83,17.85,3.86,2.61,2.88,3.4,6.91,4.3,10.68a69.35,69.35,0,0,0,6.82,18.16c2,3.54,4.43,6.85,6,10.61s2.16,8,3.08,12.09A72.94,72.94,0,0,0,558,675.57c-2.27,6.17-8.84,9.7-15.23,11.28A8.39,8.39,0,0,1,538,687a8.52,8.52,0,0,1-3.09-2.28,106,106,0,0,1-8.33-10.21c-9.21-12.3-18.55-24.85-23.57-39.36-1.76-5.1-3.52-11-8.47-13.17-2.82-1.22-6.05-.84-9.08-.32a123.09,123.09,0,0,0-19.92,5.11c-6.92,2.41-14.84,5.37-21.17,1.69-3.79-2.21-6-6.44-6.87-10.74s-.43-8.74,0-13.1a13.49,13.49,0,0,1,1.38-5.66,12.27,12.27,0,0,1,3.31-3.35,68.15,68.15,0,0,1,18.64-10c6.39-2.26,13.27-3,19.94-4.13Q487.56,580.3,494.41,579.53Z"
     transform="translate(-121.63 -93.4)"
     fill="#575a89"
     id="path15721" />
  <path
     d="M494.41,579.53c6.29-.71,13.59-.83,17.85,3.86,2.61,2.88,3.4,6.91,4.3,10.68a69.35,69.35,0,0,0,6.82,18.16c2,3.54,4.43,6.85,6,10.61s2.16,8,3.08,12.09A72.94,72.94,0,0,0,558,675.57c-2.27,6.17-8.84,9.7-15.23,11.28A8.39,8.39,0,0,1,538,687a8.52,8.52,0,0,1-3.09-2.28,106,106,0,0,1-8.33-10.21c-9.21-12.3-18.55-24.85-23.57-39.36-1.76-5.1-3.52-11-8.47-13.17-2.82-1.22-6.05-.84-9.08-.32a123.09,123.09,0,0,0-19.92,5.11c-6.92,2.41-14.84,5.37-21.17,1.69-3.79-2.21-6-6.44-6.87-10.74s-.43-8.74,0-13.1a13.49,13.49,0,0,1,1.38-5.66,12.27,12.27,0,0,1,3.31-3.35,68.15,68.15,0,0,1,18.64-10c6.39-2.26,13.27-3,19.94-4.13Q487.56,580.3,494.41,579.53Z"
     transform="translate(-121.63 -93.4)"
     opacity="0.1"
     id="path15723" />
  <path
     d="M530.43,624.91a32.48,32.48,0,0,1,8,5.65c2.55,2.72,4.1,6.23,5.42,9.73a11.81,11.81,0,0,1,.94,3.76,4.27,4.27,0,0,1-1.39,3.48,6.23,6.23,0,0,1-3.93,1c-1.82,0-3.65,0-5.47-.14a9.14,9.14,0,0,1-3.24-.62,9,9,0,0,1-2.52-1.91,35.43,35.43,0,0,1-7.75-10.46c-1.32-2.91-3.5-9.63-1.42-12.66S528.17,623.62,530.43,624.91Z"
     transform="translate(-121.63 -93.4)"
     fill="#ffbfc5"
     id="path15725" />
  <path
     d="M442.2,623.87c9.31,3,19.22,3.32,28.95,4.23a241.78,241.78,0,0,1,48.25,9.54c3.22,1,6.51,2.08,9.1,4.23a27.06,27.06,0,0,1,5.28,6.72,113.49,113.49,0,0,1,6.93,12.12c1.77,3.78,3.12,7.74,4.76,11.57a81.31,81.31,0,0,0,25.37,32.49c2,1.55,4.29,3.23,4.81,5.72a7.94,7.94,0,0,1-.75,4.7c-2.4,5.59-7.38,9.66-12.61,12.77-2.24,1.34-4.72,2.69-5.82,5.07-7.94-3.28-13.85-10.28-18.76-17.32s-9.28-14.63-15.58-20.47c-2.77-2.58-5.92-4.82-8.11-7.92-3.33-4.72-4.23-11.18-8.71-14.82s-11-3.17-16.79-2.6a412,412,0,0,1-89.15-1c-6.15-.73-12.47-1.67-17.8-4.84s-9.48-9.09-8.73-15.24c.71-5.76,5.5-10.32,10.85-12.57s11.25-2.66,17-3.31C415,631.36,428.66,628.76,442.2,623.87Z"
     transform="translate(-121.63 -93.4)"
     fill="#575a89"
     id="path15727" />
  <path
     d="M357.11,635.82c.73-4.88,2.62-9.5,3.81-14.29a86.42,86.42,0,0,1,2.26-8.93c0-.09.07-.17.1-.25a2.06,2.06,0,0,0,1.52-.87,2.52,2.52,0,0,0,.13-1.34,9.72,9.72,0,0,1,0-1.43,102.25,102.25,0,0,1,6.38-9.45c4-5.71,7.52-11.78,11-17.84,2.86-5,5.72-9.94,8.08-15.16,1.78-3.91,3.27-8,5.23-11.78,7-13.6,19.52-23.63,33-30.83,12.94-6.91,26.93-11.56,40.53-17.06a9.22,9.22,0,0,1,.95,1.12c7.35,10.05,8.14,23.25,11.17,35.33,1.22,4.88,2.85,9.74,2.85,14.76,0,7.42-3.55,14.32-7.08,20.85-3.31,6.15-6.72,12.3-11.11,17.73-2.08,2.58-4.37,5-6.46,7.55-8.58,10.51-13.53,23.44-18.35,36.13-2.78,7.35-7.34,13.86-10.4,21.1-1.18,2.78-1.86,5.77-3.34,8.41s-4.05,4.94-7.07,5a10.6,10.6,0,0,1-2.61-.41c-10.93-2.81-20.08-10-29.16-16.74-1.63-1.2-3.26-2.38-5-3.46s-3.5-2.07-5.28-3l-4.06-2.23c-4.42-2.42-8.86-4.85-13.47-6.9a24.51,24.51,0,0,1-4-2A23.87,23.87,0,0,1,357.11,635.82Z"
     transform="translate(-121.63 -93.4)"
     fill="#3f3d56"
     id="path15729" />
  <circle
     cx="378.36"
     cy="409.02"
     r="25.18"
     fill="#ffbfc5"
     id="circle15731" />
  <path
     d="M516.94,490.64a6,6,0,0,0,6.2,2.91,8.69,8.69,0,0,0,5.79-4.13,16.33,16.33,0,0,0,2.14-6.94c.21-1.91.18-4-1.05-5.49a12.06,12.06,0,0,0-3.19-2.24,12.14,12.14,0,0,1-4-4c-.7-1.17-1.21-2.44-1.84-3.64-2.29-4.35-6.75-7.89-11.66-7.73-2.36.08-4.61,1-6.94,1.38-7.81,1.37-16.29-2.76-23.54.46a22,22,0,0,0-4.92,3.28q-3.06,2.53-5.88,5.32a12.14,12.14,0,0,0-3.58,5.21c-1,3.7,1.35,7.83-.14,11.35a16.72,16.72,0,0,1-1.81,2.85c-1.64,2.41.14,11.82,0,14.73a5.45,5.45,0,0,0,1,4c1.19,1.33,3.18,1.44,5,1.46l3.27,0a4.15,4.15,0,0,0,1.45-.15,4.39,4.39,0,0,0,1.65-1.26c2.72-2.87,3.3-12.24,7.25-12.2a2.82,2.82,0,0,1,1.71.44c.71.52.92,1.49,1.43,2.21a4.18,4.18,0,0,0,4.85,1.14,10.94,10.94,0,0,0,4.13-3.34,16.27,16.27,0,0,1,3.86-3.69c2.11-1.23,4.49-1.76,6.54-3.15,1.71-1.16,2.68-2.84,4.22-4.12s2.84-1.1,4.48-.25C515.73,486.36,515.83,488.44,516.94,490.64Z"
     transform="translate(-121.63 -93.4)"
     fill="#3f3d56"
     id="path15733" />
  <path
     d="M458.76,535a40.07,40.07,0,0,1,17.54,1.4,9.32,9.32,0,0,1,4.89,2.91,8.78,8.78,0,0,1,1.4,3.66,29.59,29.59,0,0,1-2.13,17.84,2.36,2.36,0,0,0-.29,1.9,3.36,3.36,0,0,0,1,1,3.48,3.48,0,0,1-.21,5.19c-.47.34-1.09.64-1.18,1.21s.49,1.12.95,1.56a5.59,5.59,0,0,1,1.56,5.14,11.27,11.27,0,0,0-.51,2.27,7.41,7.41,0,0,0,.83,2.71,11.86,11.86,0,0,1,.75,6,6.61,6.61,0,0,0-.07,2.93,6.82,6.82,0,0,0,1.12,1.76c1.81,2.44,2.2,6.52-.42,8a6.07,6.07,0,0,1,3.23,6.26c1.57-.83,3.47.24,4.78,1.44s2.64,2.68,4.41,2.77c1.24.06,2.55-.58,3.67-.07,1.72.77,1.66,3.56,3.35,4.39,1.48.74,3.55-.46,4.81.61.44.37.66.94,1.09,1.33.95.88,2.45.51,3.75.45,3.07-.12,5.9,2,7.49,4.58s2.16,5.73,2.57,8.77a11.61,11.61,0,0,1-.1,5.05,4.33,4.33,0,0,1-3.55,3.2c-15.45,1-30.7-2.71-45.75-6.37-4.42-1.08-8.91-2.34-12.6-5-3.35-2.43-5.81-5.85-8.21-9.21-4.43-6.21-8.89-12.46-12.06-19.39-4.08-8.91-5.9-18.67-7.68-28.32a26.34,26.34,0,0,1-.65-7.9,22.39,22.39,0,0,1,3.48-8.66,94.3,94.3,0,0,1,7-9.93C446.89,539.71,452.68,535.87,458.76,535Z"
     transform="translate(-121.63 -93.4)"
     opacity="0.1"
     id="path15735" />
  <path
     d="M459.77,534a40,40,0,0,1,17.55,1.41,9.24,9.24,0,0,1,4.89,2.9,8.92,8.92,0,0,1,1.4,3.66,29.66,29.66,0,0,1-2.13,17.84,2.36,2.36,0,0,0-.29,1.9,3.36,3.36,0,0,0,1,1,3.48,3.48,0,0,1-.21,5.19c-.47.34-1.09.64-1.18,1.21s.49,1.12,1,1.56a5.59,5.59,0,0,1,1.56,5.14,11.27,11.27,0,0,0-.51,2.27,7.39,7.39,0,0,0,.82,2.71,11.77,11.77,0,0,1,.76,6,4.32,4.32,0,0,0,1.05,4.69c1.81,2.44,2.2,6.52-.42,8.06a6.05,6.05,0,0,1,3.23,6.25c1.57-.83,3.47.24,4.78,1.44s2.64,2.68,4.41,2.77c1.24.06,2.54-.58,3.67-.07,1.72.78,1.66,3.56,3.35,4.4,1.48.73,3.55-.47,4.81.6.44.37.66.94,1.09,1.33.95.88,2.45.51,3.75.45,3.07-.12,5.9,2,7.49,4.58a22.5,22.5,0,0,1,2.57,8.77,11.93,11.93,0,0,1-.1,5,4.33,4.33,0,0,1-3.55,3.2c-15.45,1-30.7-2.71-45.75-6.37-4.42-1.08-8.92-2.34-12.6-5-3.35-2.42-5.81-5.85-8.21-9.21-4.43-6.2-8.89-12.45-12.06-19.38-4.08-8.92-5.9-18.68-7.68-28.32a26.4,26.4,0,0,1-.65-7.91A22.39,22.39,0,0,1,437,553.4a91.74,91.74,0,0,1,7-9.92C447.91,538.69,453.7,534.86,459.77,534Z"
     transform="translate(-121.63 -93.4)"
     fill="#3f3d56"
     id="path15737" />
  <g
     inkscape:groupmode="layer"
     id="layer5"
     inkscape:label="Layer 1" />
  <g
     inkscape:groupmode="layer"
     id="layer6"
     inkscape:label="Layer 2">
    <path
       d="m 736.42931,390.02878 c 0,32.00297 -11.18116,59.32643 -32.4585,79.65958 -15.09872,14.43613 -38.35554,34.66989 -38.35554,56.06319 v 17.69937 h -70.81404 v -17.69937 c 0,-21.61692 -23.34793,-41.8921 -38.35554,-56.06319 -20.79696,-19.62087 -32.4585,-48.79957 -32.4585,-79.65958 v -0.65431 a 106.22157,106.22157 0 0 1 212.44212,0.65431 z"
       fill="#6c63ff"
       id="path38381"
       style="stroke-width:0.828234" />
    <path
       id="ecc2cf6c-8ee8-498c-972d-3c77e28b77e9"
       data-name="Path 2546"
       d="m 665.61444,545.93605 a 2.4847032,2.4847032 0 0 1 -2.4847,-2.4847 v -17.70268 c 0,-20.80939 20.52282,-40.23563 35.50889,-54.41997 1.24236,-1.17775 2.45241,-2.31906 3.61359,-3.43304 20.72988,-19.81799 31.68742,-46.74306 31.68742,-77.86563 0,-58.16607 -45.56366,-103.73056 -103.72973,-103.73056 h -0.2932 A 103.55415,103.55415 0 0 0 526.47934,389.44613 v 0.57976 c 0,30.47903 11.54476,58.85682 31.67583,77.85983 1.01956,0.96324 2.07887,1.95464 3.16634,2.97254 15.17905,14.21167 35.96774,33.67435 35.96774,54.89123 v 17.70186 a 2.484705,2.484705 0 0 1 -4.96941,0 v -17.70268 c 0,-19.06182 -19.87763,-37.67307 -34.39492,-51.26771 q -1.63866,-1.53307 -3.18125,-2.98579 c -21.11998,-19.93726 -33.23373,-49.63112 -33.23373,-81.46845 v -0.59633 c 0.16565,-59.67015 48.77058,-108.10364 108.39932,-108.10364 h 0.30727 a 108.1318,108.1318 0 0 1 108.69257,107.5681 q 0.003,0.56755 -4e-5,1.13518 c 0,32.51234 -11.48844,60.67976 -33.22214,81.45768 -1.16699,1.11563 -2.38201,2.26605 -3.63264,3.44959 -14.32845,13.564 -33.95761,32.14047 -33.95761,50.81136 v 17.70268 a 2.4847032,2.4847032 0 0 1 -2.4847,2.4847 z"
       fill="#3f3d56"
       style="stroke-width:0.828234" />
    <path
       id="b22bef41-3cd7-4c1e-881c-c9a642005cb0"
       data-name="Path 2547"
       d="M 653.81376,577.81893 H 606.6044 a 4.141172,4.141172 0 1 1 0,-8.28234 h 47.20936 a 4.141172,4.141172 0 0 1 0,8.28234 z"
       fill="#6c63ff"
       style="stroke-width:0.828234" />
    <path
       d="m 635.28525,605.56467 h -10.16002 a 19.419314,19.419314 0 0 1 -10.01677,-2.77507 2.3137059,2.3137059 0 0 1 -1.05046,-2.66224 2.3906986,2.3906986 0 0 1 2.32042,-1.77415 h 27.65384 a 2.3908146,2.3908146 0 0 1 2.32052,1.77415 2.3135569,2.3135569 0 0 1 -1.05067,2.66224 19.41803,19.41803 0 0 1 -10.01686,2.77507 z"
       fill="#3f3d56"
       id="path38385"
       style="stroke-width:0.828234" />
    <path
       d="m 653.82185,590.8999 -47.48942,-0.005 -0.1471,-0.31544 a 3.9142358,3.9142358 0 0 1 0.74523,-3.36106 4.0215998,4.0215998 0 0 1 3.16624,-1.5311 h 40.21718 a 4.021078,4.021078 0 0 1 3.16655,1.5315 3.8910452,3.8910452 0 0 1 0.75443,3.319 l -0.0746,0.31989 z"
       fill="#3f3d56"
       id="path38387"
       style="stroke-width:0.828234" />
    <path
       id="e0eb6627-54a4-4797-861b-0d156b8b485b"
       data-name="Path 2548"
       d="m 520.3852,292.41432 a 4.1246073,4.1246073 0 0 1 -2.72158,-1.02121 l -35.56356,-31.04306 a 4.141172,4.141172 0 0 1 5.44647,-6.23909 l 35.56356,31.04306 a 4.141172,4.141172 0 0 1 -2.72489,7.26113 z"
       fill="#e4e4e4"
       style="stroke-width:0.828234" />
    <path
       id="e13fc22b-cd18-4b6e-a2d4-df4b74c6b7e7"
       data-name="Path 2549"
       d="m 734.13432,292.41432 a 4.141172,4.141172 0 0 1 -2.72489,-7.26113 l 35.56266,-31.04554 a 4.141172,4.141172 0 0 1 5.44647,6.23909 L 736.855,291.38979 a 4.1246073,4.1246073 0 0 1 -2.72068,1.02453 z"
       fill="#e4e4e4"
       style="stroke-width:0.828234" />
    <path
       id="a74da646-4683-465e-97fe-dd817e7fc328"
       data-name="Path 2550"
       d="M 665.61444,563.12191 H 594.8004 a 4.141172,4.141172 0 0 1 0,-8.28234 h 70.81404 a 4.141172,4.141172 0 0 1 0,8.28234 z"
       fill="#6c63ff"
       style="stroke-width:0.828234" />
    <path
       d="m 628.46896,454.93751 -14.72601,88.51341 h -8.40658 l 14.95791,-89.87172 a 4.1433802,4.1433802 0 0 1 8.17468,1.35831 z"
       fill="#e6e6e6"
       id="path38392"
       style="stroke-width:0.828234" />
    <path
       d="m 656.76973,543.45092 h -8.40658 l -14.72601,-88.51341 a 4.1433766,4.1433766 0 0 1 8.17467,-1.35831 z"
       fill="#e6e6e6"
       id="path38394"
       style="stroke-width:0.828234" />
    <path
       id="be3a5c8a-fbb4-472c-819b-e8dd06032f6a"
       data-name="Path 2551"
       d="m 603.29438,451.98071 a 4.141172,4.141172 0 0 1 4.14117,-4.14117 h 45.54709 a 4.141172,4.141172 0 0 1 0,8.28234 h -45.54709 a 4.141172,4.141172 0 0 1 -4.14117,-4.14117 z"
       fill="#e6e6e6"
       style="stroke-width:0.828234" />
    <path
       id="e9f776ed-f4b6-47dc-b212-c247d99ecb23"
       data-name="Path 2553"
       d="m 630.20908,251.07632 a 4.141172,4.141172 0 0 1 -4.14117,-4.14117 V 176.1211 a 4.141172,4.141172 0 0 1 8.28234,0 v 70.81405 a 4.141172,4.141172 0 0 1 -4.14117,4.14117 z"
       fill="#e4e4e4"
       style="stroke-width:0.828234" />
  </g>
  <metadata
     id="metadata23445">
    <rdf:RDF>
      <cc:Work
         rdf:about="">
        <dc:title>creative thinking</dc:title>
      </cc:Work>
    </rdf:RDF>
  </metadata>
</svg>
