<?xml version="1.0" encoding="UTF-8" standalone="no"?>
<svg
   id="afc98551-3d88-4acb-87ed-36f06011ac7a"
   data-name="Layer 1"
   width="821.67627"
   height="579.00958"
   viewBox="0 0 821.67627 579.00958"
   version="1.1"
   sodipodi:docname="3 - Scrum_board.edit.svg"
   inkscape:version="1.1 (c68e22c387, 2021-05-23)"
   xmlns:inkscape="http://www.inkscape.org/namespaces/inkscape"
   xmlns:sodipodi="http://sodipodi.sourceforge.net/DTD/sodipodi-0.dtd"
   xmlns="http://www.w3.org/2000/svg"
   xmlns:svg="http://www.w3.org/2000/svg">
  <defs
     id="defs99" />
  <sodipodi:namedview
     id="namedview97"
     pagecolor="#505050"
     bordercolor="#eeeeee"
     borderopacity="1"
     inkscape:pageshadow="0"
     inkscape:pageopacity="0"
     inkscape:pagecheckerboard="0"
     showgrid="false"
     inkscape:zoom="1.4369365"
     inkscape:cx="256.79632"
     inkscape:cy="325.34493"
     inkscape:window-width="1920"
     inkscape:window-height="1017"
     inkscape:window-x="1912"
     inkscape:window-y="-8"
     inkscape:window-maximized="1"
     inkscape:current-layer="afc98551-3d88-4acb-87ed-36f06011ac7a" />
  <path
     d="M371.238,218.49521h-52.3999a19.01722,19.01722,0,0,0-19,19v56.81c-.66992-.04-1.33985-.1-2-.18a66.99888,66.99888,0,1,1,73.10009-77.63C371.0481,217.15518,371.1482,217.82523,371.238,218.49521Z"
     transform="translate(-189.16186 -160.49521)"
     fill="#f2f2f2"
     id="path2" />
  <path
     d="M989.83814,216.49521h-671a21.023,21.023,0,0,0-21,21v354a21.023,21.023,0,0,0,21,21h671a21.023,21.023,0,0,0,21-21v-354A21.023,21.023,0,0,0,989.83814,216.49521Zm19,375a19.01722,19.01722,0,0,1-19,19h-671a19.01722,19.01722,0,0,1-19-19v-354a19.01722,19.01722,0,0,1,19-19h671a19.01722,19.01722,0,0,1,19,19Z"
     transform="translate(-189.16186 -160.49521)"
     fill="#3f3d56"
     id="path4" />
  <path
     d="M956.83814,273.86484h-605a1,1,0,0,1,0-2h605a1,1,0,0,1,0,2Z"
     transform="translate(-189.16186 -160.49521)"
     fill="#3f3d56"
     id="path6" />
  <path
     d="M522.83814,569.49521a1,1,0,0,1-1-1v-329a1,1,0,1,1,2,0v329A1.00005,1.00005,0,0,1,522.83814,569.49521Z"
     transform="translate(-189.16186 -160.49521)"
     fill="#3f3d56"
     id="path8" />
  <path
     d="M673.83814,569.49521a1,1,0,0,1-1-1v-329a1,1,0,1,1,2,0v329A1.00005,1.00005,0,0,1,673.83814,569.49521Z"
     transform="translate(-189.16186 -160.49521)"
     fill="#3f3d56"
     id="path10" />
  <path
     d="M824.83814,569.49521a1,1,0,0,1-1-1v-329a1,1,0,1,1,2,0v329A1.00005,1.00005,0,0,1,824.83814,569.49521Z"
     transform="translate(-189.16186 -160.49521)"
     fill="#3f3d56"
     id="path12" />
  <path
     d="M425.75379,377.08261h-36.54a4.505,4.505,0,0,1-4.5-4.5V329.463a4.505,4.505,0,0,1,4.5-4.5h36.54a4.505,4.505,0,0,1,4.5,4.5v43.11963A4.505,4.505,0,0,1,425.75379,377.08261Z"
     transform="translate(-189.16186 -160.49521)"
     fill="#6c63ff"
     id="path14" />
  <path
     d="M477.75379,500.08261h-36.54a4.505,4.505,0,0,1-4.5-4.5V452.463a4.505,4.505,0,0,1,4.5-4.5h36.54a4.505,4.505,0,0,1,4.5,4.5v43.11963A4.505,4.505,0,0,1,477.75379,500.08261Z"
     transform="translate(-189.16186 -160.49521)"
     fill="#6c63ff"
     id="path16" />
  <path
     d="M595.75391,403.08261h-36.54a4.50508,4.50508,0,0,1-4.5-4.5V355.463a4.50508,4.50508,0,0,1,4.5-4.5h36.54a4.50508,4.50508,0,0,1,4.5,4.5v43.11963A4.50508,4.50508,0,0,1,595.75391,403.08261Z"
     transform="translate(-189.16186 -160.49521)"
     fill="#6c63ff"
     id="path18" />
  <path
     d="M748.75391,356.08261h-36.54a4.50508,4.50508,0,0,1-4.5-4.5V308.463a4.50508,4.50508,0,0,1,4.5-4.5h36.54a4.50508,4.50508,0,0,1,4.5,4.5v43.11963A4.50508,4.50508,0,0,1,748.75391,356.08261Z"
     transform="translate(-189.16186 -160.49521)"
     fill="#6c63ff"
     id="path20" />
  <path
     d="M889.75391,356.08261h-36.54a4.50508,4.50508,0,0,1-4.5-4.5V308.463a4.50508,4.50508,0,0,1,4.5-4.5h36.54a4.50508,4.50508,0,0,1,4.5,4.5v43.11963A4.50508,4.50508,0,0,1,889.75391,356.08261Z"
     transform="translate(-189.16186 -160.49521)"
     fill="#6c63ff"
     id="path22" />
  <path
     d="M954.75391,368.08261h-36.54a4.50508,4.50508,0,0,1-4.5-4.5V320.463a4.50508,4.50508,0,0,1,4.5-4.5h36.54a4.50508,4.50508,0,0,1,4.5,4.5v43.11963A4.50508,4.50508,0,0,1,954.75391,368.08261Z"
     transform="translate(-189.16186 -160.49521)"
     fill="#e6e6e6"
     id="path24" />
  <path
     d="M925.75391,445.08261h-36.54a4.50508,4.50508,0,0,1-4.5-4.5V397.463a4.50508,4.50508,0,0,1,4.5-4.5h36.54a4.50508,4.50508,0,0,1,4.5,4.5v43.11963A4.50508,4.50508,0,0,1,925.75391,445.08261Z"
     transform="translate(-189.16186 -160.49521)"
     fill="#e6e6e6"
     id="path26" />
  <path
     d="M801.75391,429.08261h-36.54a4.50508,4.50508,0,0,1-4.5-4.5V381.463a4.50508,4.50508,0,0,1,4.5-4.5h36.54a4.50508,4.50508,0,0,1,4.5,4.5v43.11963A4.50508,4.50508,0,0,1,801.75391,429.08261Z"
     transform="translate(-189.16186 -160.49521)"
     fill="#ff6584"
     id="path28" />
  <path
     d="M730.75391,445.08261h-36.54a4.50508,4.50508,0,0,1-4.5-4.5V397.463a4.50508,4.50508,0,0,1,4.5-4.5h36.54a4.50508,4.50508,0,0,1,4.5,4.5v43.11963A4.50508,4.50508,0,0,1,730.75391,445.08261Z"
     transform="translate(-189.16186 -160.49521)"
     fill="#e6e6e6"
     id="path30" />
  <path
     d="M577.75391,513.08261h-36.54a4.50508,4.50508,0,0,1-4.5-4.5V465.463a4.50508,4.50508,0,0,1,4.5-4.5h36.54a4.50508,4.50508,0,0,1,4.5,4.5v43.11963A4.50508,4.50508,0,0,1,577.75391,513.08261Z"
     transform="translate(-189.16186 -160.49521)"
     fill="#e6e6e6"
     id="path32" />
  <path
     d="M392.75379,456.08261h-36.54a4.505,4.505,0,0,1-4.5-4.5V408.463a4.505,4.505,0,0,1,4.5-4.5h36.54a4.505,4.505,0,0,1,4.5,4.5v43.11963A4.505,4.505,0,0,1,392.75379,456.08261Z"
     transform="translate(-189.16186 -160.49521)"
     fill="#ff6584"
     id="path34" />
  <path
     d="M495.75379,377.08261h-36.54a4.505,4.505,0,0,1-4.5-4.5V329.463a4.505,4.505,0,0,1,4.5-4.5h36.54a4.505,4.505,0,0,1,4.5,4.5v43.11963A4.505,4.505,0,0,1,495.75379,377.08261Z"
     transform="translate(-189.16186 -160.49521)"
     fill="#e6e6e6"
     id="path36" />
  <path
     d="M465.83814,257.49521h-57a4,4,0,0,1,0-8h57a4,4,0,0,1,0,8Z"
     transform="translate(-189.16186 -160.49521)"
     fill="#ccc"
     id="path38" />
  <path
     d="M626.83814,257.49521h-57a4,4,0,0,1,0-8h57a4,4,0,0,1,0,8Z"
     transform="translate(-189.16186 -160.49521)"
     fill="#ccc"
     id="path40" />
  <path
     d="M777.83814,257.49521h-57a4,4,0,0,1,0-8h57a4,4,0,0,1,0,8Z"
     transform="translate(-189.16186 -160.49521)"
     fill="#ccc"
     id="path42" />
  <path
     d="M918.83814,257.49521h-57a4,4,0,0,1,0-8h57a4,4,0,0,1,0,8Z"
     transform="translate(-189.16186 -160.49521)"
     fill="#ccc"
     id="path44" />
  <path
     d="M338.17107,550.38656A10.05577,10.05577,0,0,1,329.471,537.6561L303.83814,513.795l13.55277-3.43814,25.20573,20.44382a10.11027,10.11027,0,0,1-4.42557,19.58585Z"
     transform="translate(-189.16186 -160.49521)"
     fill="#ffb8b8"
     id="path46"
     style="fill:#b87f77;fill-opacity:1" />
  <polygon
     points="184.404 566.253 196.664 566.253 202.496 518.965 184.402 518.965 184.404 566.253"
     fill="#ffb8b8"
     id="polygon48"
     style="fill:#b87f77;fill-opacity:1" />
  <path
     d="M370.93892,723.24476h38.53073a0,0,0,0,1,0,0v14.88687a0,0,0,0,1,0,0H385.82577a14.88686,14.88686,0,0,1-14.88686-14.88686v0A0,0,0,0,1,370.93892,723.24476Z"
     transform="translate(591.28005 1300.86337) rotate(179.99738)"
     fill="#2f2e41"
     id="path50" />
  <polygon
     points="100.345 557.401 112.193 560.555 129.994 516.359 112.509 511.705 100.345 557.401"
     fill="#ffb8b8"
     id="polygon52"
     style="fill:#b87f77;fill-opacity:1" />
  <path
     d="M285.30672,718.54064h38.53073a0,0,0,0,1,0,0v14.88687a0,0,0,0,1,0,0H300.19358a14.88686,14.88686,0,0,1-14.88686-14.88686v0A0,0,0,0,1,285.30672,718.54064Z"
     transform="matrix(-0.96635, -0.25722, 0.25722, -0.96635, 222.9961, 1345.38778)"
     fill="#2f2e41"
     id="path54" />
  <circle
     cx="151.68415"
     cy="234.02423"
     r="24.56103"
     fill="#ffb8b8"
     id="circle58"
     style="fill:#b87f77;fill-opacity:1" />
  <path
     d="M446.56619,456.05763a10.05577,10.05577,0,0,1-14.88374,4.02868L400.553,476.22078l1.37589-13.70578,27.59693-17.07886a10.11028,10.11028,0,0,1,17.04041,10.62149Z"
     transform="translate(-189.16186 -160.49521)"
     fill="#ffb8b8"
     id="path64"
     style="fill:#b87f77;fill-opacity:1" />
  <path
     d="M428.283,466.25982l-30.34625,13.11355a12.80885,12.80885,0,0,1-12.477-1.33846l-38.58893-27.64906A10.355,10.355,0,0,1,344.89728,435.4a10.41025,10.41025,0,0,1,14.40861-1.568l33.08845,26.042,26.30022-10.17517Z"
     transform="translate(-189.16186 -160.49521)"
     fill="#ccc"
     id="path66" />
  <path
     d="M928.64656,739.50479h-738.294a1.19069,1.19069,0,1,1,0-2.38137h738.294a1.19069,1.19069,0,1,1,0,2.38137Z"
     transform="translate(-189.16186 -160.49521)"
     fill="#3f3d56"
     id="path94" />
  <path
     d="M321.49463,535.13583l-23.31836-23.17089a13.13671,13.13671,0,0,1-3.47973-12.39161l11.28857-45.91894A10.35411,10.35411,0,0,1,319.165,446.254a10.41072,10.41072,0,0,1,6.80908,12.79394L314.0896,499.44443l19.21826,20.63672Z"
     transform="translate(-189.16186 -160.49521)"
     fill="#ccc"
     id="path62" />
  <path
     d="M389.12281,717.795H370.41553a4.72981,4.72981,0,0,1-4.72607-4.293L354.333,595.5704a3.74767,3.74767,0,0,0-7.321-.71484L314.03858,705.05478a4.74216,4.74216,0,0,1-5.7,3.24609l-17.40308-4.35156a4.74747,4.74747,0,0,1-3.44727-5.78711c.28418-1.11035,28.41065-111.02832,28.65625-112.1582,6.37281-46.96778,13.99707-59.55371,18.093-66.31445.33911-.55958.65064-1.07422.93115-1.56055.35108-.6084,2.51245-6.64453,3.88355-10.56445a4.79,4.79,0,0,1,2.43506-2.97754c17.21069-8.80176,37.34741-2.709,43.10913-.63184a4.6821,4.6821,0,0,1,2.33813,1.81543c17.28467,26.07129,8.80225,177.49121,6.92627,207.581A4.75127,4.75127,0,0,1,389.12281,717.795Z"
     transform="translate(-189.16186 -160.49521)"
     fill="#2f2e41"
     id="path56" />
  <path
     d="M338.24365,512.3331l-.17651-.1709c-.33105-.32031-33.05566-32.37988-28.82056-62.02441,1.81128-12.67969,12.07032-20.78125,29.66773-23.43067a27.13473,27.13473,0,0,1,29.99976,19.1211l17.3999,59.48437Z"
     transform="translate(-189.16186 -160.49521)"
     fill="#ccc"
     id="path60" />
  <path
     d="M344.91778,402.38974c3.03-3.79642,8.69082-4.00051,12.85285-6.50478,5.45181-3.28033,7.70574-10.61077,5.94888-16.726s-6.93808-10.881-12.8784-13.16029-12.5494-2.30748-18.81589-1.20568c-9.33021,1.64048-18.51612,5.99512-24.20655,13.56895s-7.13858,18.66583-1.98149,26.61243c2.37026,3.65236,6.02921,6.66714,6.97549,10.91712,1.2423,5.57954-2.6714,10.96083-6.86421,14.846-4.77673,4.42628-10.257,8.1334-14.44192,13.12294s-6.97564,11.80621-5.066,18.03215c1.6,5.21635,6.25591,9.05948,11.36143,10.98408s10.66607,2.2027,16.12124,2.30939c5.29718.10361,10.92363-.02522,15.386-2.88141,4.77715-3.05764,7.32781-8.8583,7.51626-14.52705s-1.70587-11.22252-4.24464-16.2945c-1.51323-3.02314-3.27267-5.95256-4.27818-9.18027s-1.1797-6.89016.43058-9.86274c1.69267-3.12465,5.1171-5.009,8.6041-5.69419.18117-.0356.37286-.06739.57335-.0957a7.39847,7.39847,0,0,0,6.33328-8.62766C343.8467,405.80819,343.881,403.68869,344.91778,402.38974Z"
     transform="translate(-189.16186 -160.49521)"
     fill="#2f2e41"
     id="path68" />
</svg>
