<?xml version="1.0" encoding="utf-8"?>
<svg viewBox="0 0 500 500" xmlns="http://www.w3.org/2000/svg">
  <defs>
    <radialGradient gradientUnits="userSpaceOnUse" cx="765.181" cy="53.509" r="9.196" id="gradient-1">
      <stop offset="0" style="stop-color: rgba(107, 99, 255, 0.45)"/>
      <stop offset="1" style="stop-color: rgba(13, 0, 252, 0.45)"/>
    </radialGradient>
  </defs>
  <path d="M 438.378 335.287 L 313.363 335.287 C 311.982 335.285 310.864 334.182 310.862 332.821 L 310.862 309.605 L 311.863 309.605 L 311.863 332.821 C 311.865 333.639 312.535 334.299 313.363 334.301 L 438.378 334.301 C 439.206 334.299 439.877 333.639 439.878 332.821 L 439.878 309.443 L 440.879 309.443 L 440.879 332.821 C 440.878 334.182 439.759 335.285 438.378 335.287 Z" fill="#3f3d56" style=""/>
  <rect x="189.927" y="309.112" width="293.769" height="0.986" fill="#3f3d56" style=""/>
  <circle id="a67a4451-c7cc-402c-b29d-5a705f3c9418" data-name="Ellipse 264" cx="379.174" cy="189.407" r="17.202" fill="#6c63ff" style="" transform="matrix(0.500269, 0, 0, 0.49293, 0.260295, 216.162766)"/>
  <circle id="abdb3fbf-f68e-433e-a33f-153626b38c76" data-name="Ellipse 266" cx="553.979" cy="189.407" r="17.202" fill="#6c63ff" style="" transform="matrix(0.500269, 0, 0, 0.49293, 0.260295, 216.162766)"/>
  <circle id="ac293633-0933-4e21-a8aa-bc27ca4fbccc" data-name="Ellipse 268" cx="672.611" cy="239.968" r="17.202" fill="#3f3d56" style="" transform="matrix(0.500269, 0, 0, 0.49293, 0.260295, 216.162766)"/>
  <circle id="a0cd768d-b738-4d4b-9ab3-78ab535c7573" data-name="Ellipse 269" cx="762.798" cy="239.968" r="17.202" fill="#ccc" style="" transform="matrix(0.500269, 0, 0, 0.49293, 0.260295, 216.162766)"/>
  <circle id="b9eb3d2e-31e0-4fe2-be5c-79abb86bc227" data-name="Ellipse 270" cx="719.095" cy="189.407" r="17.202" fill="#6c63ff" style="" transform="matrix(0.500269, 0, 0, 0.49293, 0.260295, 216.162766)"/>
  <circle id="aa04baac-fce0-420a-b86a-4a97f3079928" data-name="Ellipse 271" cx="963.994" cy="189.407" r="17.202" fill="#6c63ff" style="" transform="matrix(0.500269, 0, 0, 0.49293, 0.260295, 216.162766)"/>
  <circle id="e92cf92c-058e-415c-ba96-766a57ee18d9" data-name="Ellipse 272" cx="879.764" cy="189.407" r="17.202" fill="#6c63ff" style="" transform="matrix(0.500269, 0, 0, 0.49293, 0.260295, 216.162766)"/>
  <rect id="ac5bf8cc-574d-4509-9338-881c836fd832" data-name="Rectangle 207" x="328.573" width="15.962" height="10.839" fill="#3f3d56" y="231.548" style=""/>
  <rect id="ad5a043d-52f1-4931-b771-e4991ef7f7f7" data-name="Rectangle 208" x="182.031" width="15.962" height="10.839" fill="#6c63ff" y="231.548" style=""/>
  <rect id="e5d95e83-bdd9-4322-95a9-5a9c4b449a8f" data-name="Rectangle 209" x="236.097" width="15.962" height="10.839" fill="#ccc" y="231.548" style=""/>
  <path d="M 216.634 310.097 C 216.358 310.097 216.134 309.877 216.134 309.605 L 216.134 285.272 C 216.136 283.911 217.255 282.809 218.636 282.808 L 242.986 282.808 C 243.371 282.808 243.612 283.219 243.419 283.547 C 243.331 283.7 243.165 283.793 242.986 283.793 L 218.636 283.793 C 217.807 283.794 217.136 284.456 217.135 285.272 L 217.135 309.605 C 217.135 309.877 216.91 310.097 216.634 310.097 Z" fill="#3f3d56" style=""/>
  <circle id="b0a7c1c1-8f27-441f-a84a-e44462cc473e" data-name="Ellipse 265" cx="487.479" cy="135.827" r="17.202" fill="#e6e6e6" style="" transform="matrix(0.500269, 0, 0, 0.49293, 0.260295, 216.162766)"/>
  <path d="M 409.237 309.605 L 408.237 309.605 L 408.237 285.272 C 408.239 283.911 409.358 282.809 410.739 282.808 L 435.088 282.808 L 435.088 283.793 L 410.739 283.793 C 409.91 283.794 409.239 284.456 409.237 285.272 Z" fill="#3f3d56" style=""/>
  <circle id="b3140cf1-cdb8-48ff-81af-ce41ed4f5739" data-name="Ellipse 265" cx="871.479" cy="135.827" r="17.202" fill="#e6e6e6" style="" transform="matrix(0.500269, 0, 0, 0.49293, 0.260295, 216.162766)"/>
  <title>add_color</title>
  <path d="M 225.57 455.756 L 225.57 455.756" style="stroke: rgb(0, 0, 0); fill: rgb(216, 216, 216);"/>
  <title>mathematics</title>
  <ellipse cx="90.198" cy="475.721" rx="59.933" ry="7.574" opacity="0.1" style=""/>
  <ellipse cx="89.947" cy="418.521" rx="56.66" ry="62.685" fill="#3f3d56" style=""/>
  <rect x="72.571" y="455.61" width="35.255" height="33.432" fill="#6c63ff" style=""/>
  <polygon points="153.909 463.707 151.895 475.199 164.989 477.288 173.551 472.065 173.048 463.707 153.909 463.707" fill="#575a89" style=""/>
  <path d="M 87.932 247.967 C 87.932 247.967 86.925 259.981 84.407 260.504 C 81.888 261.026 89.947 281.921 89.947 281.921 L 102.034 281.921 L 111.603 279.309 L 107.07 267.817 C 107.07 267.817 101.027 259.459 105.56 252.668 C 110.092 245.877 87.932 247.967 87.932 247.967 Z" fill="#a0616a" style=""/>
  <path d="M 87.932 247.967 C 87.932 247.967 86.925 259.981 84.407 260.504 C 81.888 261.026 89.947 281.921 89.947 281.921 L 102.034 281.921 L 111.603 279.309 L 107.07 267.817 C 107.07 267.817 101.027 259.459 105.56 252.668 C 110.092 245.877 87.932 247.967 87.932 247.967 Z" opacity="0.1" style=""/>
  <path d="M 62.75 339.904 C 62.75 339.904 49.655 366.023 60.232 371.247 C 70.808 376.47 73.326 375.948 73.326 377.515 C 73.326 379.082 71.312 378.56 72.319 381.172 C 73.326 383.783 70.305 394.231 73.326 400.499 C 76.348 406.768 75.341 411.469 75.341 411.469 C 75.341 411.469 75.341 411.991 76.348 414.081 C 77.356 416.17 77.859 417.738 77.356 418.782 C 76.852 419.827 73.83 426.618 76.852 428.185 C 79.874 429.752 95.487 430.797 96.998 428.185 C 98.509 425.573 95.487 424.006 96.998 422.439 C 98.509 420.872 99.516 420.349 98.509 419.305 C 97.501 418.26 96.494 405.201 96.494 405.201 C 96.494 405.201 99.012 390.052 98.005 387.962 C 96.998 385.873 95.487 383.783 96.494 382.216 C 97.501 380.649 98.509 381.172 99.012 379.082 C 99.516 376.993 100.523 372.291 100.523 372.291 L 106.063 371.769 L 119.158 374.381 C 119.158 374.381 133.764 391.097 149.88 396.32 C 149.88 396.32 154.413 401.022 155.924 401.022 C 157.435 401.022 157.435 401.022 156.931 402.066 C 156.427 403.111 154.917 403.111 155.924 404.156 C 156.931 405.201 158.442 403.634 157.435 405.201 C 156.427 406.768 155.42 406.768 156.427 407.813 C 157.435 408.857 155.924 414.603 155.924 415.126 C 155.924 415.648 151.391 464.751 152.902 465.796 C 154.413 466.841 175.566 469.975 177.077 465.796 C 178.588 461.617 176.069 456.393 176.069 456.393 C 176.069 456.393 183.624 393.708 181.61 389.53 C 179.595 385.351 172.544 366.545 134.771 354.531 C 134.771 354.531 124.194 352.441 124.194 350.874 C 124.194 349.307 123.187 339.382 121.172 338.859 C 119.158 338.337 107.574 337.815 107.574 337.815 L 92.969 342.516 L 72.823 338.859 Z" fill="#2f2e41" style=""/>
  <path d="M 80.377 427.663 L 77.859 437.065 C 77.859 437.065 75.845 452.214 78.363 455.871 C 80.341 458.743 83.873 462.26 90.422 462.877 C 94.204 463.237 97.718 460.821 98.873 457.069 C 98.948 456.851 98.995 456.624 99.012 456.393 C 99.012 455.348 97.501 442.811 97.501 442.811 L 94.983 429.752 L 94.479 426.096 Z" fill="#2f2e41" style=""/>
  <path d="M 153.909 472.587 C 153.909 472.587 151.391 469.975 150.887 472.587 C 150.384 475.198 148.369 486.168 151.895 486.691 C 155.42 487.213 189.164 492.437 192.69 490.347 C 196.215 488.258 202.763 485.124 198.733 483.556 C 194.704 481.989 183.12 477.288 183.12 477.288 C 183.12 477.288 176.573 468.408 175.566 467.885 C 174.559 467.363 169.019 468.408 166.5 470.497 C 163.982 472.587 153.909 472.587 153.909 472.587 Z" fill="#2f2e41" style=""/>
  <circle cx="289.5" cy="184.61354" r="31" fill="#a0616a" transform="matrix(0.503642, 0, 0, 0.522372, -45.785049, 146.306152)" style=""/>
  <path d="M 98.509 279.309 L 92.465 272.518 L 85.766 258.937 C 85.766 258.937 80.881 257.369 79.874 259.981 C 78.867 262.593 60.735 270.951 60.735 270.951 C 60.735 270.951 65.268 314.83 63.254 319.009 C 61.239 323.188 57.714 339.904 60.735 341.471 C 63.757 343.038 77.859 341.471 82.392 343.561 C 86.925 345.65 100.02 345.65 103.545 343.038 C 107.07 340.427 108.078 338.337 111.603 339.904 C 114.605 341.238 121.621 295.627 123.641 282.035 C 123.988 279.707 123.03 277.375 121.169 276.023 C 116.65 272.735 108.511 267.07 107.07 267.817 C 105.056 268.862 98.509 279.309 98.509 279.309 Z" fill="#575a89" style=""/>
  <path d="M 120.165 277.22 L 120.165 277.22 C 122.587 277.848 124.377 279.972 124.653 282.546 L 128.727 320.576 C 128.727 320.576 118.654 343.038 113.618 327.89 C 108.581 312.741 120.165 277.22 120.165 277.22 Z" fill="#575a89" style=""/>
  <path d="M 119.158 324.233 L 130.238 321.099 C 130.238 321.099 132.253 335.725 134.267 335.725 C 136.282 335.725 127.216 344.083 122.683 343.038 C 118.151 341.994 111.603 338.337 111.1 335.725 C 110.596 333.113 115.632 322.144 115.632 322.144 Z" fill="#575a89" style=""/>
  <path d="M 88.233 249.729 C 89.295 247.301 89.111 244.469 89.988 241.963 C 92.005 236.207 98.756 234.03 103.563 237.585 C 104.692 238.42 105.824 239.593 107.202 239.434 C 108.686 239.262 110.01 237.545 111.375 238.174 C 112.887 238.872 112.478 241.683 114.011 242.332 C 114.817 242.674 115.77 242.148 116.235 241.384 C 116.642 240.581 116.864 239.691 116.883 238.784 C 117.094 236.556 117.285 234.198 116.354 232.179 C 115.962 231.494 115.62 230.78 115.332 230.042 C 115.169 229.353 115.104 228.643 115.138 227.935 C 115.129 225.316 114.945 222.585 113.675 220.322 C 112.265 217.811 109.658 216.205 106.939 215.504 C 104.22 214.804 101.371 214.911 98.58 215.156 C 93.965 215.561 89.152 216.43 85.516 219.406 C 85.022 219.78 84.596 220.244 84.26 220.774 C 83.941 221.404 83.716 222.081 83.591 222.781 C 82.805 226.101 81.627 229.308 80.082 232.328 C 79.339 233.609 78.732 234.969 78.271 236.385 C 77.886 237.824 77.912 239.463 78.719 240.7 C 79.376 241.707 80.427 242.243 81.252 243.067 C 82.07 243.882 82.452 245.451 83.358 246.068 C 84.149 246.608 85.097 246.227 85.903 246.798 C 86.939 247.532 87.014 249.141 88.233 249.729 Z" fill="#2f2e41" style=""/>
  <path d="M 101.027 287.145 L 102.538 284.01 C 102.538 284.01 124.698 290.801 129.231 297.07 C 129.231 297.07 140.311 289.757 146.355 290.801 L 152.398 291.846 L 133.764 309.084 L 110.092 306.995 Z" fill="#f2f2f2" style=""/>
  <path d="M 100.02 284.01 L 79.37 313.786 L 109.085 328.934 C 109.085 328.934 111.863 330.502 114 328.934 L 133.764 319.532 L 152.398 291.846 L 133.764 301.771 C 133.764 301.771 131.749 297.592 127.72 299.682 Z" fill="#6c63ff" style=""/>
  <path d="M 131.749 336.77 L 135.778 325.8 C 135.778 325.8 144.844 313.786 139.807 308.04 C 134.771 302.293 129.231 324.755 129.231 324.755 Z" fill="#a0616a" style=""/>
  <path d="M 85.262 335.019 L 94.053 327.627 C 94.053 327.627 107.707 321.951 106.13 314.36 C 104.553 306.769 88.895 323.316 88.895 323.316 Z" fill="#a0616a" style=""/>
  <path d="M 63.505 282.182 L 63.002 282.182 C 63.002 282.182 55.195 272.518 53.684 285.578 C 52.173 298.637 47.137 341.994 60.232 343.561 C 73.326 345.128 82.644 337.031 82.644 337.031 C 82.644 337.031 92.213 321.882 88.688 321.882 C 86.982 321.882 82.342 321.088 78.111 321.36 C 73.597 321.65 69.541 322.969 69.801 321.621 C 70.305 319.009 77.607 285.839 63.505 282.182 Z" opacity="0.1" style=""/>
  <path d="M 62.75 271.996 L 60.735 270.951 C 60.735 270.951 52.677 272.518 51.166 285.578 C 49.655 298.637 44.619 341.994 57.714 343.561 C 70.808 345.128 88.436 341.471 88.436 341.471 C 88.436 341.471 91.961 321.621 88.436 321.621 C 84.91 321.621 66.779 324.233 67.283 321.621 C 67.786 319.009 76.852 275.652 62.75 271.996 Z" fill="#575a89" style=""/>
  <polygon points="124.446 330.763 130 321.934 133.512 336.509 124.446 340.688 124.446 330.763" fill="#575a89" style=""/>
  <circle cx="111.47314" cy="85.11354" r="27" fill="#f2f2f2" transform="matrix(0.503642, 0, 0, 0.522372, 343.155884, 206.724045)" style=""/>
  <rect x="275.35" y="225.635" width="32.233" height="33.432" fill="#f2f2f2" style=""/>
  <polygon points="343.736 251.296 351.895 265.952 360.053 280.609 343.736 280.609 327.42 280.609 335.577 265.952 343.736 251.296" fill="#f2f2f2" style=""/>
  <path d="M 498.084 279.788 C 497.97 283.72 497.115 286.872 495.518 289.243 C 493.92 291.615 492.023 292.801 489.825 292.801 C 488.035 292.801 486.466 291.64 485.118 289.32 C 483.769 286.999 483.095 283.428 483.096 278.608 C 483.096 277.543 483.118 276.528 483.163 275.564 C 483.209 274.6 483.265 273.687 483.333 272.824 L 484.523 260.306 L 476.672 260.306 C 475.313 276.135 474.197 285.552 473.324 288.558 C 472.452 291.564 470.974 293.067 468.889 293.068 C 467.948 293.042 467.05 292.621 466.374 291.888 C 465.58 291.1 465.143 289.955 465.184 288.768 C 465.184 287.601 466.006 285.972 467.649 283.878 C 469.291 281.785 470.203 279.877 470.385 278.151 L 472.424 260.306 L 469.127 260.306 C 468.198 260.311 467.283 260.566 466.459 261.047 C 465.7 261.438 465.041 262.033 464.539 262.778 L 463.077 265.214 L 461.888 265.214 C 462.998 261.358 464.363 258.46 465.983 256.519 C 467.603 254.578 469.466 253.608 471.574 253.608 L 497.54 253.608 L 497.54 260.306 L 488.771 260.306 C 488.499 263.349 488.29 266.394 488.143 269.438 C 487.995 272.482 487.921 275.538 487.922 278.608 C 487.922 280.688 488.353 282.376 489.213 283.669 C 490.074 284.963 491.15 285.609 492.442 285.609 C 493.235 285.609 494.068 285.248 494.94 284.525 C 495.778 283.867 496.318 282.832 496.419 281.69 C 496.487 281.132 496.538 280.695 496.571 280.378 C 496.606 280.061 496.623 279.864 496.623 279.788 Z" fill="#6c63ff" style=""/>
  <title>predictive analytics</title>
  <rect x="95.548" y="67.096" width="111.544" height="51.213" fill="#3f3d56" style=""/>
  <rect x="111.199" y="85.497" width="82.33" height="0.173" fill="#6c63ff" opacity="0.3" style=""/>
  <rect x="111.294" y="89.838" width="82.33" height="0.173" fill="#6c63ff" opacity="0.3" style=""/>
  <rect x="111.294" y="98.518" width="82.33" height="0.173" fill="#6c63ff" opacity="0.3" style=""/>
  <rect x="111.294" y="102.337" width="82.33" height="0.173" fill="#6c63ff" opacity="0.3" style=""/>
  <rect x="111.294" y="94.178" width="82.33" height="0.173" fill="#6c63ff" opacity="0.3" style=""/>
  <polygon points="113.579 102.462 113.316 102.212 125.571 91.523 136.374 98.634 145.11 89.77 148.94 92.749 159.36 87.028 170.935 94.148 189.101 84.691 189.288 84.994 170.918 94.555 159.349 87.439 148.902 93.176 145.145 90.253 136.428 99.097 125.605 91.972 113.579 102.462" fill="#6c63ff" style=""/>
  <circle cx="765.181" cy="53.509" r="9.196" fill="#6c63ff" opacity="0.4" transform="matrix(0.691033, 0, 0, 0.632393, -378.806641, 157.399231)" style=""/>
  <circle cx="703.181" cy="69.509" r="6.451" fill="#6c63ff" opacity="0.4" transform="matrix(0.691033, 0, 0, 0.632393, -349.311707, 158.526215)" style=""/>
  <circle cx="674.181" cy="500.509" r="3.431" fill="#6c63ff" opacity="0.4" transform="matrix(0.691033, 0, 0, 0.632393, -342.182251, -109.070641)" style=""/>
  <circle cx="608.181" cy="173.509" r="3.569" fill="#6c63ff" transform="matrix(0.691033, 0, 0, 0.632393, -231.29776, -24.141108)" style=""/>
  <path d="M 172.952 126.462 L 170.862 126.675 C 170.862 126.675 169.933 130.501 170.862 135.603 C 171.792 140.705 172.952 145.807 172.952 145.807 C 172.952 145.807 173.882 162.388 174.346 162.6 C 174.811 162.813 178.992 164.089 179.225 162.813 C 179.456 161.537 179.456 132.415 179.456 132.415 L 182.708 146.445 C 182.708 146.445 183.173 164.089 184.102 164.089 C 185.032 164.089 188.052 163.876 188.052 162.388 C 188.052 160.899 188.748 141.343 188.748 141.343 C 188.748 141.343 188.516 126.887 187.587 126.462 C 186.658 126.037 172.952 126.462 172.952 126.462 Z" fill="#2f2e41" style=""/>
  <path d="M 174.811 161.962 C 174.811 161.962 172.72 161.749 172.256 161.962 C 171.792 162.175 171.094 163.663 172.256 164.513 C 173.417 165.363 176.437 166.639 177.366 166.639 C 178.01 166.613 178.642 166.468 179.225 166.214 L 178.76 162.6 Z" fill="#2f2e41" style=""/>
  <path d="M 184.102 163.025 L 184.334 166.001 C 184.334 166.001 187.354 166.426 187.587 166.001 C 187.819 165.576 190.142 164.513 190.375 164.301 C 190.606 164.089 190.84 161.749 189.445 161.537 C 188.052 161.325 187.587 161.962 187.587 161.962 Z" fill="#2f2e41" style=""/>
  <path d="M 164.59 108.606 C 164.59 108.606 159.015 113.495 159.712 116.046 C 160.409 118.597 165.984 126.037 165.984 126.037 C 165.984 126.037 171.326 128.589 172.024 126.037 C 172.72 123.486 168.306 124.124 168.306 124.124 L 164.823 116.471 L 168.771 111.369 Z" fill="#ffb8b8" style=""/>
  <path d="M 189.5 101.168 C 189.5 101.168 194.579 98.179 194.462 96.125 C 194.344 94.072 191.282 87.598 191.282 87.598 C 191.282 87.598 188.887 83.041 187.936 84.903 C 186.983 86.766 189.187 88.748 189.187 88.748 L 190.609 95.099 L 186.744 98.473 Z" fill="#ffb8b8" style=""/>
  <circle cx="544.53" cy="216.728" r="6.051" fill="#ffb8b8" transform="matrix(0.691033, 0, 0, 0.632393, -199.387466, -43.969631)" style=""/>
  <path d="M 174.811 95.426 L 175.508 99.465 L 180.618 98.615 C 180.618 98.615 180.386 94.576 180.386 94.15 C 180.386 93.725 174.811 95.426 174.811 95.426 Z" fill="#ffb8b8" style=""/>
  <path d="M 174.578 99.465 C 174.578 99.465 180.386 98.189 181.082 98.615 C 181.78 99.039 185.264 99.465 185.264 99.465 L 189.213 104.992 L 188.052 112.006 C 188.052 112.006 187.819 123.273 188.284 125.186 C 188.748 127.1 191.304 127.313 185.961 127.738 C 180.618 128.163 179.689 127.525 175.973 128.376 C 172.256 129.226 169.236 127.95 170.165 127.1 C 171.094 126.249 172.72 112.645 170.862 111.369 C 169.004 110.094 168.306 103.503 168.306 103.503 C 168.306 103.503 174.578 100.528 174.578 99.465 Z" fill="#d0cde1" style=""/>
  <path d="M 184.567 100.103 L 185.264 99.465 L 186.658 98.189 C 186.658 98.189 191.187 99.997 190.955 100.634 C 190.722 101.272 189.213 104.992 189.213 104.992 L 187.122 105.63 Z" fill="#d0cde1" style=""/>
  <path d="M 171.094 103.929 L 168.306 103.503 C 168.306 103.503 166.216 105.63 165.519 106.48 C 164.823 107.33 163.428 109.456 163.428 109.456 L 168.306 112.645 L 172.024 109.031 Z" fill="#d0cde1" style=""/>
  <path d="M 178.361 88.452 L 178.318 88.145 C 178.034 88.143 177.751 88.185 177.481 88.265 C 177.453 88.08 177.471 87.893 177.533 87.715 C 177.258 87.78 176.997 87.883 176.758 88.023 L 176.589 87.464 L 174.266 88.511 C 173.433 88.886 172.554 89.3 172.078 90.031 C 171.547 90.844 171.639 91.89 172.002 92.778 C 172.366 93.666 172.969 94.452 173.453 95.29 C 173.637 95.65 173.857 95.995 174.112 96.316 C 174.988 97.317 176.694 97.519 177.931 96.916 C 178.401 96.708 178.775 96.355 178.989 95.919 C 179.078 95.649 179.149 95.373 179.2 95.094 C 179.353 94.522 179.531 93.343 180.038 92.982 C 180.261 92.822 180.703 93.35 180.888 93.153 C 181.363 92.65 181.264 91.874 180.968 91.266 C 180.685 90.655 180.355 90.065 179.977 89.498 C 179.818 89.27 178.356 88.415 178.361 88.452 Z" fill="#2f2e41" style=""/>
  <circle cx="765.181" cy="53.509" r="9.196" opacity="0.4" transform="matrix(12.258522, 0, 0, 7.423267, -9218.333984, -287.723938)" style="fill-rule: nonzero; fill: url(#gradient-1); paint-order: fill; fill-opacity: 0.86; stroke: rgba(85, 123, 218, 0.19);"/>
</svg>